<?xml version="1.0" encoding="utf-8"?>
<!-- Generator: Adobe Illustrator 23.0.1, SVG Export Plug-In . SVG Version: 6.00 Build 0)  -->
<svg version="1.1" id="Agrupar_2_copiar_2_1_" xmlns="http://www.w3.org/2000/svg" xmlns:xlink="http://www.w3.org/1999/xlink"
	 x="0px" y="0px" viewBox="0 0 3398.4 2390.4" style="enable-background:new 0 0 3398.4 2390.4;" xml:space="preserve">
<style type="text/css">
	.st0{fill:#FFFFFF;}
	.st1{fill:#009BDB;}
	.st2{font-family:'ArialMT';}
	.st3{font-size:853.6486px;}
</style>
<g id="Camada_2_copiar_xA0_Imagem_1_">
	<g>
		<path class="st0" d="M1693.6,1582.1l-116.8-114.4c-11.3-11-25.9-16.4-40.5-16.1L1364,1282.6c3.7-13.7,0.1-29-10.8-39.7
			L806.1,707.1c-10.9-10.7-26.2-14-39.9-10L575.5,510.2c1.5-16.3-4.1-33.1-16.8-45.5L441.9,350.3c-22.3-21.9-58.1-21.5-80,0.8l0,0
			c-21.9,22.3-21.5,58.1,0.8,80l116.8,114.4c12.6,12.4,29.5,17.6,45.8,15.8l190.7,186.9c-3.7,13.7-0.1,29,10.8,39.7l547.1,535.9
			c10.9,10.7,26.2,14,39.9,10l167.7,164.3c-3.2,17.8,2.2,36.8,16.1,50.4l116.8,114.4c22.3,21.9,58.1,21.5,80-0.8l0,0
			C1716.3,1639.7,1715.9,1603.9,1693.6,1582.1z"/>
		<path class="st0" d="M1906.6,958.3l-163.5-1.2c-15.7-0.1-30,6.2-40.4,16.5l-241.3-1.7c-6.9-12.4-20.1-20.9-35.3-21l-765.8-5.5
			c-15.2-0.1-28.5,8.2-35.6,20.5l-267-1.9c-10.3-12.8-26-21-43.6-21.1l-163.5-1.2c-31.2-0.2-56.8,24.9-57,56.2l0,0
			c-0.2,31.2,24.9,56.7,56.2,57l163.5,1.2c17.7,0.1,33.5-7.8,43.9-20.5l267,1.9c6.9,12.4,20.1,20.9,35.3,21l765.8,5.5
			c15.2,0.1,28.6-8.2,35.6-20.5l234.8,1.7c10.1,15,27.1,24.9,46.6,25.1l163.5,1.2c31.2,0.2,56.7-24.9,57-56.2l0,0
			C1963,984,1937.8,958.5,1906.6,958.3z"/>
		<path class="st0" d="M1615.2,351.3l-116.4,114.8c-11.2,11-16.8,25.6-16.8,40.2L1310,675.7c-13.7-3.9-29-0.6-39.8,10.1
			l-545.4,537.6c-10.8,10.7-14.4,26-10.7,39.7L524,1450.6c-16.3-1.7-33.2,3.6-45.8,15.9l-116.4,114.8c-22.3,21.9-22.5,57.8-0.6,80
			l0,0c21.9,22.3,57.8,22.5,80,0.6l116.4-114.8c12.6-12.4,18.1-29.2,16.6-45.5l190.2-187.5c13.7,3.9,29,0.6,39.8-10.1l545.4-537.6
			c10.8-10.7,14.4-26,10.7-39.7l167.2-164.8c17.7,3.5,36.8-1.6,50.6-15.2l116.4-114.8c22.3-21.9,22.5-57.8,0.6-80l0,0
			C1673.2,329.6,1637.4,329.4,1615.2,351.3z"/>
		<path class="st0" d="M969.6,129.1l1.7,163.5c0.2,15.7,6.8,29.9,17.2,40.1L991,574c-12.3,7.1-20.6,20.5-20.4,35.7l7.9,765.8
			c0.2,15.2,8.7,28.4,21.1,35.3l2.8,267c-12.6,10.5-20.5,26.3-20.3,44l1.7,163.5c0.3,31.2,25.9,56.3,57.1,56l0,0
			c31.2-0.3,56.3-25.9,56-57.2l-1.7-163.5c-0.2-17.7-8.4-33.3-21.2-43.6l-2.8-267c12.3-7.1,20.6-20.4,20.4-35.7l-7.9-765.8
			c-0.2-15.2-8.7-28.4-21.1-35.3l-2.4-234.8c14.8-10.3,24.4-27.6,24.2-47l-1.7-163.5c-0.3-31.2-25.9-56.3-57.2-56l0,0
			C994.4,72.3,969.3,97.9,969.6,129.1z"/>
		<g>
			<path class="st0" d="M1033.3,501.5c68.9,0,135.6,13.5,198.4,40c60.7,25.7,115.2,62.5,162.1,109.3s83.6,101.4,109.3,162.1
				c26.6,62.8,40,129.6,40,198.4s-13.5,135.6-40,198.4c-25.7,60.7-62.4,115.2-109.3,162.1c-46.9,46.9-101.4,83.6-162.1,109.3
				c-62.8,26.6-129.6,40-198.4,40s-135.6-13.5-198.4-40c-60.7-25.7-115.2-62.4-162.1-109.3c-46.9-46.9-83.6-101.4-109.3-162.1
				c-26.6-62.8-40-129.6-40-198.4s13.5-135.6,40-198.4c25.7-60.7,62.5-115.2,109.3-162.1s101.4-83.6,162.1-109.3
				C897.6,515,964.4,501.5,1033.3,501.5 M1033.3,401.5c-336.8,0-609.9,273-609.9,609.9s273,609.9,609.9,609.9
				s609.9-273.1,609.9-609.9S1370.1,401.5,1033.3,401.5L1033.3,401.5z"/>
		</g>
		<circle class="st0" cx="1033.3" cy="1011.4" r="160.9"/>
	</g>
</g>
<g id="Forma_4">
	<g>
		<path class="st1" d="M3051,1175.1C1368.5-88.7,761.9,623.8,739.8,1326.9C648.3,3180.7,4240.5,2068.6,3051,1175.1z"/>
	</g>
</g>
<g>
	<path class="st0" d="M1050.1,1692.4l-29.9,5.3l34,129.7l5.6,31.5h1.4l6.8-31.5l52.1-165.6h38.1l52.4,165.6l7.5,35.1h1.4l7-35.1
		l32.1-129.7l-30.4-5.3v-30.6h99.5v30.6l-22.7,3.4l-65.9,226.5h-38.4l-50.7-158.6l-10.9-43.8l-1.4,0.2l-10.1,43.6l-49.7,158.6h-38.4
		l-65.9-226.5l-22.9-3.4v-30.6h99.5L1050.1,1692.4L1050.1,1692.4z"/>
	<path class="st0" d="M1485.3,1927.3c-36.4,0-65.3-12.1-86.8-36.2s-32.2-55.5-32.2-94v-10.6c0-37.1,11.1-67.9,33.2-92.5
		c22.1-24.6,48.3-36.9,78.6-36.9c35.1,0,61.7,10.6,79.8,31.8s27.2,49.4,27.2,84.7v29.6h-169.5l-0.7,1.2c0.5,25,6.8,45.6,19.1,61.7
		c12.2,16.1,29.4,24.2,51.4,24.2c16.1,0,30.2-2.3,42.4-6.9c12.2-4.6,22.7-10.9,31.5-18.9l18.6,30.8c-9.3,9-21.7,16.6-37.1,22.7
		C1525.3,1924.3,1506.9,1927.3,1485.3,1927.3z M1478.1,1694.4c-15.9,0-29.5,6.7-40.8,20.1s-18.2,30.2-20.8,50.4l0.5,1.2h120.5v-6.3
		c0-18.6-5-34.2-15-46.7C1512.5,1700.6,1497.7,1694.4,1478.1,1694.4z"/>
	<path class="st0" d="M1870.8,1802c0,37.5-9.1,67.8-27.2,90.8c-18.1,23-43,34.5-74.7,34.5c-17.1,0-31.9-3.3-44.4-9.8
		s-23-16.1-31.4-28.8l-4.3,33.4h-41v-338.1l-39.3-6.7v-30.6h86.9v145.8c8.2-11.6,18.4-20.4,30.5-26.5c12.2-6.1,26.3-9.2,42.6-9.2
		c32.2,0,57.3,12.8,75.3,38.5c18,25.7,27,59.4,27,101.3V1802z M1823,1796.9c0-30-5.5-54.4-16.4-73.2c-10.9-18.8-27.7-28.2-50.2-28.2
		c-14.7,0-27,3.5-37.1,10.6c-10.1,7.1-18.1,16.5-24,28.4v115c5.9,12,14,21.6,24.3,28.6s22.7,10.6,37.3,10.6c22.4,0,39-7.9,49.8-23.8
		c10.9-15.9,16.3-36.9,16.3-63.1V1796.9z"/>
	<path class="st0" d="M2118,1743.7h-35.7l-7.7-31.3c-5.8-5.4-13.1-9.8-21.9-13.1s-18.7-4.9-29.8-4.9c-16.9,0-29.4,3.7-37.7,11.1
		c-8.2,7.4-12.3,16.3-12.3,26.7c0,10.3,3.6,18.4,10.9,24.3c7.2,5.9,22,11.2,44.2,15.9c33,7.1,57.5,16.7,73.6,28.8
		c16.1,12.1,24.1,28.4,24.1,48.7c0,23.1-9.4,41.8-28.1,56.1c-18.8,14.3-43.3,21.4-73.5,21.4c-19.8,0-37.6-2.3-53.3-6.9
		s-29.8-11.2-42.3-19.9l-0.2-59.4h35.7l8.9,34.9c5.5,5,12.9,8.6,22.3,10.8c9.4,2.3,19,3.4,28.8,3.4c16.9,0,30.1-3.4,39.7-10.2
		c9.6-6.8,14.4-15.8,14.4-26.8c0-10.4-4-19-11.9-25.8s-23.1-12.6-45.3-17.6c-31.7-6.9-55.6-16.3-71.7-28.2
		c-16.1-11.9-24.1-27.9-24.1-48.1c0-21.2,9.1-39.2,27.2-54.2s41.6-22.4,70.6-22.4c19.8,0,37.6,2.6,53.3,7.7
		c15.8,5.1,28.9,12.3,39.4,21.4L2118,1743.7z"/>
	<path class="st0" d="M2170.2,1892l39.4-6.7v-186l-39.4-6.7v-30.6h86.9v223.3l39.4,6.7v30.3h-126.3L2170.2,1892L2170.2,1892z
		 M2257.1,1595.2h-47.6v-48.4h47.6V1595.2z"/>
	<path class="st0" d="M2415.7,1599.1v62.8h49.5v35.1h-49.5v158.1c0,12.2,2.5,20.8,7.6,25.8c5.1,5,11.8,7.5,20.2,7.5
		c4.2,0,8.9-0.4,14.1-1.1c5.2-0.7,9.6-1.5,13.2-2.3l6.5,32.5c-4.5,2.9-11.1,5.3-19.8,7.1c-8.7,1.8-17.4,2.8-26.1,2.8
		c-19.3,0-34.7-5.8-46.1-17.4c-11.4-11.6-17.1-29.9-17.1-54.8V1697h-41.3v-35.1h41.3v-62.8H2415.7z"/>
	<path class="st0" d="M2632.9,1927.3c-36.4,0-65.3-12.1-86.8-36.2s-32.2-55.5-32.2-94v-10.6c0-37.1,11.1-67.9,33.2-92.5
		s48.3-36.9,78.6-36.9c35.1,0,61.7,10.6,79.8,31.8s27.2,49.4,27.2,84.7v29.6h-169.5l-0.7,1.2c0.5,25,6.8,45.6,19.1,61.7
		c12.2,16.1,29.4,24.2,51.4,24.2c16.1,0,30.2-2.3,42.4-6.9c12.1-4.6,22.6-10.9,31.5-18.9l18.6,30.8c-9.3,9-21.7,16.6-37.1,22.7
		C2673,1924.3,2654.5,1927.3,2632.9,1927.3z M2625.7,1694.4c-15.9,0-29.5,6.7-40.8,20.1s-18.2,30.2-20.8,50.4l0.5,1.2h120.5v-6.3
		c0-18.6-5-34.2-15-46.7C2660.1,1700.6,2645.3,1694.4,2625.7,1694.4z"/>
	<path class="st0" d="M2979.4,1743.7h-35.7l-7.7-31.3c-5.8-5.4-13.1-9.8-21.9-13.1s-18.7-4.9-29.8-4.9c-16.9,0-29.4,3.7-37.7,11.1
		s-12.3,16.3-12.3,26.7c0,10.3,3.6,18.4,10.9,24.3c7.2,5.9,22,11.2,44.2,15.9c33,7.1,57.5,16.7,73.6,28.8
		c16.1,12.1,24.1,28.4,24.1,48.7c0,23.1-9.4,41.8-28.1,56.1c-18.8,14.3-43.3,21.4-73.5,21.4c-19.8,0-37.6-2.3-53.4-6.9
		s-29.9-11.2-42.3-19.9l-0.2-59.4h35.7l8.9,34.9c5.5,5,12.9,8.6,22.3,10.8c9.4,2.3,19,3.4,28.9,3.4c16.9,0,30.1-3.4,39.7-10.2
		c9.6-6.8,14.4-15.8,14.4-26.8c0-10.4-4-19-11.9-25.8s-23.1-12.6-45.3-17.6c-31.7-6.9-55.6-16.3-71.7-28.2
		c-16.1-11.9-24.1-27.9-24.1-48.1c0-21.2,9.1-39.2,27.2-54.2c18.1-14.9,41.6-22.4,70.6-22.4c19.8,0,37.6,2.6,53.4,7.7
		c15.8,5.1,28.9,12.3,39.4,21.4L2979.4,1743.7z"/>
</g>
<g id="leme">
	<text transform="matrix(1.003 0 0 1 972.1973 1536.7959)" class="st0 st2 st3">leme</text>
</g>
<g id="websites">
</g>
</svg>
