<?xml version="1.0" encoding="utf-8"?>
<!-- Generator: Adobe Illustrator 23.0.0, SVG Export Plug-In . SVG Version: 6.00 Build 0)  -->
<svg version="1.1" id="Agrupar_2_copiar_2_1_" xmlns="http://www.w3.org/2000/svg" xmlns:xlink="http://www.w3.org/1999/xlink"
	 x="0px" y="0px" viewBox="0 0 3398.4 2390.4" style="enable-background:new 0 0 3398.4 2390.4;" xml:space="preserve">
<style type="text/css">
	.st0{fill:#FFFFFF;}
	.st1{fill:#009BDB;}
	.st2{font-family:'ARIZON';}
	.st3{font-size:853.6486px;}
</style>
<g id="Camada_2_copiar_xA0_Imagem_1_">
	<g>
		<path class="st0" d="M1693.64,1582.05l-116.79-114.41c-11.25-11.02-25.92-16.38-40.51-16.14l-172.38-168.86
			c3.69-13.73,0.08-29-10.8-39.65L806.07,707.06c-10.88-10.66-26.22-13.96-39.87-9.98L575.45,510.22
			c1.46-16.31-4.14-33.13-16.75-45.48L441.91,350.33c-22.32-21.86-58.13-21.49-79.99,0.82v0c-21.86,22.32-21.49,58.13,0.82,79.99
			l116.79,114.41c12.61,12.36,29.54,17.61,45.82,15.81L716.1,748.23c-3.69,13.73-0.08,29,10.8,39.65l547.08,535.92
			c10.88,10.66,26.22,13.96,39.87,9.98l167.73,164.31c-3.17,17.79,2.22,36.78,16.1,50.37l116.79,114.41
			c22.32,21.86,58.13,21.49,79.99-0.82v0C1716.32,1639.72,1715.95,1603.91,1693.64,1582.05z"/>
		<path class="st0" d="M1906.61,958.28l-163.49-1.17c-15.74-0.11-30.03,6.22-40.36,16.53l-241.3-1.72
			c-6.88-12.44-20.09-20.91-35.32-21.02l-765.81-5.47c-15.23-0.11-28.55,8.17-35.61,20.51l-267.02-1.91
			c-10.28-12.75-25.99-20.95-43.64-21.08l-163.49-1.17c-31.24-0.22-56.75,24.92-56.97,56.16l0,0
			c-0.22,31.24,24.92,56.74,56.16,56.97l163.49,1.17c17.66,0.13,33.48-7.85,43.94-20.46l267.02,1.91
			c6.88,12.44,20.09,20.91,35.32,21.02l765.81,5.47c15.23,0.11,28.56-8.17,35.61-20.51l234.79,1.68
			c10.08,14.99,27.14,24.91,46.57,25.05l163.49,1.17c31.24,0.22,56.74-24.92,56.97-56.16l0,0
			C1963,984.01,1937.85,958.51,1906.61,958.28z"/>
		<path class="st0" d="M1615.17,351.29l-116.43,114.78c-11.21,11.05-16.83,25.63-16.85,40.23L1310.04,675.7
			c-13.66-3.93-28.99-0.58-39.84,10.11l-545.38,537.64c-10.85,10.69-14.41,25.97-10.68,39.69l-190.16,187.46
			c-16.29-1.74-33.19,3.56-45.77,15.95l-116.43,114.78c-22.25,21.93-22.5,57.75-0.57,79.99h0c21.93,22.25,57.75,22.5,79.99,0.57
			l116.43-114.78c12.57-12.4,18.12-29.23,16.61-45.53l190.16-187.46c13.66,3.93,28.99,0.58,39.84-10.11l545.38-537.64
			c10.85-10.69,14.41-25.97,10.68-39.69l167.21-164.84c17.73,3.48,36.81-1.58,50.64-15.22l116.43-114.78
			c22.25-21.93,22.5-57.75,0.57-79.99h0C1673.23,329.62,1637.41,329.36,1615.17,351.29z"/>
		<path class="st0" d="M969.64,129.15l1.69,163.48c0.16,15.74,6.75,29.91,17.23,40.06l2.49,241.3c-12.32,7.1-20.56,20.45-20.4,35.68
			l7.89,765.79c0.16,15.23,8.67,28.41,21.13,35.25l2.75,267.01c-12.57,10.5-20.5,26.35-20.32,44l1.69,163.48
			c0.32,31.24,25.91,56.3,57.15,55.98v0c31.24-0.32,56.3-25.91,55.98-57.15l-1.69-163.48c-0.18-17.66-8.44-33.33-21.22-43.58
			l-2.75-267.01c12.32-7.1,20.56-20.45,20.4-35.68l-7.89-765.79c-0.16-15.23-8.67-28.41-21.13-35.25l-2.42-234.79
			c14.81-10.34,24.43-27.57,24.23-47l-1.69-163.48c-0.32-31.24-25.91-56.3-57.15-55.98l0,0C994.38,72.33,969.32,97.91,969.64,129.15
			z"/>
		<g>
			<path class="st0" d="M1033.28,501.51c68.88,0,135.64,13.47,198.44,40.03c60.7,25.68,115.24,62.45,162.1,109.31
				c46.86,46.86,83.64,101.4,109.31,162.1c26.56,62.8,40.03,129.56,40.03,198.44s-13.47,135.64-40.03,198.44
				c-25.68,60.7-62.45,115.24-109.31,162.1c-46.86,46.86-101.4,83.64-162.1,109.31c-62.8,26.56-129.56,40.03-198.44,40.03
				s-135.64-13.47-198.44-40.03c-60.7-25.68-115.24-62.45-162.1-109.31c-46.86-46.86-83.64-101.4-109.31-162.1
				c-26.56-62.8-40.03-129.56-40.03-198.44s13.47-135.64,40.03-198.44c25.68-60.7,62.45-115.24,109.31-162.1
				c46.86-46.86,101.4-83.64,162.1-109.31C897.64,514.98,964.4,501.51,1033.28,501.51 M1033.28,401.51
				c-336.83,0-609.88,273.05-609.88,609.88s273.05,609.88,609.88,609.88s609.88-273.05,609.88-609.88S1370.11,401.51,1033.28,401.51
				L1033.28,401.51z"/>
		</g>
		<circle class="st0" cx="1033.28" cy="1011.4" r="160.94"/>
	</g>
</g>
<g id="Forma_4">
	<g>
		<path class="st1" d="M3051.01,1175.13C1368.51-88.67,761.9,623.77,739.8,1326.9C648.31,3180.72,4240.55,2068.65,3051.01,1175.13z"
			/>
	</g>
</g>
<g>
	<path class="st0" d="M1050.07,1692.45l-29.93,5.29l34.04,129.72l5.55,31.53h1.45l6.76-31.53l52.14-165.58h38.14l52.38,165.58
		l7.48,35.14h1.45l7-35.14l32.11-129.72l-30.42-5.29v-30.57h99.46v30.57l-22.69,3.37l-65.9,226.47h-38.38l-50.69-158.6l-10.86-43.8
		l-1.45,0.24l-10.14,43.56l-49.73,158.6h-38.38l-65.9-226.47l-22.93-3.37v-30.57h99.46V1692.45z"/>
	<path class="st0" d="M1485.31,1927.35c-36.37,0-65.3-12.07-86.78-36.22c-21.48-24.15-32.23-55.47-32.23-93.98v-10.59
		c0-37.06,11.06-67.91,33.19-92.54c22.13-24.63,48.32-36.94,78.58-36.94c35.08,0,61.68,10.59,79.78,31.77
		c18.1,21.18,27.16,49.42,27.16,84.72v29.6h-169.46l-0.72,1.2c0.48,25.03,6.84,45.61,19.07,61.73
		c12.23,16.13,29.37,24.19,51.42,24.19c16.09,0,30.21-2.29,42.37-6.86c12.15-4.57,22.65-10.87,31.5-18.89l18.59,30.81
		c-9.34,8.99-21.69,16.57-37.06,22.74C1525.35,1924.26,1506.88,1927.35,1485.31,1927.35z M1478.07,1694.38
		c-15.93,0-29.53,6.7-40.8,20.1c-11.27,13.4-18.19,30.2-20.76,50.42l0.48,1.2h120.46v-6.26c0-18.61-4.99-34.17-14.97-46.69
		C1512.51,1700.64,1497.7,1694.38,1478.07,1694.38z"/>
	<path class="st0" d="M1870.83,1801.96c0,37.54-9.05,67.83-27.16,90.85c-18.11,23.03-43.01,34.54-74.71,34.54
		c-17.06,0-31.87-3.25-44.42-9.75s-23.02-16.08-31.38-28.76l-4.35,33.45h-41.04v-338.14l-39.35-6.74v-30.57h86.9v145.85
		c8.21-11.55,18.38-20.37,30.54-26.47c12.15-6.1,26.35-9.15,42.61-9.15c32.19,0,57.29,12.84,75.32,38.51
		c18.02,25.67,27.04,59.45,27.04,101.32V1801.96z M1823.03,1796.9c0-30-5.47-54.39-16.42-73.16
		c-10.95-18.77-27.68-28.16-50.21-28.16c-14.65,0-27,3.53-37.05,10.59c-10.06,7.06-18.07,16.53-24.02,28.4v115.04
		c5.95,12.03,14.04,21.58,24.26,28.64c10.22,7.06,22.65,10.59,37.3,10.59c22.37,0,38.99-7.94,49.85-23.83
		c10.86-15.88,16.29-36.9,16.29-63.06V1796.9z"/>
	<path class="st0" d="M2118.03,1743.72h-35.73l-7.72-31.29c-5.79-5.45-13.08-9.83-21.85-13.12c-8.77-3.29-18.71-4.93-29.81-4.93
		c-16.9,0-29.45,3.69-37.66,11.07c-8.21,7.38-12.31,16.29-12.31,26.71c0,10.27,3.62,18.37,10.86,24.31
		c7.24,5.94,21.97,11.23,44.18,15.88c32.99,7.06,57.53,16.65,73.63,28.76c16.09,12.12,24.14,28.36,24.14,48.74
		c0,23.1-9.38,41.8-28.12,56.08c-18.75,14.28-43.25,21.42-73.51,21.42c-19.79,0-37.58-2.29-53.35-6.86
		c-15.77-4.57-29.85-11.19-42.25-19.86l-0.24-59.45h35.73l8.93,34.9c5.47,4.98,12.92,8.58,22.33,10.83
		c9.42,2.25,19.03,3.37,28.85,3.37c16.9,0,30.13-3.41,39.71-10.23c9.57-6.82,14.36-15.76,14.36-26.83
		c0-10.43-3.98-19.01-11.95-25.75c-7.97-6.74-23.05-12.59-45.26-17.57c-31.71-6.9-55.6-16.28-71.7-28.16
		c-16.09-11.87-24.14-27.92-24.14-48.13c0-21.18,9.05-39.23,27.16-54.15c18.11-14.92,41.64-22.38,70.61-22.38
		c19.79,0,37.58,2.57,53.35,7.7c15.77,5.14,28.88,12.27,39.35,21.42L2118.03,1743.72z"/>
	<path class="st0" d="M2170.17,1891.97l39.35-6.74v-186.04l-39.35-6.74v-30.57h86.91v223.34l39.35,6.74v30.32h-126.25V1891.97z
		 M2257.07,1595.22h-47.56v-48.38h47.56V1595.22z"/>
	<path class="st0" d="M2415.67,1599.07v62.82h49.49v35.14h-49.49v158.12c0,12.2,2.54,20.78,7.6,25.75
		c5.07,4.98,11.79,7.46,20.16,7.46c4.18,0,8.89-0.36,14.12-1.08c5.23-0.72,9.61-1.48,13.16-2.29l6.52,32.49
		c-4.51,2.89-11.1,5.25-19.79,7.1c-8.69,1.84-17.38,2.77-26.07,2.77c-19.31,0-34.68-5.81-46.11-17.45
		c-11.43-11.63-17.14-29.88-17.14-54.75v-158.12h-41.28v-35.14h41.28v-62.82H2415.67z"/>
	<path class="st0" d="M2632.94,1927.35c-36.37,0-65.3-12.07-86.78-36.22c-21.48-24.15-32.23-55.47-32.23-93.98v-10.59
		c0-37.06,11.06-67.91,33.19-92.54c22.13-24.63,48.32-36.94,78.58-36.94c35.08,0,61.68,10.59,79.78,31.77
		c18.1,21.18,27.16,49.42,27.16,84.72v29.6h-169.46l-0.72,1.2c0.48,25.03,6.84,45.61,19.07,61.73
		c12.23,16.13,29.37,24.19,51.42,24.19c16.09,0,30.21-2.29,42.37-6.86c12.15-4.57,22.65-10.87,31.5-18.89l18.59,30.81
		c-9.33,8.99-21.69,16.57-37.05,22.74C2672.97,1924.26,2654.5,1927.35,2632.94,1927.35z M2625.7,1694.38
		c-15.93,0-29.53,6.7-40.8,20.1c-11.27,13.4-18.19,30.2-20.76,50.42l0.48,1.2h120.46v-6.26c0-18.61-4.99-34.17-14.97-46.69
		C2660.13,1700.64,2645.33,1694.38,2625.7,1694.38z"/>
	<path class="st0" d="M2979.35,1743.72h-35.73l-7.72-31.29c-5.79-5.45-13.08-9.83-21.85-13.12c-8.77-3.29-18.71-4.93-29.81-4.93
		c-16.9,0-29.45,3.69-37.66,11.07c-8.21,7.38-12.31,16.29-12.31,26.71c0,10.27,3.62,18.37,10.86,24.31
		c7.24,5.94,21.97,11.23,44.18,15.88c32.99,7.06,57.53,16.65,73.63,28.76c16.09,12.12,24.14,28.36,24.14,48.74
		c0,23.1-9.38,41.8-28.12,56.08c-18.75,14.28-43.25,21.42-73.51,21.42c-19.79,0-37.58-2.29-53.35-6.86
		c-15.77-4.57-29.85-11.19-42.25-19.86l-0.24-59.45h35.73l8.93,34.9c5.47,4.98,12.92,8.58,22.33,10.83
		c9.42,2.25,19.03,3.37,28.85,3.37c16.9,0,30.13-3.41,39.71-10.23c9.57-6.82,14.36-15.76,14.36-26.83
		c0-10.43-3.98-19.01-11.95-25.75c-7.97-6.74-23.05-12.59-45.26-17.57c-31.71-6.9-55.6-16.28-71.7-28.16
		c-16.09-11.87-24.14-27.92-24.14-48.13c0-21.18,9.05-39.23,27.16-54.15c18.11-14.92,41.64-22.38,70.61-22.38
		c19.79,0,37.58,2.57,53.35,7.7c15.77,5.14,28.88,12.27,39.35,21.42L2979.35,1743.72z"/>
</g>
<g id="leme">
	<text transform="matrix(1.003 0 0 1 972.1976 1536.7957)" class="st0 st2 st3">leme</text>
</g>
<g id="websites">
</g>
</svg>
