<svg xmlns="http://www.w3.org/2000/svg" xmlns:xlink="http://www.w3.org/1999/xlink" width="606.342" height="717.279" viewBox="0 0 606.342 717.279">
  <defs>
    <linearGradient id="linear-gradient" x1="31.936" y1="1" x2="31.936" gradientUnits="objectBoundingBox">
      <stop offset="0" stop-color="gray" stop-opacity="0.251"/>
      <stop offset="0.54" stop-color="gray" stop-opacity="0.122"/>
      <stop offset="1" stop-color="gray" stop-opacity="0.102"/>
    </linearGradient>
  </defs>
  <g id="portfolio" transform="translate(-1315.605 -2244.156)">
    <path id="Caminho_545" data-name="Caminho 545" d="M1916.284,2244.156s-338.492,34.267-438.641,182.767,39.725,56.76,11.3,249.391,67.341,168.2,200.263,236.879,231.5,59.815,232.612,0S1916.284,2244.156,1916.284,2244.156Z" fill="#fff"/>
    <g id="undraw_product_tour_foyt" transform="translate(1315.599 2391.002)">
      <path id="Caminho_546" data-name="Caminho 546" d="M418.431,120.811c-24.9,17.432-57.194,16.306-85.494,7.235s-54.3-25.221-81.871-36.7A266.054,266.054,0,0,0,179.132,72.6c-35.143-4.021-74.388.878-98.872,29.071-27.267,31.38-25.173,87.992,4.307,116.821,15,14.654,34.648,21.846,51.778,33.286s33,30.427,31.542,52.5c-1.351,20.457-17.055,36.134-33.307,45.98-12.56,7.607-28.026,15.913-29.539,31.671-1.464,15.246,11.542,27.192,23.962,33.986a136.1,136.1,0,0,0,130.818-.538c14.4-8.048,27.617-18.729,42.718-24.963,39.649-16.43,83.341.113,125.326,6.159a250.535,250.535,0,0,0,106.592-7.757c20.791-6.143,41.662-15.531,56.268-33.022,10.535-12.613,17.1-28.57,23.256-44.338q9.852-25.211,18.944-50.782c3.634-10.229,7.214-20.662,8.156-31.612,1.7-19.838-5.47-39.45-15.235-56.192-23.186-39.784-62.238-67.734-104.53-74.835s-87.034,6.767-119.835,37.113" transform="translate(-61.06 -71.37)" fill="#536dfe" opacity="0.1"/>
      <g id="Grupo_30" data-name="Grupo 30" transform="translate(289.007 55.003)" opacity="0.1">
        <path id="Caminho_547" data-name="Caminho 547" d="M599.951,174.2,597.9,293.177s74.248,0,137.423,20.511L736.551,193.5S635.229,169.277,599.951,174.2Z" transform="translate(-597.9 -173.542)"/>
      </g>
      <path id="Caminho_548" data-name="Caminho 548" d="M596.951,170.2,594.9,289.177s74.248,0,137.423,20.511L733.55,189.5S632.229,165.277,596.951,170.2Z" transform="translate(-307.508 -116.693)" fill="#f7f7fd"/>
      <g id="Grupo_31" data-name="Grupo 31" transform="translate(117.184 58.417)" opacity="0.1">
        <path id="Caminho_549" data-name="Caminho 549" d="M415.329,180.538l2.051,118.974s-74.248,0-137.418,20.511L278.73,199.833S380.052,175.639,415.329,180.538Z" transform="translate(-278.73 -179.883)"/>
      </g>
      <path id="Caminho_550" data-name="Caminho 550" d="M418.329,175.538l2.051,118.974s-74.248,0-137.418,20.511L281.73,194.833S383.052,170.639,418.329,175.538Z" transform="translate(-162.931 -119.158)" fill="#f7f7fd"/>
      <g id="Grupo_32" data-name="Grupo 32" transform="translate(148.79 69.907)" opacity="0.2">
        <path id="Caminho_551" data-name="Caminho 551" d="M410.7,201.579l1.1,63.8s-39.837,0-73.7,11l-.662-64.456S391.78,198.952,410.7,201.579Z" transform="translate(-337.44 -201.227)" fill="#536dfe"/>
      </g>
      <g id="Grupo_33" data-name="Grupo 33" transform="translate(471.42 99.426)" opacity="0.1">
        <path id="Caminho_552" data-name="Caminho 552" d="M936.74,256.06V373.79s24.226-2.875,75.072,59.891l4.511-117.73S963.4,258.929,936.74,256.06Z" transform="translate(-936.74 -256.06)"/>
      </g>
      <path id="Caminho_553" data-name="Caminho 553" d="M934.74,253.06V370.79s24.226-2.875,75.072,59.891l4.511-117.73S961.4,255.929,934.74,253.06Z" transform="translate(-464.397 -155.249)" fill="#f7f7fd"/>
      <g id="Grupo_34" data-name="Grupo 34" transform="translate(0.277 99.964)" opacity="0.1">
        <path id="Caminho_554" data-name="Caminho 554" d="M141.148,257.06V374.79s-24.2-2.875-75.04,59.891L61.57,316.951S114.484,259.929,141.148,257.06Z" transform="translate(-61.57 -257.06)"/>
      </g>
      <path id="Caminho_555" data-name="Caminho 555" d="M144.148,253.06V370.79s-24.2-2.875-75.04,59.891L64.57,312.951S117.484,255.929,144.148,253.06Z" transform="translate(-62.678 -155.249)" fill="#f7f7fd"/>
      <g id="Grupo_35" data-name="Grupo 35" transform="translate(309.281 78.258)" opacity="0.2">
        <path id="Caminho_556" data-name="Caminho 556" d="M574.5,145.37l50.3,9v7.327l-50.3-9.658Z" transform="translate(-574.5 -145.37)" fill="#536dfe"/>
      </g>
      <path id="Caminho_557" data-name="Caminho 557" d="M351.372,276.87l-50.292,9v7.327l50.292-9.658Z" transform="translate(-138.993 -127.819)" fill="#fff"/>
      <path id="Caminho_558" data-name="Caminho 558" d="M575.74,170.74l91.928,18.987v7.327L575.74,177.4Z" transform="translate(-265.791 -78.824)" fill="#fff"/>
      <path id="Caminho_559" data-name="Caminho 559" d="M575.74,196.11l91.928,18.982v7.332L575.74,202.769Z" transform="translate(-265.791 -90.536)" fill="#fff"/>
      <g id="Grupo_36" data-name="Grupo 36" transform="translate(491.78 135.829)" opacity="0.2">
        <path id="Caminho_560" data-name="Caminho 560" d="M913.5,252.31v6.466l19.72,16.021.926-5.545Z" transform="translate(-913.5 -252.31)" fill="#536dfe"/>
      </g>
      <path id="Caminho_561" data-name="Caminho 561" d="M913.5,368.31v6.466l19.72,16.021.926-5.545Z" transform="translate(-421.72 -170.033)" fill="#fff"/>
      <path id="Caminho_562" data-name="Caminho 562" d="M913.812,272.91l-.312,6.471L950.78,314.5l-.614-7.392Z" transform="translate(-421.72 -125.991)" fill="#fff"/>
      <path id="Caminho_563" data-name="Caminho 563" d="M913.5,295.23v6.159l37.28,35.741v-8.011Z" transform="translate(-421.72 -136.296)" fill="#fff"/>
      <g id="Grupo_37" data-name="Grupo 37" transform="translate(22.753 137.228)" opacity="0.2">
        <path id="Caminho_564" data-name="Caminho 564" d="M79.228,254.91l.307,6.471L42.26,296.5l.614-7.391Z" transform="translate(-42.26 -254.91)" fill="#536dfe"/>
      </g>
      <g id="Grupo_38" data-name="Grupo 38" transform="translate(22.753 149.244)" opacity="0.2">
        <path id="Caminho_565" data-name="Caminho 565" d="M79.535,277.23v6.159L42.26,319.129v-8.011Z" transform="translate(-42.26 -277.23)" fill="#536dfe"/>
      </g>
      <ellipse id="Elipse_86" data-name="Elipse 86" cx="30.686" cy="5.523" rx="30.686" ry="5.523" transform="translate(79.468 329.261)" fill="#536dfe" opacity="0.1"/>
      <path id="Caminho_566" data-name="Caminho 566" d="M123.5,636.84s2.955,3.865-1.367,9.69-7.887,10.767-6.46,14.406c0,0,6.519-10.842,11.844-10.993S129.345,643.386,123.5,636.84Z" transform="translate(-86.124 -332.423)" fill="#536dfe"/>
      <path id="Caminho_567" data-name="Caminho 567" d="M123.657,636.84a4.644,4.644,0,0,1,.6,1.211c5.179,6.083,7.941,11.763,2.961,11.908-4.635.129-10.229,8.425-11.531,10.519.043.156.1.318.156.474,0,0,6.519-10.842,11.844-10.993S129.5,643.386,123.657,636.84Z" transform="translate(-86.278 -332.423)" opacity="0.1"/>
      <path id="Caminho_568" data-name="Caminho 568" d="M140.114,645.251c0,1.362-.151,2.466-.339,2.466s-.345-1.1-.345-2.466.194-.721.382-.721S140.114,643.883,140.114,645.251Z" transform="translate(-97.237 -335.903)" fill="#ffd037"/>
      <path id="Caminho_569" data-name="Caminho 569" d="M142.206,648.2c-1.2.651-2.24,1.044-2.331.883s.808-.829,2-1.48.721-.178.813,0S143.4,647.556,142.206,648.2Z" transform="translate(-97.44 -337.239)" fill="#ffd037"/>
      <path id="Caminho_570" data-name="Caminho 570" d="M95.772,636.84s-2.945,3.854,1.362,9.706,7.887,10.767,6.46,14.406c0,0-6.519-10.842-11.844-10.993S89.936,643.386,95.772,636.84Z" transform="translate(-74.015 -332.423)" fill="#536dfe"/>
      <path id="Caminho_571" data-name="Caminho 571" d="M95.765,636.84a4.846,4.846,0,0,0-.6,1.211c-5.179,6.083-7.941,11.763-2.961,11.908,4.641.129,10.229,8.425,11.531,10.519a4.05,4.05,0,0,1-.156.474s-6.519-10.842-11.844-10.993S89.929,643.386,95.765,636.84Z" transform="translate(-74.008 -332.423)" opacity="0.1"/>
      <path id="Caminho_572" data-name="Caminho 572" d="M91.26,645.251c0,1.362.151,2.466.339,2.466s.345-1.1.345-2.466-.194-.721-.382-.721S91.26,643.883,91.26,645.251Z" transform="translate(-74.999 -335.903)" fill="#ffd037"/>
      <path id="Caminho_573" data-name="Caminho 573" d="M87.135,648.2c1.2.651,2.234,1.044,2.326.883s-.808-.829-2-1.48-.721-.178-.813,0S85.94,647.556,87.135,648.2Z" transform="translate(-72.759 -337.239)" fill="#ffd037"/>
      <path id="Caminho_574" data-name="Caminho 574" d="M93,676.859s8.269-.253,10.767-2.03,12.716-3.892,13.335-1.044,12.425,14.153,3.09,14.228-21.69-1.454-24.177-2.972S93,676.859,93,676.859Z" transform="translate(-75.803 -348.836)" fill="#a8a8a8"/>
      <path id="Caminho_575" data-name="Caminho 575" d="M120.363,690.845c-9.335.075-21.69-1.453-24.177-2.972-1.895-1.152-2.649-5.292-2.9-7.2H93.01s.538,6.67,3.009,8.183,14.842,3.047,24.177,2.972c2.692,0,3.628-.98,3.575-2.4C123.4,690.29,122.371,690.829,120.363,690.845Z" transform="translate(-75.807 -352.658)" opacity="0.2"/>
      <ellipse id="Elipse_87" data-name="Elipse 87" cx="50.604" cy="8.667" rx="50.604" ry="8.667" transform="translate(272.674 244.736)" fill="#536dfe" opacity="0.1"/>
      <path id="Caminho_576" data-name="Caminho 576" d="M632.948,323.447a7.056,7.056,0,0,0-.538,1.653q-.049.215-.1.452c-.323,1.647-.538,3.72-.651,4.926-.054.6-.081.991-.081.991s-11.677-.781-9.652-2.74A4.307,4.307,0,0,0,623,326.79c.059-.21.108-.42.151-.635a10.9,10.9,0,0,0,.188-1.48V324.3a15.265,15.265,0,0,0-.113-2.417s3.8,0,6.659.307C631.817,322.408,633.319,322.79,632.948,323.447Z" transform="translate(-319.877 -187.02)" fill="#d38884"/>
      <path id="Caminho_577" data-name="Caminho 577" d="M602.334,396.626c-3.978-.129-1.044-8.414-.587-9.529s-.678-3.844-.678-3.844-1.346-7.892-1.346-8.409a21.084,21.084,0,0,0-.452-3.2,5.384,5.384,0,0,1,.538-3.133c.458-.716.388-3.585.388-3.585v-3.715l.888-1.174,2.266,2.153.63.592,1.109,4.156L604.7,372.9l-.21,5.8,1.373,8.021S606.34,396.76,602.334,396.626Z" transform="translate(-309.505 -204.637)" fill="#d38884"/>
      <path id="Caminho_578" data-name="Caminho 578" d="M543.372,291.813l-3.392-1.41v-.549l.883-1.174,2.272,2.143Z" transform="translate(-249.282 -133.272)" opacity="0.1"/>
      <path id="Caminho_579" data-name="Caminho 579" d="M602.87,350.11a15.642,15.642,0,0,0-.942,3.327,14.751,14.751,0,0,1-.888,3.192l3.768,1.567Z" transform="translate(-310.342 -200.053)" fill="#4c4981"/>
      <path id="Caminho_580" data-name="Caminho 580" d="M602.87,350.11a15.642,15.642,0,0,0-.942,3.327,14.751,14.751,0,0,1-.888,3.192l3.768,1.567Z" transform="translate(-310.342 -200.053)" opacity="0.05"/>
      <path id="Caminho_581" data-name="Caminho 581" d="M649.111,479.971l-.312.668s-.339,2.213-.339,2.266-.98,1.529-.98,1.529l-2.46.538-1.044-.129a14.7,14.7,0,0,0-.28-1.809c-.038-.167-.075-.339-.124-.511a13.828,13.828,0,0,0-1.717-3.9s-1.825-4.5-2.476-5.087-3.133-6.525-2.869-7.957a41.768,41.768,0,0,0-.1-5.62c-.108-1.793-.226-3.3-.226-3.3l6.2-3.661.721,1.136.431.673a3.077,3.077,0,0,1-.027.345v.081a11.489,11.489,0,0,1-.538,2.692s-.463,3.327,0,3.914,1.938,8.43,2.266,12.059v.328a7.281,7.281,0,0,0,2.2,4.242h0c.065.075.135.145.2.215A14.2,14.2,0,0,0,649.111,479.971Z" transform="translate(-326.565 -247.553)" fill="#d38884"/>
      <path id="Caminho_582" data-name="Caminho 582" d="M650.323,506.543l1.044.129,2.46-.538s.98-1.48.98-1.529.339-2.266.339-2.266l.312-.668.038-.081a13.074,13.074,0,0,1-1.69-1.394h0c-.059-.054-.118-.108-.172-.167a3.205,3.205,0,0,1-1.523,3.117c-.91.468-1.658.829-2.18,1.077Z" transform="translate(-332.913 -269.263)" opacity="0.1"/>
      <path id="Caminho_583" data-name="Caminho 583" d="M655.986,502.346l-.35.748s-.339,2.213-.339,2.266-.98,1.529-.98,1.529l-2.46.538-1.416-.167a9.362,9.362,0,0,0-.118-1.179c-.043-.3-.1-.625-.183-.98.538-.242,1.373-.641,2.444-1.2a3.052,3.052,0,0,0,1.524-3.117,14.841,14.841,0,0,0,1.287,1.141C655.653,502.114,655.863,502.26,655.986,502.346Z" transform="translate(-333.01 -269.615)" fill="#ceddf9"/>
      <path id="Caminho_584" data-name="Caminho 584" d="M656.143,503.325l-.35.748s-.339,2.213-.339,2.266-.98,1.529-.98,1.529l-2.46.538-1.416-.167a9.351,9.351,0,0,0-.118-1.179,4.9,4.9,0,0,1,.894.124s3.359.716,3.521-1.943c.1-1.507.409-2.1.657-2.331C655.81,503.093,656.02,503.238,656.143,503.325Z" transform="translate(-333.167 -270.594)" opacity="0.1"/>
      <path id="Caminho_585" data-name="Caminho 585" d="M655.235,501.747s-.834-.183-1,2.471-3.521,1.943-3.521,1.943-1.647-.409-1.664.275a6.4,6.4,0,0,0,.441,1.841,5.734,5.734,0,0,0,.409,1.96c.312.377.113,1.777.113,1.777s.129,1.044,2.724,0a7.554,7.554,0,0,0,4.237-3.359c.065-.1-.226-.393,1.454-1s6.46-4.468,6.116-6.358a1.615,1.615,0,0,0-1.141-1.357,1.965,1.965,0,0,0-1.5.2,11.9,11.9,0,0,1-1.405.646,6.9,6.9,0,0,1-2,.479,7.705,7.705,0,0,0-1.556.3A3.23,3.23,0,0,1,655.235,501.747Z" transform="translate(-332.506 -269.194)" fill="#cc8294"/>
      <path id="Caminho_586" data-name="Caminho 586" d="M610.29,467.166a4.566,4.566,0,0,0-.947,1.077c-.948,1.448-1.518,3.472-2.153,4.344a8.593,8.593,0,0,0-1.077,3.327A71.667,71.667,0,0,1,602,486.434a34.318,34.318,0,0,0-1.981,5.087,4.015,4.015,0,0,0-.592,2.821.566.566,0,0,0,.032.253.1.1,0,0,1,0,.1v.038l-1.13,1.922-3.6-.5-1.857-1.26a6.319,6.319,0,0,0,.4-.77,34.023,34.023,0,0,0,1.7-6.18,42.349,42.349,0,0,0,.926-5.577,42.245,42.245,0,0,1,.3-4.307s2.832-8.64,3.736-10.04a4.028,4.028,0,0,0,.678-1.857,1.563,1.563,0,0,0,0-.4l1.217-1.211S611.851,465.923,610.29,467.166Z" transform="translate(-306.575 -252.885)" fill="#d38884"/>
      <path id="Caminho_587" data-name="Caminho 587" d="M599.534,519.646v.425l-1.13,1.922-3.6-.5-1.857-1.26a6.3,6.3,0,0,0,.4-.77,7.333,7.333,0,0,1,2.972.474s2.234.425,3.176-.258A.057.057,0,0,1,599.534,519.646Z" transform="translate(-306.608 -278.21)" opacity="0.1"/>
      <path id="Caminho_588" data-name="Caminho 588" d="M597.548,525.117l-3.65.872-3.349-2.476.172-1.394a2.406,2.406,0,0,0,.614-.538,2.206,2.206,0,0,0,.485-1c.194-1.028,3.375.1,3.375.1s2.326.441,3.23-.3a5.674,5.674,0,0,0,.172,2.013,1.5,1.5,0,0,0,.538.8C600.068,523.836,597.548,525.117,597.548,525.117Z" transform="translate(-305.5 -278.551)" fill="#ceddf9"/>
      <path id="Caminho_589" data-name="Caminho 589" d="M597.548,526.347l-3.65.872-3.349-2.476.172-1.394a2.4,2.4,0,0,0,.614-.538h.732c.538.054,1.884,2.449,1.884,2.449,3.305.221,4.307-.861,4.646-1.658a1.5,1.5,0,0,0,.538.8C600.068,525.066,597.548,526.347,597.548,526.347Z" transform="translate(-305.5 -279.781)" opacity="0.1"/>
      <path id="Caminho_590" data-name="Caminho 590" d="M591.182,525.982s-1.324-2.4-1.884-2.444a12.66,12.66,0,0,0-1.421,0s-1.464,3.472-2,3.768-1.324,1.96-1.324,1.96,3.876,3.768,7.623,3.031a7.766,7.766,0,0,1,3.435.856c1.734.9,8.974.221,9.857-1.367.657-1.2.921-2.062.339-2.692a1.572,1.572,0,0,0-1.362-.463,5.127,5.127,0,0,1-4.748-2.1,43.056,43.056,0,0,0-3.575-3.031C595.85,523.495,596.34,526.326,591.182,525.982Z" transform="translate(-302.73 -280.099)" fill="#cc8294"/>
      <path id="Caminho_591" data-name="Caminho 591" d="M643.534,455.2l-.027.032a12.327,12.327,0,0,1-2.3,2.121,23.027,23.027,0,0,0-2.347,1.039s-.98,1.308-1.76,1.373a3.073,3.073,0,0,0-.689.183c-.108-1.793-.226-3.3-.226-3.3l6.2-3.65.721,1.136c.161.458.345.883.4,1.017Z" transform="translate(-326.565 -247.553)" opacity="0.1"/>
      <path id="Caminho_592" data-name="Caminho 592" d="M607.081,409.238a6.683,6.683,0,0,0,0,7.316,24.373,24.373,0,0,0,4.958,6.261l8.215,17.022a13.425,13.425,0,0,1,2.939-1.238c.786-.065,1.76-1.367,1.76-1.367a22.808,22.808,0,0,1,2.347-1.044c.538-.129,2.331-2.153,2.331-2.153s-.9-1.954-.7-2.476-.587-1.83-.587-1.83a10.761,10.761,0,0,1-.538-2.019,5.3,5.3,0,0,0-.851-1.76,5.574,5.574,0,0,1-.845-2.024,19.277,19.277,0,0,0-1.265-3.542L624.518,408Z" transform="translate(-312.636 -226.778)" fill="#ceddf9"/>
      <path id="Caminho_593" data-name="Caminho 593" d="M629.578,434.034a13.022,13.022,0,0,1-2.331,2.153,22.808,22.808,0,0,0-2.347,1.044s-.98,1.3-1.76,1.367a6.245,6.245,0,0,0-1.615.576c-.7.318-1.33.662-1.33.662l-8.221-17.022a17.805,17.805,0,0,1-2-2.046,28.243,28.243,0,0,1-2.961-4.215,7.058,7.058,0,0,1-.937-5.077,5.841,5.841,0,0,1,.937-2.234l5.846-.415L624.506,408l.1,3.666.215,8.716s.188.436.425,1.012a11.064,11.064,0,0,1,.813,2.509,5.529,5.529,0,0,0,.845,2.024,5.471,5.471,0,0,1,.851,1.76,10.922,10.922,0,0,0,.538,2.024s.786,1.3.592,1.82S629.578,434.034,629.578,434.034Z" transform="translate(-312.609 -226.778)" opacity="0.05"/>
      <path id="Caminho_594" data-name="Caminho 594" d="M616.91,467.139a4.563,4.563,0,0,0-.947,1.077c-3.548.258-7.671-1.615-8.743-2.11a1.558,1.558,0,0,0,0-.4l1.217-1.211S618.471,465.9,616.91,467.139Z" transform="translate(-313.195 -252.857)" opacity="0.1"/>
      <path id="Caminho_595" data-name="Caminho 595" d="M627.154,412.05s-.538,1.825-.716,2.606-.587,4.635-.587,4.635l-.226,1.077L621.9,438.133l-.813,3.86c-1.432.786-5.017-1.308-5.017-1.308-4.178.463-9.329-2.213-9.329-2.213a13.494,13.494,0,0,0,.651-4.108,3.151,3.151,0,0,1,1.174-2.482c-.323-1.238.845-6.654.845-6.654s.264-2.019,1.244-2.541-.129-1.3-.393-1.766a2,2,0,0,1,.092-1.2,8.825,8.825,0,0,1,.3-.888c-2.487-2.487-2.869-6.374-2.875-8.533a13.777,13.777,0,0,1,.07-1.577l5.383-.942L625,405.73l1.2,3.693h0l.3.926Z" transform="translate(-312.974 -225.73)" fill="#ceddf9"/>
      <path id="Caminho_596" data-name="Caminho 596" d="M634.267,323.442a7.047,7.047,0,0,0-.538,1.653q-.048.215-.1.452a4.945,4.945,0,0,1-3.289.743c-.5,0-.781-.958-1.254-1.077,0,0-.711-2.562-.91-.4-1.367-.28-2.546.786-3.515-.145h0v-.377a15.265,15.265,0,0,0-.113-2.417s3.8,0,6.659.307C633.136,322.4,634.638,322.785,634.267,323.442Z" transform="translate(-321.196 -187.016)" opacity="0.1"/>
      <path id="Caminho_597" data-name="Caminho 597" d="M635.142,310.4a7.278,7.278,0,0,1-8.727,7.122h0a7.268,7.268,0,1,1,7.8-10.691A7.138,7.138,0,0,1,635.142,310.4Z" transform="translate(-319.379 -178.367)" fill="#d38884"/>
      <path id="Caminho_598" data-name="Caminho 598" d="M631.661,334.688c-.054.6-.081.991-.081.991s-11.677-.781-9.653-2.74A4.306,4.306,0,0,0,623,331l5.066.829s1.432,1.109,2.541,2.153A4.6,4.6,0,0,0,631.661,334.688Z" transform="translate(-319.877 -191.231)" opacity="0.1"/>
      <path id="Caminho_599" data-name="Caminho 599" d="M626.258,410.7a3.769,3.769,0,0,1-1.534-.113,3.114,3.114,0,0,1-.619-.275c-.98-.587-4.237.135-4.237.135s-8.872.587-9.265,0c-.221-.339-1.787-.291-3.069-.188-.538.043-1,.1-1.324.129a5.843,5.843,0,0,1,.937-2.234l5.846-.414,11.763-2.056,1.2,3.693h0A13.265,13.265,0,0,0,626.258,410.7Z" transform="translate(-312.729 -225.707)" opacity="0.1"/>
      <path id="Caminho_600" data-name="Caminho 600" d="M619.28,332.374l-6.363-1.044a1.9,1.9,0,0,1-1.2,1.044,15.619,15.619,0,0,0-6.326,4.5l-1.7,2.353s-1.373,1.7-.915,3.063a51.721,51.721,0,0,1,.98,6l.651,5.152s1.238,3.72.851,5.351.194,8.479.194,8.479l-1.3,8.479s4.431-.587,4.845,0,9.265,0,9.265,0,3.23-.721,4.237-.135a3.542,3.542,0,0,0,2.153.393s-.781-2.692-.328-4.172a16.728,16.728,0,0,0,.328-4.242s.651-3.978.323-4.694.721-3.327.721-3.327l3.456-18.2s-.42-3.262-2.266-4.371-3.93-1.437-5.039-2.476S619.28,332.374,619.28,332.374Z" transform="translate(-311.103 -191.383)" fill="#4c4981"/>
      <path id="Caminho_601" data-name="Caminho 601" d="M639,365.325v2.153l2.008,5.416.727,5.023a24.788,24.788,0,0,1,1.308,4.845c0,1.26,3.192,7.241,3.192,7.241s.872,2.024.436,2.412-4.215,9,.538,8.743,3.262-9.26,3.262-9.26l-.651-3.914s-.915-9.787-.915-10.5c0,0-1.174-4.172-1.3-5.087s-.98-5.545-.98-5.545l-.716-3Z" transform="translate(-327.867 -206.396)" fill="#d38884"/>
      <path id="Caminho_602" data-name="Caminho 602" d="M565.722,307.82l-7.09,4.059-2.2,3.327,2.934-2.982Z" transform="translate(-256.877 -142.108)" opacity="0.1"/>
      <path id="Caminho_603" data-name="Caminho 603" d="M622.367,393.63s-3.23,2.1-4.748,2.1-5.039,3.618-5.039,3.618,4.99-3.23,5.383-3.128S622.367,393.63,622.367,393.63Z" transform="translate(-315.67 -220.144)" opacity="0.1"/>
      <path id="Caminho_604" data-name="Caminho 604" d="M613.36,395.72s-3.031,2.74-2.25,3.036,4.845-3.036,4.845-3.036Z" transform="translate(-314.932 -221.109)" opacity="0.1"/>
      <path id="Caminho_605" data-name="Caminho 605" d="M638.738,377.55s-2.347,3.182-1.712,3.133,2.444-1.863,2.444-1.863Z" transform="translate(-326.905 -212.721)" opacity="0.1"/>
      <path id="Caminho_606" data-name="Caminho 606" d="M638.832,383.37s-2.541,2.885-2.444,3.618S638.832,383.37,638.832,383.37Z" transform="translate(-326.66 -215.407)" opacity="0.1"/>
      <path id="Caminho_607" data-name="Caminho 607" d="M641.124,386.05s-1.712,3.058-.98,3.693S641.124,386.05,641.124,386.05Z" transform="translate(-328.311 -216.645)" opacity="0.1"/>
      <path id="Caminho_608" data-name="Caminho 608" d="M637.413,371.46s-1.276,2.153-.345,2.3,1.023,0,1.023,0Z" transform="translate(-326.818 -209.909)" opacity="0.1"/>
      <path id="Caminho_609" data-name="Caminho 609" d="M637.109,356.83a22.484,22.484,0,0,1-1.3,3.838,17.785,17.785,0,0,1-.506-1.922A13.117,13.117,0,0,1,637.109,356.83Z" transform="translate(-326.159 -203.155)" opacity="0.1"/>
      <path id="Caminho_610" data-name="Caminho 610" d="M634.215,306.839a3.17,3.17,0,0,1-.49.759,5.618,5.618,0,0,0-.883,1.012,5.431,5.431,0,0,0-.318,1.728c-.1.581-.463,1.227-1.077,1.244a2.186,2.186,0,0,1-.861-.258.877.877,0,0,0-.856.027.958.958,0,0,0-.275.646,8.547,8.547,0,0,0-.086,1.529,3.843,3.843,0,0,0,.032.608,3.418,3.418,0,0,1-.113,1.938,2.347,2.347,0,0,1-1.206.969,7.456,7.456,0,0,1-1.69.474h0a18.588,18.588,0,0,1-3.332.108.824.824,0,0,1-.3-.048.425.425,0,0,1-.129-.081,10.2,10.2,0,0,0,.2-1.857,7.268,7.268,0,1,1,11.386-8.8Z" transform="translate(-319.383 -178.375)" opacity="0.1"/>
      <path id="Caminho_611" data-name="Caminho 611" d="M628.491,298.562a6.318,6.318,0,0,0-1.954.431c-1.351.3-2.735-.318-4.124-.312a7.656,7.656,0,0,0-3.392,1.012,8.186,8.186,0,0,0-2.261,1.583,3.688,3.688,0,0,0-1.077,2.487,4.076,4.076,0,0,1-.049,1.615,4.54,4.54,0,0,1-.5.754,2.24,2.24,0,0,0-.232,1.868,6.2,6.2,0,0,0,1.114,1.669c.894,1.147,1.454,2.519,2.256,3.736a11.62,11.62,0,0,0,1.174,1.491.829.829,0,0,0,.253.2.776.776,0,0,0,.3.043,11.887,11.887,0,0,0,5.028-.581,2.3,2.3,0,0,0,1.206-.969,3.419,3.419,0,0,0,.118-1.938,8.874,8.874,0,0,1,.048-2.153.948.948,0,0,1,.275-.641.861.861,0,0,1,.861-.027,2.348,2.348,0,0,0,.856.258c.587,0,.958-.668,1.077-1.249a2.929,2.929,0,0,1,1.2-2.74,4.145,4.145,0,0,0,.737-3.677C631.021,300.21,629.836,298.7,628.491,298.562Z" transform="translate(-316.695 -176.251)" fill="#1e1637"/>
      <path id="Caminho_612" data-name="Caminho 612" d="M644.4,349.754a8.475,8.475,0,0,0,0,2.692c-.065.721,0,4.7,0,4.7-2.153-.657-7.628.651-7.628.651l-.651-1.954a4.847,4.847,0,0,1-.818-1.615,17.925,17.925,0,0,1-.506-1.927,39.964,39.964,0,0,1-.641-4.1c-.275-2.073,2.81-4.307,5.146-5.545s4.382,4.043,4.382,4.043S644.658,348.731,644.4,349.754Z" transform="translate(-325.622 -196.526)" opacity="0.1"/>
      <path id="Caminho_613" data-name="Caminho 613" d="M644.4,349.058a8.5,8.5,0,0,0,0,2.692c-.065.716,0,4.694,0,4.694-2.153-.651-7.628.651-7.628.651l-.651-1.954a4.792,4.792,0,0,1-.818-1.615,17.8,17.8,0,0,1-.506-1.922,40.19,40.19,0,0,1-.641-4.1c-.275-2.078,2.81-4.307,5.146-5.55S643.684,346,643.684,346,644.658,348.014,644.4,349.058Z" transform="translate(-325.622 -196.202)" fill="#4c4981"/>
      <path id="Caminho_614" data-name="Caminho 614" d="M631.351,302.98a4.305,4.305,0,0,0-.479-1.05c.032.092.065.178.092.269a4.145,4.145,0,0,1-.738,3.677,2.928,2.928,0,0,0-1.2,2.74c-.092.581-.463,1.222-1.077,1.244a2.186,2.186,0,0,1-.861-.258.878.878,0,0,0-.856.027.959.959,0,0,0-.275.646,8.828,8.828,0,0,0-.048,2.153,3.483,3.483,0,0,1-.118,1.943,2.4,2.4,0,0,1-1.206.969,11.887,11.887,0,0,1-5.028.581.781.781,0,0,1-.3-.048.694.694,0,0,1-.253-.2,10.445,10.445,0,0,1-1.174-1.491c-.8-1.217-1.362-2.584-2.256-3.736a10.945,10.945,0,0,1-.738-.948v.065a5.958,5.958,0,0,0,1.114,1.669c.888,1.147,1.454,2.519,2.25,3.736a11.21,11.21,0,0,0,1.179,1.491.807.807,0,0,0,.248.2.791.791,0,0,0,.3.043,11.878,11.878,0,0,0,5.028-.581,2.3,2.3,0,0,0,1.206-.969,3.418,3.418,0,0,0,.118-1.938,9.465,9.465,0,0,1,.048-2.153,1,1,0,0,1,.275-.641.861.861,0,0,1,.861-.027,2.346,2.346,0,0,0,.856.258c.592,0,.958-.668,1.077-1.249a5.287,5.287,0,0,1,.318-1.728,5.414,5.414,0,0,1,.883-1.012A4.156,4.156,0,0,0,631.351,302.98Z" transform="translate(-316.713 -177.81)" opacity="0.2"/>
      <path id="Caminho_615" data-name="Caminho 615" d="M728.569,301.859l-4.651,9.884a8.466,8.466,0,0,1-1.125,2.2c-.441.345-2.4,6.213-2.4,6.213l-4.99,7.688h0l-.339.538-1.954-.538-1.373-5.125.081-1.486v-.188s3.079-3.23,3.768-3.472c0,0,.538.065,1.561-2.439s1.96-3.042,1.96-3.042l.538-1.809,5.776-9.2s4.845-6.939,6.164-3.86S728.569,301.859,728.569,301.859Z" transform="translate(-361.448 -175.274)" fill="#ffd2c6"/>
      <path id="Caminho_616" data-name="Caminho 616" d="M695.759,434.483a1.116,1.116,0,0,1-.156.474c-.538.786-3.569,16.78-3.569,16.78.242,1.077-.441,3.23-.883,4.21a61.709,61.709,0,0,0-1.421,6.062s-.242,10.961-.872,12.673.2,5.383.2,5.383a8.236,8.236,0,0,0,1.556,4.377l.118.172c.194.28.323.441.323.441a2.606,2.606,0,0,0,.684.845l.14.108a7.9,7.9,0,0,0,2.74,1.157h.1c.388.086.646.124.646.124l.242,1.324-2.589.538-4.942.339s-5.825.447-4.5-2.153a4.122,4.122,0,0,0,.237-.538h0a4.1,4.1,0,0,0,.135-.388,13.4,13.4,0,0,0,.258-5.523l-1.125-8.85c-1.857-8.22,1.459-17.367,1.459-17.367a4.283,4.283,0,0,1,.35-2.589c.635-1.857,0-5.922,0-5.922s-.339-5.233-.781-7.822a15.859,15.859,0,0,1-.178-3.3,16.415,16.415,0,0,1,.178-1.927l11.149-1.48A8.387,8.387,0,0,1,695.759,434.483Z" transform="translate(-347.954 -237.687)" fill="#ffd2c6"/>
      <path id="Caminho_617" data-name="Caminho 617" d="M696.344,533.728l-2.589.538-4.942.339s-5.825.447-4.5-2.153a4.117,4.117,0,0,0,.237-.538h0a4.063,4.063,0,0,0,.135-.388,9.153,9.153,0,0,1,2.95.592c1.658.641,2.907-1.028,2.907-1.028l.807-1.54.119-.221c.194.28.323.441.323.441a2.691,2.691,0,0,0,.824.953l-.14.285-.781,1.647s1,.1,2.369.323a1.077,1.077,0,0,0,1.292-.705h.1c.388.086.646.124.646.124Z" transform="translate(-348.695 -282.791)" opacity="0.1"/>
      <path id="Caminho_618" data-name="Caminho 618" d="M698.376,535.273c-.194.883-5.647,1.152-5.647,1.152s-3.036-.291-3.887.415-3.354.538-3.451.538-1.416-.049-1.933-2.417.673-2.692.727-2.729h0a8.931,8.931,0,0,1,3.085.6c1.658.641,2.907-1.028,2.907-1.028l.926-1.76c.194.28.323.441.323.441a2.691,2.691,0,0,0,.824.953l-.921,1.933s1,.1,2.369.318a1.136,1.136,0,0,0,1.389-1.077,1.313,1.313,0,0,0,0-.145s.851.248,1.906.538a1.965,1.965,0,0,1,1.384,2.272Z" transform="translate(-348.332 -283.119)" fill="#626696"/>
      <path id="Caminho_619" data-name="Caminho 619" d="M719.9,445.032c-.129.781-.264,2.8-.264,2.8.457,1.7-.716,5.723-.716,5.723l-.587,2.3c.258,2.934-1.615,10.11-1.615,10.11s-1.254,6.654-1.906,9.523a7.875,7.875,0,0,0,.339,4.8l.048.118a.875.875,0,0,0,.038.161,1.657,1.657,0,0,0,.075.231,3.441,3.441,0,0,0,.641,1.077,3.181,3.181,0,0,0,.35.361h0a7.112,7.112,0,0,0,2.078,1.281h0l.328.129a10.154,10.154,0,0,0,1.039.323h.118l-.264,1.54-3.456-.888-4.63-1.5-2.245-1.26a1.435,1.435,0,0,1,.07-.361.118.118,0,0,0,0-.043,2.326,2.326,0,0,1,.07-.361c.355-2.019,1.238-7.666.8-11.844-.538-5.152,1.615-12.263,2.116-13.954a8.434,8.434,0,0,0,.393-3c-.851-1.238-1.044-6.2-1.044-6.2s-1.567-3.2-2.859-6.589a16.839,16.839,0,0,1-.931-3.429,11.617,11.617,0,0,1-.188-2.5s10.5-9.588,11.655-.307c.038.318.075.614.113.91C720.486,442.712,720.023,444.273,719.9,445.032Z" transform="translate(-359.577 -236.576)" fill="#ffd2c6"/>
      <path id="Caminho_620" data-name="Caminho 620" d="M721.257,527.9l-.264,1.54-3.456-.888-4.63-1.5-2.277-1.3a1.434,1.434,0,0,1,.07-.361.121.121,0,0,0,0-.043,2.333,2.333,0,0,1,.07-.361h.323a4.253,4.253,0,0,1,1.938.264,4.657,4.657,0,0,0,1.943.468,2.455,2.455,0,0,1,1.109-.194l.479-1.077.075-.161a3.38,3.38,0,0,0,.641,1.077,4.144,4.144,0,0,0,.371.382v.371l-.027.538a6.739,6.739,0,0,0,1.663.764.958.958,0,0,0,.463,0h0l.328.129a10.152,10.152,0,0,0,1.039.323h0Z" transform="translate(-360.935 -280.459)" opacity="0.1"/>
      <path id="Caminho_621" data-name="Caminho 621" d="M719.2,531.562c-.964-.275-3.289-.721-3.666-.377s-3.6,0-3.6,0a1.96,1.96,0,0,1-1.664-.974c-.673-1.044-.129-4.42-.129-4.42h.237l.4-.043h0a4.307,4.307,0,0,1,1.938.258,4.6,4.6,0,0,0,1.943.474,2.406,2.406,0,0,1,1.109-.2l.538-1.211a3.44,3.44,0,0,0,.641,1.077,3.515,3.515,0,0,0,.372.377l-.049.9a6.888,6.888,0,0,0,1.664.77.673.673,0,0,0,.8-.253.647.647,0,0,0,.059-.135h0a5.95,5.95,0,0,0,1.367.452h0a2.5,2.5,0,0,1,2.692,1.917C724.36,531.675,720.166,531.837,719.2,531.562Z" transform="translate(-360.614 -280.824)" fill="#626696"/>
      <path id="Caminho_622" data-name="Caminho 622" d="M696.977,434.483l-.6.183a8.349,8.349,0,0,1-1.437.3,59.892,59.892,0,0,1-9.792.07,16.43,16.43,0,0,1,.178-1.927l11.149-1.48A8.428,8.428,0,0,1,696.977,434.483Z" transform="translate(-349.172 -237.687)" opacity="0.1"/>
      <path id="Caminho_623" data-name="Caminho 623" d="M705.869,418.734s-4.091.635-7.424,1.362c-1.109.242-2.153.5-2.9.743a8.846,8.846,0,0,1-1.437.307,62.562,62.562,0,0,1-10.3.038c-1.809-5.868,2.2-13.259,2.2-13.259a7.507,7.507,0,0,1,.834-2.39v-.059l.571-2.094h15.208l.188.9.388,1.83,2.39,11.343Z" transform="translate(-348.336 -224.645)" fill="#626696"/>
      <path id="Caminho_624" data-name="Caminho 624" d="M719.487,434.264l-.092.038-1.782.791c-1.927.888-7.693,1.077-9.69,1.077a11.621,11.621,0,0,1-.188-2.5s10.5-9.588,11.655-.307C719.411,433.672,719.449,433.99,719.487,434.264Z" transform="translate(-359.596 -236.617)" opacity="0.1"/>
      <path id="Caminho_625" data-name="Caminho 625" d="M711.62,421.382l-.371.167-1.782.791c-1.96.9-7.914,1.077-9.819,1.077h-.5a2.267,2.267,0,0,1-1.76-1.077c0-.118-.092-.7-.167-1.2-.07-.4-.124-.743-.124-.743a47.077,47.077,0,0,1-5.922-3.063c-1.491-1.017-1.114-8.247-.829-11.881.1-1.254.194-2.078.194-2.078l15.4.9,2.153.124,1.233.275.328.07s.888,6.46,1.324,7,.151,2.347.1,3.381a6.153,6.153,0,0,1-.145,1.319,8.144,8.144,0,0,1,.49,2.821A5.636,5.636,0,0,0,711.62,421.382Z" transform="translate(-351.449 -224.645)" fill="#626696"/>
      <circle id="Elipse_88" data-name="Elipse 88" cx="6.309" cy="6.309" r="6.309" transform="translate(337.377 130.505)" fill="#ffd2c6"/>
      <path id="Caminho_626" data-name="Caminho 626" d="M689.3,330.375s.436,5.976-.786,7.348a55.638,55.638,0,0,1-4.4,3.962l.98,4.059,5.529.635,6.46-6.9-1.47-1.782s-1.125-3.817-.2-5.723S689.3,330.375,689.3,330.375Z" transform="translate(-348.692 -190.934)" fill="#ffd2c6"/>
      <path id="Caminho_627" data-name="Caminho 627" d="M715.406,348.612h0l-.339.538-1.954-.538-1.373-5.125.081-1.486.4-.581s2.153.048,2.062,2.008A17.158,17.158,0,0,0,715.406,348.612Z" transform="translate(-361.448 -196.041)" opacity="0.1"/>
      <path id="Caminho_628" data-name="Caminho 628" d="M709.553,405.519s-1.556.345-3.338.576-3.838.355-4.684-.14c-1.416-.84-9.087-.6-11.305-.511h-.377l.571-2.094h15.208l.188.9,2.153.124,1.233.275C709.43,405.175,709.553,405.519,709.553,405.519Z" transform="translate(-351.342 -224.631)" opacity="0.1"/>
      <path id="Caminho_629" data-name="Caminho 629" d="M695.156,342.13s2.153.048,2.056,2.008a18.046,18.046,0,0,0,1.174,5.33l-.49,1.125s-.684,2.74-.145,3.424,2.493.684,1.367,6.309c0,0-.242,4.21.345,5.577s.587,4.646,1.464,6.019a32.481,32.481,0,0,1,2.056,4.549s-6.358,1.416-8.021.441-11.887-.49-11.887-.49.049-1.712,0-1.911a1.583,1.583,0,0,1,.242-1.244c.345-.468.883-1.249.587-1.933s.732-1.7.194-2.756-1.19-1.271-1.077-1.852a2.493,2.493,0,0,0-.6-1.852c-.388-.49-3.031-5.658-3.031-5.658l-.441-2.412s-3.4-2.493-3.338-3.666a6.943,6.943,0,0,1,1.287-2.8l3.273-3.23s1.814,1.954,3.575,1.271,5.545-3.962,5.545-3.962,1.351-.732,1.448-1.271.931-.048.931-.048,1.222-.673,1.464-.436a4.306,4.306,0,0,0,1.324.436Z" transform="translate(-344.767 -196.369)" fill="#ffcde5"/>
      <path id="Caminho_630" data-name="Caminho 630" d="M664.088,361.06l-1.039.818a13.754,13.754,0,0,0-1.308,5.33,70.273,70.273,0,0,1-1.319,8.258l-2.057,3.677s-3.375,7.09-3.817,8.974a23.538,23.538,0,0,1-2.444,5.066s-6.8,6.11-2.056,7.214,4.894-4.845,4.894-4.845a7,7,0,0,0,1.287-2.056c.21-.834,6.2-11.472,6.2-11.472s2.1-2.864,1.664-4.382c0,0,2.74-6.46,2.74-8.075a28.4,28.4,0,0,0-.442-4.027l.442-3.375Z" transform="translate(-332.191 -205.108)" fill="#ffd2c6"/>
      <path id="Caminho_631" data-name="Caminho 631" d="M698.733,386.11a48.844,48.844,0,0,1-5.723,2.643c-.931.135,4.059-.538,4.059-.538Z" transform="translate(-352.748 -216.672)" opacity="0.1"/>
      <path id="Caminho_632" data-name="Caminho 632" d="M703.152,389.74s-6.358,2.153-9.152,1.766C694,391.495,700.955,392.825,703.152,389.74Z" transform="translate(-353.258 -218.348)" opacity="0.1"/>
      <path id="Caminho_633" data-name="Caminho 633" d="M703.938,391.05s-5.728,3.6-9.1,3.015c0,0,7.876,1.567,9.1.732l-3.521-.974S704.326,391.75,703.938,391.05Z" transform="translate(-353.646 -218.953)" opacity="0.1"/>
      <path id="Caminho_634" data-name="Caminho 634" d="M684.259,304.732a5.954,5.954,0,0,0-4.845.91c-.98.77-1.615,1.949-2.735,2.525a14.661,14.661,0,0,1-1.787.63,5.163,5.163,0,0,0-3.149,5.556c.172.969.624,1.863.851,2.821a11.091,11.091,0,0,1-.388,5.2,54.763,54.763,0,0,1-5.437,13.486,1.432,1.432,0,0,0-.269.9,1.329,1.329,0,0,0,.334.576c2.261,2.611,5.922,3.51,9.394,3.628a7.257,7.257,0,0,0,3.725-.619,5.643,5.643,0,0,0,1.814-1.663,8.84,8.84,0,0,0,1.69-5.685c-.092-1.642-.641-3.3-.226-4.888a1.248,1.248,0,0,1,.291-.6c.371-.382.991-.28,1.518-.345,1.437-.167,2.363-1.68,2.536-3.117a33.828,33.828,0,0,0-.2-4.307,9.077,9.077,0,0,1,1.706-5.324,5.87,5.87,0,0,0,1.249-2.126,3.509,3.509,0,0,0-.91-2.606c-.8-1.27-1.2-2.751-2.417-3.72a6.519,6.519,0,0,0-2.746-1.233Z" transform="translate(-340.561 -179.024)" opacity="0.1"/>
      <path id="Caminho_635" data-name="Caminho 635" d="M683.555,304a5.922,5.922,0,0,0-4.813.91c-.98.775-1.615,1.954-2.74,2.53a15.62,15.62,0,0,1-1.787.624,5.163,5.163,0,0,0-3.149,5.545c.172.969.624,1.863.851,2.821a11.021,11.021,0,0,1-.388,5.2,54.662,54.662,0,0,1-5.432,13.459,1.378,1.378,0,0,0-.269.9,1.243,1.243,0,0,0,.328.576c2.261,2.616,5.922,3.51,9.394,3.628a7.3,7.3,0,0,0,3.725-.614,5.717,5.717,0,0,0,1.814-1.669,8.845,8.845,0,0,0,1.685-5.685c-.1-1.615-.646-3.3-.231-4.888a1.351,1.351,0,0,1,.291-.6c.377-.382.991-.28,1.523-.339,1.432-.167,2.358-1.685,2.53-3.117a34.878,34.878,0,0,0-.194-4.307,9.023,9.023,0,0,1,1.707-5.319,5.924,5.924,0,0,0,1.249-2.153,3.544,3.544,0,0,0-.915-2.606c-.8-1.265-1.2-2.751-2.417-3.72A6.519,6.519,0,0,0,683.555,304Z" transform="translate(-340.251 -178.69)" fill="#985c7e"/>
      <path id="Caminho_636" data-name="Caminho 636" d="M694.84,417.76s1.254,5.873,3.343,7.467Z" transform="translate(-353.646 -231.284)" opacity="0.1"/>
      <g id="Grupo_39" data-name="Grupo 39" transform="translate(325.566 131.156)" opacity="0.1">
        <path id="Caminho_637" data-name="Caminho 637" d="M676.061,323.874c-.065-.226-.14-.458-.221-.684C675.926,323.421,675.98,323.626,676.061,323.874Z" transform="translate(-670.44 -318.781)"/>
        <path id="Caminho_638" data-name="Caminho 638" d="M689.276,315a2.147,2.147,0,0,1,0,.538,5.723,5.723,0,0,1-1.249,2.126,9.093,9.093,0,0,0-1.706,5.324,36.341,36.341,0,0,1,.194,4.307c-.172,1.416-1.077,2.95-2.53,3.112-.538.065-1.147-.038-1.518.345a1.362,1.362,0,0,0-.3.6c-.414,1.588.14,3.23.232,4.888a8.845,8.845,0,0,1-1.712,5.68,5.582,5.582,0,0,1-1.814,1.663,7.23,7.23,0,0,1-3.72.619c-3.4-.113-7-.991-9.281-3.5a.893.893,0,0,0-.054.474,1.244,1.244,0,0,0,.328.576c2.261,2.616,5.922,3.51,9.394,3.628a7.294,7.294,0,0,0,3.725-.614,5.716,5.716,0,0,0,1.814-1.669,8.844,8.844,0,0,0,1.685-5.685c-.1-1.615-.646-3.3-.231-4.888a1.351,1.351,0,0,1,.291-.6c.377-.382.991-.28,1.523-.339,1.432-.167,2.358-1.685,2.53-3.117a34.889,34.889,0,0,0-.194-4.307,9.023,9.023,0,0,1,1.707-5.319,5.925,5.925,0,0,0,1.249-2.153A2.417,2.417,0,0,0,689.276,315Z" transform="translate(-665.81 -315)"/>
      </g>
      <ellipse id="Elipse_89" data-name="Elipse 89" cx="11.391" cy="1.152" rx="11.391" ry="1.152" transform="translate(58.154 268.073)" fill="#536dfe" opacity="0.1"/>
      <path id="Caminho_639" data-name="Caminho 639" d="M189.593,536.09s-14.858,7.677-7.182,16.689a2.853,2.853,0,0,0,2.81,1.825s-.42-.759,1.179-1.367a7.77,7.77,0,0,0,1.615-.851,3.769,3.769,0,0,0,1.437-1.922h0s3.042-4.065.684-11.585c0,0,.307-2.153.038-2.471l-1.8,2.471a5.062,5.062,0,0,1,2.083,3.1s-1.943-3.09-2.369-2.735c-.086.07-.894,1.351-.894,1.351s3.23,2.2,3.472,5.044c0,0-1.82-3.989-3.768-4.56l-1.109,2.008s3.532,2.153,3.93,5.383c0,0-2.051-4.1-4.145-4.926l-.824,2.121s3.4,2.153,3.715,4.845c0,0-2.848-4.5-3.871-4.355a10.28,10.28,0,0,0-.538,2.606s2.412,1.615,2.455,3.192c0,0-2.223-2.81-2.568-2.622a12.021,12.021,0,0,0,.538,4.307,8.56,8.56,0,0,1-.985-4.307,4.679,4.679,0,0,0-1.421,2.293s-.641-1.556,1.464-2.977a10.89,10.89,0,0,1,.441-2.466,10.1,10.1,0,0,0-3.23,2.476s.355-2.035,3.445-3.047l.786-2.153s-3.09,1.308-4.048,2.46c0,0,.689-2.019,4.307-2.988l1.077-1.981a17.5,17.5,0,0,0-4.086,1.981s1.039-1.739,4.414-2.536l.872-1.244s-2,.716-2.552.969-.668.129-.668.129a7.15,7.15,0,0,1,3.575-1.615A16.843,16.843,0,0,0,189.593,536.09Z" transform="translate(-116.063 -285.912)" fill="#536dfe"/>
      <path id="Caminho_640" data-name="Caminho 640" d="M224.068,493.2c1.556.921,3.989,1.518,7.052-.458l-.032,4.366c.221,3,3.919,13.905,3.919,13.905l2.611,8.98a70.217,70.217,0,0,1,2.875,19.526,18.659,18.659,0,0,0,.834,6.148c1.389,3.768-.538,8.614-1.389,10.406a43.453,43.453,0,0,1-4.307,1.211,2.961,2.961,0,0,0-.388.118v-.027s-3.919,1.556-5.663,1.34a1.518,1.518,0,0,0-1.077,2.649,7.9,7.9,0,0,1-2.611.345c-1.744-.215-2.611,2.783.651,3.639s21.781,0,21.781,0a2.627,2.627,0,0,0,1.394-2.9c1.421-.054,2.309-.1,2.309-.1s3.268-1.5,0-5.561l-.172.135-.7-2.056v-2.783s4.14-19.919,2.832-22.244-1.96-14.331-1.96-14.331l.436-13.049c1.179-2.439,1.787-6.255,2.094-9.243a19.692,19.692,0,0,0,.834-4.388c.048-.7.091-1.437.118-2.2a14.778,14.778,0,0,0-.791-4.926,48.684,48.684,0,0,1,4.931-6.2,6.347,6.347,0,0,0,1.96-5.561l-1.077-7.273-2.616-12.382c.328-3.445-.388-5.427-1.184-6.546.188-1.109.366-2.223.5-3.338a42.718,42.718,0,0,0-.764-14.535,9.862,9.862,0,0,0-2.056-4.63c-1.324-1.427-3.467-2.3-3.957-4.167a13.557,13.557,0,0,0-.3-1.405c-.479-1.227-1.992-1.669-3.316-1.83-2.358-.285-5.766-.506-8.032.42a9.742,9.742,0,0,0-4.624,4.339,3.72,3.72,0,0,0-.538,2.692,3.532,3.532,0,0,0,.377.91,8.193,8.193,0,0,0-.538,2.869,8.35,8.35,0,0,0,5.33,7.741c.048.162.1.323.14.485a8.071,8.071,0,0,1,.21,1.163c-.038.759-.086,1.518-.124,2.272a2.552,2.552,0,0,1-.081.307,55.873,55.873,0,0,0-5.475,2.794c1.308,1.922-.215,10.051-.215,10.051-3.268,1.927-6.535,6.848-3.052,11.978a12.68,12.68,0,0,1,1.524,10.632l-.538,8.366h0l-.108,1.669h.043l-.043.635h.092v.684a10.034,10.034,0,0,0-5.1,3.768,13.5,13.5,0,0,1-2.283,2.8,1.68,1.68,0,0,0,.264,2.789Zm26.3-22.223a7.94,7.94,0,0,1,.775-4.2h1.54c.054.361.113.705.188,1.018C253.311,469.7,251.545,470.6,250.366,470.978Z" transform="translate(-135.901 -229.359)" fill="url(#linear-gradient)"/>
      <path id="Caminho_641" data-name="Caminho 641" d="M259.573,672.76l.84,2.514L257.7,678l-9.012,2.094-6.5-.63.42-2.3h0a2.772,2.772,0,0,1,2.062-2.03c2.692-.63,7.763-2.057,8.834-4.048Z" transform="translate(-144.677 -348.23)" fill="#db8b8b"/>
      <path id="Caminho_642" data-name="Caminho 642" d="M259.573,672.76l.84,2.514L257.7,678l-9.012,2.094-6.5-.63.42-2.3h0a2.772,2.772,0,0,1,2.062-2.03c2.692-.63,7.763-2.057,8.834-4.048Z" transform="translate(-144.677 -348.23)" opacity="0.1"/>
      <path id="Caminho_643" data-name="Caminho 643" d="M240.106,681.894l1.26-1.68-1.26-1.938s-3.768,1.518-5.448,1.308-2.514,2.729.63,3.564,20.958,0,20.958,0,3.144-1.464,0-5.448l-2.713,2.094s-4.614,2.52-6.918,2.1Z" transform="translate(-140.51 -351.287)" fill="#2e3037"/>
      <path id="Caminho_644" data-name="Caminho 644" d="M235.55,684.917l6.5.625,9.012-2.094,2.724-2.724-.221-.667-.312-.937-.3-.91-6.078-1.68a3.768,3.768,0,0,1-1.233,1.238c-1.976,1.346-5.523,2.32-7.6,2.81l-.264.075a2.761,2.761,0,0,0-1.825,1.954Z" transform="translate(-141.612 -350.747)" fill="#db8b8b"/>
      <path id="Caminho_645" data-name="Caminho 645" d="M235.55,687.941l6.5.624,9.012-2.094,2.724-2.724-.221-.668L251.06,685s-4.608,2.519-6.918,2.1H237.65l1.254-1.68-1.131-1.744a2.761,2.761,0,0,0-1.825,1.954Z" transform="translate(-141.612 -353.77)" opacity="0.1"/>
      <path id="Caminho_646" data-name="Caminho 646" d="M233.49,687.344l1.254-1.68-1.254-1.938s-3.768,1.518-5.453,1.308-2.514,2.729.63,3.564,20.958,0,20.958,0,3.144-1.464,0-5.448l-2.724,2.073s-4.608,2.519-6.918,2.1Z" transform="translate(-137.452 -353.803)" fill="#2e3037"/>
      <path id="Caminho_647" data-name="Caminho 647" d="M249.18,455.611s10.062,1.044,8.613-3.144a7.618,7.618,0,0,1-.312-3.7,10.288,10.288,0,0,1,1.782-4.264l-9.432,1.47A11.9,11.9,0,0,1,251.107,449,6.208,6.208,0,0,1,249.18,455.611Z" transform="translate(-147.904 -243.629)" fill="#db8b8b"/>
      <path id="Caminho_648" data-name="Caminho 648" d="M270.639,553.9s-.21,9.012-2.3,13.416l-.441,12.78s.63,11.736,1.884,14.045-2.724,21.8-2.724,21.8v3.349s-6.7,2.519-8.614-.415l1.917-24.941-.824-34.594Z" transform="translate(-152.179 -294.134)" fill="#474463"/>
      <path id="Caminho_649" data-name="Caminho 649" d="M270.639,553.9s-.21,9.012-2.3,13.416l-.441,12.78s.63,11.736,1.884,14.045-2.724,21.8-2.724,21.8v3.349s-6.7,2.519-8.614-.415l1.917-24.941-.824-34.594Z" transform="translate(-152.179 -294.134)" opacity="0.1"/>
      <path id="Caminho_650" data-name="Caminho 650" d="M280.8,500.17l1.254,3.354,1.05,7.128a6.3,6.3,0,0,1-1.884,5.448,59.92,59.92,0,0,0-5.868,7.758l-3.984-11.935s3.984-.63,3.354-3.354a38.918,38.918,0,0,1-.42-7.758Z" transform="translate(-158.148 -269.329)" fill="#fc6681"/>
      <path id="Caminho_651" data-name="Caminho 651" d="M280.8,500.17l1.254,3.354,1.05,7.128a6.3,6.3,0,0,1-1.884,5.448,59.92,59.92,0,0,0-5.868,7.758l-3.984-11.935s3.984-.63,3.354-3.354a38.918,38.918,0,0,1-.42-7.758Z" transform="translate(-158.148 -269.329)" opacity="0.05"/>
      <path id="Caminho_652" data-name="Caminho 652" d="M254.29,677.768c2.692,4.231,6.869,1.83,7.612,1.351l-.3-.91-6.078-1.68A3.768,3.768,0,0,1,254.29,677.768Z" transform="translate(-150.263 -350.747)" opacity="0.1"/>
      <path id="Caminho_653" data-name="Caminho 653" d="M238.67,549.127c.21,2.934,3.768,13.625,3.768,13.625l2.514,8.8a69.754,69.754,0,0,1,2.762,19.133,18.843,18.843,0,0,0,.824,6.024c1.68,4.608-1.674,10.9-1.674,10.9,2.934,5.238,7.962,1.68,7.962,1.68v-3.354s3.984-18.234,2.934-21.8-1.464-13.206-1.464-13.206V553.531a19.768,19.768,0,0,0,5.728-12.522c.054-.684.092-1.405.118-2.153.172-4.732-3.063-10.272-4.307-12.253-.3-.474-.49-.743-.49-.743l-18.53,7.343h-.043v2.3Z" transform="translate(-143.052 -281.189)" fill="#474463"/>
      <path id="Caminho_654" data-name="Caminho 654" d="M250.35,445.97A11.9,11.9,0,0,1,251.626,449a8.156,8.156,0,0,0,6.374-.232,10.288,10.288,0,0,1,1.782-4.264Z" transform="translate(-148.444 -243.629)" opacity="0.1"/>
      <circle id="Elipse_90" data-name="Elipse 90" cx="8.172" cy="8.172" r="8.172" transform="translate(97.922 189.141)" fill="#db8b8b"/>
      <path id="Caminho_655" data-name="Caminho 655" d="M238.67,535.5h.086c8.791,1.8,19.822-7.354,19.822-7.354a11.232,11.232,0,0,1-.764-1.561c-.3-.474-.49-.743-.49-.743l-18.508,7.354-.048.732Z" transform="translate(-143.052 -281.18)" opacity="0.1"/>
      <path id="Caminho_656" data-name="Caminho 656" d="M239.037,460.546s11.736-7.128,15.51-4.194l5.238,6.708s3.354,1.044,2.724,7.752l2.514,12.156-7.537,1.89s-4.452,4.188-.872,10.277c0,0-11.106,9.222-19.919,7.338l.624-9.852a12.746,12.746,0,0,0-1.464-10.476c-3.354-5.028-.21-9.852,2.934-11.741C238.8,470.371,240.27,462.43,239.037,460.546Z" transform="translate(-141.088 -248.773)" fill="#fc6681"/>
      <path id="Caminho_657" data-name="Caminho 657" d="M233.862,544.17s-4.4.834-6.5,4.188a12.946,12.946,0,0,1-2.191,2.74,1.664,1.664,0,0,0,.258,2.654c1.663,1,4.377,1.615,7.8-1.2C239.1,547.728,233.862,544.17,233.862,544.17Z" transform="translate(-136.57 -289.642)" fill="#db8b8b"/>
      <path id="Caminho_658" data-name="Caminho 658" d="M247.738,472.005s4.194-.42,5.238,10.482S255.7,495.9,255.7,495.9s1.05,5.658-1.464,9.012-7.338,10.476-7.338,10.476-5.238,1.47-6.288-3.768l6.5-12.156s1.05-4.188-1.464-7.122S241.24,469.911,247.738,472.005Z" transform="translate(-143.948 -256.254)" opacity="0.1"/>
      <path id="Caminho_659" data-name="Caminho 659" d="M246.958,470.863s4.194-.42,5.238,10.476,2.729,13.416,2.729,13.416,1.044,5.658-1.47,9.012-7.338,10.476-7.338,10.476-5.238,1.47-6.288-3.768l6.5-12.156s1.05-4.194-1.464-7.128S240.46,468.753,246.958,470.863Z" transform="translate(-143.588 -255.726)" fill="#fc6681"/>
      <path id="Caminho_660" data-name="Caminho 660" d="M246.616,485.57s-.42,6.5,1.464,10.062,1.89,8.172,0,10.692" transform="translate(-146.702 -262.589)" opacity="0.1"/>
      <path id="Caminho_661" data-name="Caminho 661" d="M244.7,467.724s1.68-1.674,6.5-1.884,6.918-1.68,6.918-1.68" transform="translate(-145.836 -252.705)" opacity="0.1"/>
      <path id="Caminho_662" data-name="Caminho 662" d="M255.66,418.059c1.271.156,2.729.592,3.187,1.793a13.335,13.335,0,0,1,.291,1.378c.474,1.83,2.536,2.692,3.806,4.086a9.723,9.723,0,0,1,1.981,4.533,42.632,42.632,0,0,1,.738,14.239c-.409,3.478-1.244,6.9-1.48,10.39s.194,7.165,2.1,10.1a24.744,24.744,0,0,1,2.482,3.768,7.255,7.255,0,0,1-4.4,1.168q-2.692.086-5.383,0a5.761,5.761,0,0,1-2.751-.571,4.2,4.2,0,0,1-1.443-1.55,11.1,11.1,0,0,1-1.249-5.884c.043-2.035.366-4.048.4-6.078a5.466,5.466,0,0,0-.7-3.187,10.334,10.334,0,0,0-1.76-1.615c-2.24-1.986-3.009-5.179-3.085-8.172s.415-6,.161-8.985c-.1-1.168-.538-2.573-1.685-2.8a7.307,7.307,0,0,1-1.077-.14c-.926-.355-.834-1.658-1.077-2.611-.3-1.077-1.206-1.895-1.464-2.977-.6-2.536,2.622-5.561,4.737-6.46S253.388,417.779,255.66,418.059Z" transform="translate(-145.136 -231.314)" opacity="0.1"/>
      <path id="Caminho_663" data-name="Caminho 663" d="M256.027,417.287c1.271.161,2.724.6,3.187,1.793a13.139,13.139,0,0,1,.291,1.384c.474,1.83,2.536,2.692,3.806,4.081a9.723,9.723,0,0,1,1.981,4.533,42.63,42.63,0,0,1,.737,14.239c-.409,3.478-1.244,6.9-1.48,10.39s.194,7.165,2.1,10.1a24.748,24.748,0,0,1,2.482,3.768,7.255,7.255,0,0,1-4.4,1.168q-2.692.086-5.41,0a5.76,5.76,0,0,1-2.751-.571,4.232,4.232,0,0,1-1.443-1.545,11.08,11.08,0,0,1-1.249-5.889c.043-2.035.366-4.048.4-6.078a5.475,5.475,0,0,0-.7-3.187,10.552,10.552,0,0,0-1.76-1.615c-2.24-1.986-3.015-5.173-3.09-8.172s.42-6,.167-8.985c-.1-1.168-.538-2.573-1.685-2.8a7.306,7.306,0,0,1-1.077-.14c-.926-.355-.834-1.658-1.077-2.611-.3-1.077-1.206-1.895-1.464-2.977-.6-2.53,2.622-5.561,4.737-6.46S253.755,417.029,256.027,417.287Z" transform="translate(-145.293 -230.962)" fill="#472727"/>
      <ellipse id="Elipse_91" data-name="Elipse 91" cx="12.92" cy="1.777" rx="12.92" ry="1.777" transform="translate(504.506 371.117)" fill="#536dfe" opacity="0.1"/>
      <ellipse id="Elipse_92" data-name="Elipse 92" cx="12.92" cy="1.777" rx="12.92" ry="1.777" transform="translate(455.011 376.14)" fill="#536dfe" opacity="0.1"/>
      <ellipse id="Elipse_93" data-name="Elipse 93" cx="12.92" cy="1.777" rx="12.92" ry="1.777" transform="translate(396.714 369.346)" fill="#536dfe" opacity="0.1"/>
      <ellipse id="Elipse_94" data-name="Elipse 94" cx="9.184" cy="1.26" rx="9.184" ry="1.26" transform="translate(478.558 390.945)" fill="#536dfe" opacity="0.1"/>
      <ellipse id="Elipse_95" data-name="Elipse 95" cx="9.184" cy="1.26" rx="9.184" ry="1.26" transform="translate(427.189 389.679)" fill="#536dfe" opacity="0.1"/>
      <path id="Caminho_664" data-name="Caminho 664" d="M882.566,688.491s18.121-59.4-2.837-83.2c-15.677-17.8-33.469-15.671-41.453-13.459a14.735,14.735,0,0,0-9.507,7.9c-2.783,6.008-2.282,15.768,17.389,27.154,32.93,19.063,34.992,45.221,34.992,45.221Z" transform="translate(-414.909 -310.978)" fill="#536dfe"/>
      <path id="Caminho_665" data-name="Caminho 665" d="M852.77,608.71s53.42,16.689,41.453,88.24" transform="translate(-426.555 -319.437)" fill="none" stroke="#565987" stroke-miterlimit="10" stroke-width="1"/>
      <path id="Caminho_666" data-name="Caminho 666" d="M906.033,619.84s-7.359,4.953-5.017,12.382" transform="translate(-448.615 -324.575)" fill="none" stroke="#565987" stroke-miterlimit="10" stroke-width="1"/>
      <path id="Caminho_667" data-name="Caminho 667" d="M862.72,625.589s4.5-4.576,9.97-2.051" transform="translate(-431.149 -325.932)" fill="none" stroke="#565987" stroke-miterlimit="10" stroke-width="1"/>
      <path id="Caminho_668" data-name="Caminho 668" d="M902,669.461s7.892-4.005,9.932,1.012" transform="translate(-449.282 -346.784)" fill="none" stroke="#565987" stroke-miterlimit="10" stroke-width="1"/>
      <path id="Caminho_669" data-name="Caminho 669" d="M933.065,686.255s-5.922-.474-6.035,2.363" transform="translate(-460.838 -355.222)" fill="none" stroke="#565987" stroke-miterlimit="10" stroke-width="1"/>
      <path id="Caminho_670" data-name="Caminho 670" d="M903.651,737.275S882.429,694.1,876.6,695.047c-2.767.447-4.043,3.171-4.624,5.922a17.372,17.372,0,0,0,1.157,10.508C876.136,718.373,884.211,731.493,903.651,737.275Z" transform="translate(-435.262 -359.288)" fill="#536dfe"/>
      <path id="Caminho_671" data-name="Caminho 671" d="M881.15,710.28s22.277,32.3,26.583,33.722" transform="translate(-439.657 -366.327)" fill="none" stroke="#565987" stroke-miterlimit="10" stroke-width="1"/>
      <line id="Linha_1" data-name="Linha 1" x2="5.2" transform="translate(439.442 348.997)" fill="none" stroke="#565987" stroke-miterlimit="10" stroke-width="1"/>
      <line id="Linha_2" data-name="Linha 2" x2="8.151" y2="0.35" transform="translate(445.671 360.813)" fill="none" stroke="#565987" stroke-miterlimit="10" stroke-width="1"/>
      <line id="Linha_3" data-name="Linha 3" x1="0.883" y2="4.248" transform="translate(449.746 351.36)" fill="none" stroke="#565987" stroke-miterlimit="10" stroke-width="1"/>
      <line id="Linha_4" data-name="Linha 4" x1="0.156" y2="3.86" transform="translate(459.14 364.28)" fill="none" stroke="#565987" stroke-miterlimit="10" stroke-width="1"/>
      <path id="Caminho_672" data-name="Caminho 672" d="M929.94,737.275s21.221-43.175,27.052-42.228c2.772.447,4.048,3.171,4.624,5.922a17.372,17.372,0,0,1-1.157,10.508C957.428,718.373,949.353,731.493,929.94,737.275Z" transform="translate(-462.181 -359.288)" fill="#536dfe"/>
      <path id="Caminho_673" data-name="Caminho 673" d="M957.108,710.28S934.831,742.581,930.53,744" transform="translate(-462.453 -366.327)" fill="none" stroke="#565987" stroke-miterlimit="10" stroke-width="1"/>
      <line id="Linha_5" data-name="Linha 5" x1="5.2" transform="translate(491.5 348.997)" fill="none" stroke="#565987" stroke-miterlimit="10" stroke-width="1"/>
      <line id="Linha_6" data-name="Linha 6" x1="8.151" y2="0.35" transform="translate(482.321 360.813)" fill="none" stroke="#565987" stroke-miterlimit="10" stroke-width="1"/>
      <line id="Linha_7" data-name="Linha 7" x2="0.883" y2="4.248" transform="translate(485.513 351.36)" fill="none" stroke="#565987" stroke-miterlimit="10" stroke-width="1"/>
      <line id="Linha_8" data-name="Linha 8" x2="0.156" y2="3.86" transform="translate(476.846 364.28)" fill="none" stroke="#565987" stroke-miterlimit="10" stroke-width="1"/>
      <path id="Caminho_674" data-name="Caminho 674" d="M861.17,787.225a3.666,3.666,0,0,1-1.206-1.825,1.615,1.615,0,0,1,.845-1.857,2.357,2.357,0,0,1,2.229.786,2.957,2.957,0,0,0,2.153,1.05,3.322,3.322,0,0,1-1.023-3.1,1.3,1.3,0,0,1,.285-.624c.431-.463,1.211-.264,1.728.1,1.615,1.152,2.094,3.381,2.1,5.383a10.18,10.18,0,0,0,0-2.218,2.278,2.278,0,0,1,.834-1.96,2.5,2.5,0,0,1,1.27-.3,2.638,2.638,0,0,1,2.062.587,2.05,2.05,0,0,1-.081,2.53,7.884,7.884,0,0,1-2.153,1.707,4.792,4.792,0,0,0-1.523,1.453,1.886,1.886,0,0,0-.113.258H863.97a12.75,12.75,0,0,1-2.8-1.97Z" transform="translate(-429.852 -399.155)" fill="#536dfe"/>
      <path id="Caminho_675" data-name="Caminho 675" d="M1011.391,754.948a3.666,3.666,0,0,1-1.206-1.825,1.615,1.615,0,0,1,.84-1.852,2.354,2.354,0,0,1,2.234.781,3.1,3.1,0,0,0,2.153,1.077,3.322,3.322,0,0,1-1.023-3.1,1.3,1.3,0,0,1,.285-.624c.431-.463,1.211-.264,1.728.1,1.615,1.152,2.094,3.381,2.1,5.383a10.169,10.169,0,0,0,0-2.218,2.277,2.277,0,0,1,.835-1.96,2.5,2.5,0,0,1,1.27-.3,2.616,2.616,0,0,1,2.057.587,2.043,2.043,0,0,1-.081,2.53,7.86,7.86,0,0,1-2.153,1.707,4.792,4.792,0,0,0-1.524,1.453,1.888,1.888,0,0,0-.113.258h-4.614A12.748,12.748,0,0,1,1011.391,754.948Z" transform="translate(-499.202 -384.267)" fill="#536dfe"/>
      <path id="Caminho_676" data-name="Caminho 676" d="M961.326,787.225a3.676,3.676,0,0,1-1.211-1.825,1.615,1.615,0,0,1,.845-1.857,2.37,2.37,0,0,1,2.234.786,2.966,2.966,0,0,0,2.153,1.05,3.3,3.3,0,0,1-1.023-3.1,1.254,1.254,0,0,1,.285-.624c.431-.463,1.206-.264,1.723.1,1.615,1.152,2.1,3.381,2.1,5.383a10.163,10.163,0,0,0,.032-2.218,2.272,2.272,0,0,1,.829-1.96,2.519,2.519,0,0,1,1.27-.3,2.632,2.632,0,0,1,2.062.587,2.05,2.05,0,0,1-.081,2.53,7.941,7.941,0,0,1-2.153,1.707,4.682,4.682,0,0,0-1.523,1.453,1.386,1.386,0,0,0-.113.258h-4.619A12.715,12.715,0,0,1,961.326,787.225Z" transform="translate(-476.087 -399.155)" fill="#536dfe"/>
      <path id="Caminho_677" data-name="Caminho 677" d="M817.085,726.94s-1.733,2.261.8,5.68,4.619,6.3,3.768,8.436c0,0-3.817-6.347-6.923-6.46S813.667,730.741,817.085,726.94Z" transform="translate(-408.286 -374.019)" fill="#536dfe"/>
      <path id="Caminho_678" data-name="Caminho 678" d="M817.089,726.94a2.688,2.688,0,0,0-.355.711c-3.031,3.558-4.646,6.885-1.734,6.966,2.719.081,5.976,4.937,6.751,6.159a1.688,1.688,0,0,1-.091.28s-3.817-6.347-6.923-6.46S813.67,730.741,817.089,726.94Z" transform="translate(-408.289 -374.019)" opacity="0.1"/>
      <path id="Caminho_679" data-name="Caminho 679" d="M814.44,731.864c0,.8.092,1.443.2,1.443s.2-.646.2-1.443-.108-.42-.221-.42S814.44,731.067,814.44,731.864Z" transform="translate(-408.86 -376.057)" fill="#ffd037"/>
      <path id="Caminho_680" data-name="Caminho 680" d="M812.025,733.6c.7.377,1.308.608,1.362.511s-.468-.484-1.168-.867-.425-.1-.479,0S811.325,733.216,812.025,733.6Z" transform="translate(-407.548 -376.838)" fill="#ffd037"/>
      <path id="Caminho_681" data-name="Caminho 681" d="M833.327,726.94s1.728,2.261-.8,5.68-4.614,6.3-3.768,8.436c0,0,3.817-6.347,6.929-6.46S836.745,730.741,833.327,726.94Z" transform="translate(-415.381 -374.019)" fill="#536dfe"/>
      <path id="Caminho_682" data-name="Caminho 682" d="M833.407,726.94a2.777,2.777,0,0,1,.35.711c3.036,3.558,4.651,6.885,1.734,6.966-2.692.081-5.97,4.937-6.751,6.159a.9.9,0,0,0,.091.28s3.817-6.347,6.928-6.46S836.826,730.741,833.407,726.94Z" transform="translate(-415.462 -374.019)" opacity="0.1"/>
      <path id="Caminho_683" data-name="Caminho 683" d="M843.038,731.864c0,.8-.086,1.443-.2,1.443s-.2-.646-.2-1.443.113-.42.221-.42S843.038,731.067,843.038,731.864Z" transform="translate(-421.879 -376.057)" fill="#ffd037"/>
      <path id="Caminho_684" data-name="Caminho 684" d="M844.269,733.6c-.7.377-1.314.608-1.362.511s.468-.484,1.168-.867.425-.1.479,0S844.969,733.216,844.269,733.6Z" transform="translate(-422 -376.838)" fill="#ffd037"/>
      <path id="Caminho_685" data-name="Caminho 685" d="M826.915,750.367s-4.845-.151-6.3-1.19-7.445-2.277-7.806-.608-7.278,8.285-1.809,8.328,12.694-.851,14.153-1.739S826.915,750.367,826.915,750.367Z" transform="translate(-406.304 -383.627)" fill="#a8a8a8"/>
      <path id="Caminho_686" data-name="Caminho 686" d="M810.9,758.554c5.47.043,12.7-.851,14.158-1.739,1.1-.673,1.55-3.1,1.7-4.215h.161s-.307,3.9-1.76,4.791-8.689,1.782-14.153,1.739c-1.577,0-2.126-.576-2.094-1.405C809.13,758.231,809.727,758.543,810.9,758.554Z" transform="translate(-406.306 -385.865)" opacity="0.2"/>
      <ellipse id="Elipse_96" data-name="Elipse 96" cx="18.691" cy="2.762" rx="18.691" ry="2.762" transform="translate(71.371 377.357)" fill="#536dfe" opacity="0.1"/>
      <ellipse id="Elipse_97" data-name="Elipse 97" cx="18.691" cy="2.762" rx="18.691" ry="2.762" transform="translate(116.629 402.148)" fill="#536dfe" opacity="0.1"/>
      <ellipse id="Elipse_98" data-name="Elipse 98" cx="12.377" cy="1.384" rx="12.377" ry="1.384" transform="translate(322.616 338.93)" fill="#536dfe" opacity="0.1"/>
      <ellipse id="Elipse_99" data-name="Elipse 99" cx="12.377" cy="1.384" rx="12.377" ry="1.384" transform="translate(264.76 378.735)" fill="#536dfe" opacity="0.1"/>
      <ellipse id="Elipse_100" data-name="Elipse 100" cx="12.377" cy="1.384" rx="12.377" ry="1.384" transform="translate(238.677 403.526)" fill="#536dfe" opacity="0.1"/>
    </g>
  </g>
</svg>
