<svg xmlns="http://www.w3.org/2000/svg" xmlns:xlink="http://www.w3.org/1999/xlink" width="553.957" height="1036.064" viewBox="0 0 553.957 1036.064">
  <defs>
    <linearGradient id="linear-gradient" x1="0.5" y1="1" x2="0.5" gradientUnits="objectBoundingBox">
      <stop offset="0" stop-color="gray" stop-opacity="0.251"/>
      <stop offset="0.54" stop-color="gray" stop-opacity="0.122"/>
      <stop offset="1" stop-color="gray" stop-opacity="0.102"/>
    </linearGradient>
  </defs>
  <g id="Grupo_45" data-name="Grupo 45" transform="translate(1.704 -814.915)">
    <path id="Caminho_544" data-name="Caminho 544" d="M-1.7,815.423s191.178-16.476,293.809,138.261,85.263,258.947,180,380.526,96.316,197.368,52.105,276.316S263.684,1721.052,219.474,1800-1.7,1871.979-1.7,1738.206Z" fill="#fff"/>
    <g id="undraw_version_control_9bpv_1_" data-name="undraw_version_control_9bpv (1)" transform="translate(57.997 1194.465)">
      <path id="Caminho_769" data-name="Caminho 769" d="M368.327,152.492c-28.551-.993-55.742-10.208-81.712-20.292s-51.684-21.259-79.551-26.6c-17.924-3.436-38.419-3.922-52.862,5.686-13.9,9.264-18.387,25.211-20.8,40.02-1.813,11.148-2.885,22.873,2.1,33.306,3.454,7.244,9.59,13.331,13.834,20.27,14.761,24.139,4.328,53.907-11.673,77.477-7.5,11.055-16.207,21.616-22,33.377s-8.47,25.255-3.406,37.263c5.025,11.911,16.993,20.839,29.953,27.126,26.332,12.767,57.348,16.424,87.619,18.493,66.974,4.583,134.309,2.6,201.46.613,24.854-.737,49.814-1.482,74.261-5.325,13.578-2.135,27.6-5.523,37.453-13.675,12.511-10.38,15.612-27.959,7.23-40.973C536.163,317.425,497.29,312,487.448,288.57c-5.413-12.895.146-27.262,8.007-39.222,16.869-25.661,45.142-48.168,46.633-77.5C543.111,151.707,529.52,131.533,508.5,122c-22.031-9.992-52.575-8.735-68.818,7.8C422.94,146.814,393.534,153.365,368.327,152.492Z" transform="translate(-96.918 -103.35)" fill="#536dfe" opacity="0.1"/>
      <path id="Caminho_770" data-name="Caminho 770" d="M294.724,492.185a16.741,16.741,0,0,0-1.765-4.6,16.115,16.115,0,0,0-2.889-3.163c-3.2-2.9-7.124-5.85-11.364-5.117a15.17,15.17,0,0,0-3.767,1.376c-.618.287-1.24.573-1.875.816a9.339,9.339,0,0,1-5.655.494c-.97-.26-1.875-.728-2.832-1.019a8.973,8.973,0,0,0-1.39-.3,23.663,23.663,0,0,0,2.687-1.416c4.755-2.912,8.549-8.174,8.02-13.8a22.79,22.79,0,0,0-1.473-5.492l-1.694-4.685a20.034,20.034,0,0,0-2.828-5.783,14.633,14.633,0,0,0-5.792-4.1c-4.7-2.042-9.833-2.762-14.9-3.459l-.353-.049V387.123a3.529,3.529,0,0,0-3.529-3.529h-6.661q-.441-2.7-.882-5.391c-.838-5.122-1.707-10.336-4.067-14.946-1.544-3.017-4-5.9-7.314-6.489a7.093,7.093,0,0,1-1.9-.441c-.971-.476-1.5-1.535-2.245-2.316-1.923-2.016-5.051-2.047-7.627-3.088-2.276-.9-4.138-2.607-6.211-3.917s-4.65-2.241-6.944-1.39a4.654,4.654,0,0,1-.049.5l-1.473-.679a16.231,16.231,0,0,1-4.482-2.7,12.875,12.875,0,0,1-3.189-5.766c-.071-.225-.137-.441-.207-.684a20.482,20.482,0,0,0,5.488-10.477l.357,1.16a7.7,7.7,0,0,0,.282.768,3.026,3.026,0,0,0,.882,1.248,1.569,1.569,0,0,0,.371.216,1.544,1.544,0,0,0,.379.1,1.412,1.412,0,0,0,.547-.04,2.087,2.087,0,0,0,1.323-1.226,2.647,2.647,0,0,0,.154-.538,2.779,2.779,0,0,0,.031-.335V326.7a.861.861,0,0,0-.022-.221v-.115a1.284,1.284,0,0,0-.044-.26c-.018-.084,0-.049,0-.071-.022-.11-.049-.225-.071-.335v-.084c0-.026-.04-.181-.062-.273s-.031-.119-.044-.181v-.026h0c-.044-.176-.084-.349-.124-.525a15.166,15.166,0,0,1-.243-4.658,49.883,49.883,0,0,1,1.262-6.771l.093-.4c.035-.154.071-.309.1-.468.071-.318.141-.635.207-.957h0l.159-.812.119-.724v-.093a20.916,20.916,0,0,0,.154-4.954h0a10.426,10.426,0,0,0-2.484-6.229c-1.107-1.231-2.567-2.14-3.6-3.432-.962-1.209-1.5-2.7-2.5-3.886-2.753-3.286-9.82-5.819-14.156-6.26-4.967-.5-12.992.768-17,3.7a16.426,16.426,0,0,0-3.529,4.129c-1.9,2.757-4.05,5.51-7.089,7.058-1.147.582-2.462,1.023-3.225,2.038a5.51,5.51,0,0,0-.86,2.285,45.31,45.31,0,0,0-.909,8.726h0V314a8.042,8.042,0,0,0,.688,3.189c.071.15.15.3.234.441l.053.093a17.549,17.549,0,0,1,1.412,2.4,3.185,3.185,0,0,1,.216.732,5.4,5.4,0,0,1-.124,1.932h0a1.7,1.7,0,0,1-.057.291l-.04.19a.372.372,0,0,1-.035.194c-.035.19-.066.379-.093.565h0a3.97,3.97,0,0,0,.1,1.526,2.007,2.007,0,0,0,.979,1.323,2.868,2.868,0,0,0,.794.247c.278.048.56.079.834.141a4.117,4.117,0,0,1,1.01.375,4.068,4.068,0,0,1,.851.547,4.858,4.858,0,0,1,.366.371,6.177,6.177,0,0,1,.626.856q.141.234.265.476a10.884,10.884,0,0,1,.754,1.994c.115.41.212.825.3,1.24.04.185.075.371.106.551s.062.366.088.547h0a1.284,1.284,0,0,0,.353-.071,2.384,2.384,0,0,0,1.213-1.72c.035-.124.066-.243.093-.362.1-.441.207-.926.309-1.39a20.456,20.456,0,0,0,8.051,8.867c.124.366.243.728.348,1.1.578,2,.856,4.089-.146,5.836a6.175,6.175,0,0,1-3.256,2.532,2.153,2.153,0,0,0-.728-.618c-1.16-.582-2.554.124-3.529.993-1.765,1.6-3.2,3.886-5.523,4.411a6.374,6.374,0,0,0-2.462.666,5.735,5.735,0,0,0-1.143,1.5,5.258,5.258,0,0,1-4.513,2.25c-.807-.04-1.765-.225-2.316.366-.41.441-.441,1.138-.882,1.557-.591.582-1.562.3-2.387.265a4.769,4.769,0,0,0-3.926,2.25,14.7,14.7,0,0,0-1.765,4.411v.026a3.155,3.155,0,0,0-.322.269,4.654,4.654,0,0,0-.975,1.579,75.377,75.377,0,0,0-6.22,25.666,2.647,2.647,0,0,1-.282,1.244,6.12,6.12,0,0,1-.648.706,2.475,2.475,0,0,0,.41,3.529,2.778,2.778,0,0,1,.472-.626c-.049.2-.093.4-.124.582a15.656,15.656,0,0,0-.049,3.882q.626,9.193,1.266,18.374c.119,1.734.238,3.463.4,5.192q.463,5.02,1.323,10a4.31,4.31,0,0,0,.1.441c-3.6,1.143-6.794,3.207-8.139,6.652-.468,1.191-.679,2.488-1.253,3.631-.631,1.253-1.668,2.254-2.356,3.481a10.58,10.58,0,0,0-.807,7.058,23.445,23.445,0,0,0,6.617,12.083h-.441a6.9,6.9,0,0,0-3.013,1.081,20.469,20.469,0,0,0-9.489,20.76,8.906,8.906,0,0,0,1.826,4.323,6.843,6.843,0,0,0,3.212,1.968,11.159,11.159,0,0,0,2.369.441c5.426.441,10.68-2.073,16.119-2.285a43.228,43.228,0,0,1,5.4.251q3.931.327,7.874.415c4.275.1,6.679-1.037,9.405-4.231a11.515,11.515,0,0,0,1.663-2.62c2.32-.132,4.883-.335,6.736-.485l.026.256a3.519,3.519,0,0,0,.962,2.453,3.357,3.357,0,0,0,1.323.543c4.456,1.094,8.964,2.206,13.552,2.206a57.214,57.214,0,0,0,6.436-.494l8.06-.931A40.143,40.143,0,0,1,201.489,496c2.329.79,4.5,1.963,6.78,2.894,5.294,2.144,10.984,2.911,16.622,3.661a3.378,3.378,0,0,0,2.775-.441c.918-.882.613-2.356.353-3.591-.106-.507-.185-1.015-.247-1.526a77.316,77.316,0,0,1,11.134,3.864l.631.278c.185.962,1.072,1.729,1.923,2.766a7.054,7.054,0,0,0,.975,1.209,3.252,3.252,0,0,0,1.4.5,65.208,65.208,0,0,0,18.056.816,18.469,18.469,0,0,1,3.723-.128,16.138,16.138,0,0,1,2.691.6l5.1,1.465c3.763,1.076,7.614,2.166,11.518,1.923a14.733,14.733,0,0,0,2.351-.34,11.048,11.048,0,0,0,7.446-5.214C296.819,500.973,295.853,496.332,294.724,492.185Z" transform="translate(-96.769 -204.788)" fill="url(#linear-gradient)"/>
      <path id="Caminho_771" data-name="Caminho 771" d="M204.291,739.11c-.931-2.117-1.813-4.553-.882-6.67a5.668,5.668,0,0,1,2.934-2.757,14.115,14.115,0,0,1,3.97-.979,55.414,55.414,0,0,1,12.908-.177c.313,2.479-.348,4.994-.918,7.389-.516,2.206-.812,2.532-3.088,2.647C217.741,738.643,204.639,739.891,204.291,739.11Z" transform="translate(-149.138 -452.573)" fill="#fbbebe"/>
      <ellipse id="Elipse_109" data-name="Elipse 109" cx="63.083" cy="17.646" rx="63.083" ry="17.646" transform="translate(31.353 236.962)" fill="#464353"/>
      <ellipse id="Elipse_110" data-name="Elipse 110" cx="63.083" cy="17.646" rx="63.083" ry="17.646" transform="translate(31.353 236.962)" opacity="0.1"/>
      <path id="Caminho_772" data-name="Caminho 772" d="M266.314,423.831a19.626,19.626,0,0,1-10.12,9.193,25.4,25.4,0,0,1-8.033,1.526,22.883,22.883,0,0,1-8.867-1.081,20.285,20.285,0,0,1-9.264-7.424,45.32,45.32,0,0,1-5.377-10.737c-.741-1.954-1.447-4.036-1.1-6.1,2.272-.516,4.76-1.275,5.933-3.291,1-1.729.723-3.8.146-5.779-.163-.56-.353-1.116-.543-1.65-.441-1.279-1.963-3.71-.882-4.8.675-.693,3.5-1.046,4.478-1.5,3-1.385,5.775-3.388,9.074-4.045,2.854-.569,5.8-.035,8.651.556a2.846,2.846,0,0,1,1.068.384,2.568,2.568,0,0,1,.794,1.191c.812,1.976,1.288,4.16,1.941,6.22a12.717,12.717,0,0,0,3.189,5.713,16.28,16.28,0,0,0,4.486,2.673l3.909,1.791a5.14,5.14,0,0,1,1.848,1.2,4.681,4.681,0,0,1,.882,2.4A22.419,22.419,0,0,1,266.314,423.831Z" transform="translate(-160.566 -262.375)" fill="#fbbebe"/>
      <path id="Caminho_773" data-name="Caminho 773" d="M259.732,396.493a20.292,20.292,0,0,1-24.558,3.644c-.163-.56-.353-1.116-.543-1.65-.441-1.279-1.963-3.71-.882-4.8.675-.693,3.5-1.046,4.478-1.5,3-1.385,5.775-3.388,9.074-4.045,2.854-.569,5.8-.035,8.651.556a2.846,2.846,0,0,1,1.068.384,2.568,2.568,0,0,1,.794,1.191C258.6,392.25,259.079,394.433,259.732,396.493Z" transform="translate(-166.102 -262.375)" opacity="0.1"/>
      <circle id="Elipse_111" data-name="Elipse 111" cx="20.292" cy="20.292" r="20.292" transform="translate(58.704 98.885)" fill="#fbbebe"/>
      <path id="Caminho_774" data-name="Caminho 774" d="M267.917,468.729l-1.668-10.1c-.843-5.069-1.712-10.234-4.067-14.8-1.548-2.991-4.006-5.841-7.319-6.432a7.081,7.081,0,0,1-1.906-.441c-.971-.468-1.5-1.518-2.245-2.294-1.923-1.994-5.055-2.025-7.632-3.039-2.276-.882-4.138-2.581-6.211-3.878s-4.654-2.206-6.948-1.376c-.371,3.948-.763,7.985-2.44,11.58a17.328,17.328,0,0,1-26.142,6.511,21.772,21.772,0,0,1-7.623-12.3c-.287-1.165-.613-2.5-1.685-3.035-1.16-.582-2.554.124-3.529.979-1.765,1.584-3.207,3.851-5.527,4.385a6.448,6.448,0,0,0-2.462.662,5.6,5.6,0,0,0-1.147,1.487,5.294,5.294,0,0,1-4.513,2.232c-.807-.04-1.765-.225-2.316.362-.41.441-.441,1.129-.882,1.54-.6.578-1.562.3-2.391.265a4.824,4.824,0,0,0-3.931,2.206,14.229,14.229,0,0,0-1.765,4.35c4.822,10.737,9.233,21.488,14.055,32.225a2.749,2.749,0,0,1,.349,1.323,3.225,3.225,0,0,1-.6,1.323c-2.365,3.8-2.29,8.576-2.029,13.04s.578,9.18-1.416,13.181c-.543,1.1-1.248,2.1-1.765,3.2-1.209,2.488-1.645,10.446-.94,13.119h99.733c-1.9-5.227-1.178-15.718-.781-21.267.278-3.882-.441-7.76-.75-11.642C268.751,484.165,269.227,476.643,267.917,468.729Z" transform="translate(-127.095 -283.694)" fill="#536dfe"/>
      <path id="Caminho_775" data-name="Caminho 775" d="M146.064,541.395a15.617,15.617,0,0,0-.053,3.851l1.266,18.206c.119,1.716.238,3.428.4,5.139.3,3.322.759,6.617,1.323,9.908a1.765,1.765,0,0,0,1.809,1.716,64.619,64.619,0,0,0,17.041.812c8.69-.485,17.368-1.592,26.071-1.4,2.241.049,4.853,0,6.211-1.765s.569-4.619-1.2-6.044-4.182-1.765-6.458-1.765c-3.013-.031-6.026.4-9.03.221a44.736,44.736,0,0,1-8.126-1.5l-7.5-1.866a28.911,28.911,0,0,1,1.972-6.569c1.473-3.825,2.85-7.777,2.876-11.875s-1.518-8.408-4.875-10.755c-2.762-1.928-6.317-2.285-9.683-2.206-2.448.071-6.679-.516-8.915.441C147.418,536.723,146.394,539.661,146.064,541.395Z" transform="translate(-117.229 -344.802)" fill="#fbbebe"/>
      <path id="Caminho_776" data-name="Caminho 776" d="M310.931,642.9a9.505,9.505,0,0,1,4.663-.146c5.069.693,10.212,1.4,14.911,3.428a14.641,14.641,0,0,1,5.8,4.063,20.1,20.1,0,0,1,2.828,5.735l1.694,4.641a22.34,22.34,0,0,1,1.478,5.439c.529,5.554-3.269,10.79-8.046,13.675s-10.4,3.913-15.881,4.989-10.98,2.267-16.437,3.529a66.168,66.168,0,0,1-7.733,1.522c-5.841.662-11.946-.313-17.5,1.619a66.563,66.563,0,0,1-6.661,2.453,41.422,41.422,0,0,1-4.605.7l-10.5,1.2a57.306,57.306,0,0,1-6.441.494c-4.588,0-9.1-1.085-13.556-2.17a2.582,2.582,0,0,1-2.285-2.964q-.675-5.916-1.182-11.845a5.938,5.938,0,0,1,.516-3.754c.882-1.323,2.6-1.738,4.173-1.994a108.915,108.915,0,0,1,20.151-1.4c2.563-2.563,6.789-2.576,10.146-3.97a30.183,30.183,0,0,0,3.578-1.945,46.76,46.76,0,0,1,19.644-6.207,18.284,18.284,0,0,0,4.019-.573c2.6-.807,4.967-3,7.636-2.466.331-.913.56-2.135,1.323-2.762.379-.322.847-.538,1.2-.882a3.619,3.619,0,0,0,.693-2.96,8.668,8.668,0,0,1-.088-3.123,4.316,4.316,0,0,1,.49-1.09A5.963,5.963,0,0,1,310.931,642.9Z" transform="translate(-165.004 -404.682)" fill="#464353"/>
      <path id="Caminho_777" data-name="Caminho 777" d="M310.931,642.9a9.505,9.505,0,0,1,4.663-.146c5.069.693,10.212,1.4,14.911,3.428a14.641,14.641,0,0,1,5.8,4.063,20.1,20.1,0,0,1,2.828,5.735l1.694,4.641a22.34,22.34,0,0,1,1.478,5.439c.529,5.554-3.269,10.79-8.046,13.675s-10.4,3.913-15.881,4.989-10.98,2.267-16.437,3.529a66.168,66.168,0,0,1-7.733,1.522c-5.841.662-11.946-.313-17.5,1.619a66.563,66.563,0,0,1-6.661,2.453,41.422,41.422,0,0,1-4.605.7l-10.5,1.2a57.306,57.306,0,0,1-6.441.494c-4.588,0-9.1-1.085-13.556-2.17a2.582,2.582,0,0,1-2.285-2.964q-.675-5.916-1.182-11.845a5.938,5.938,0,0,1,.516-3.754c.882-1.323,2.6-1.738,4.173-1.994a108.915,108.915,0,0,1,20.151-1.4c2.563-2.563,6.789-2.576,10.146-3.97a30.183,30.183,0,0,0,3.578-1.945,46.76,46.76,0,0,1,19.644-6.207,18.284,18.284,0,0,0,4.019-.573c2.6-.807,4.967-3,7.636-2.466.331-.913.56-2.135,1.323-2.762.379-.322.847-.538,1.2-.882a3.619,3.619,0,0,0,.693-2.96,8.668,8.668,0,0,1-.088-3.123,4.316,4.316,0,0,1,.49-1.09A5.963,5.963,0,0,1,310.931,642.9Z" transform="translate(-165.004 -404.682)" opacity="0.05"/>
      <path id="Caminho_778" data-name="Caminho 778" d="M156.171,730.551c-2.731,3.163-5.135,4.292-9.41,4.191q-3.944-.093-7.879-.41a44.208,44.208,0,0,0-5.4-.251c-5.444.212-10.7,2.7-16.128,2.267a11.43,11.43,0,0,1-2.369-.441,6.9,6.9,0,0,1-3.216-1.95,8.786,8.786,0,0,1-1.826-4.284,20.18,20.18,0,0,1,9.493-20.562,6.961,6.961,0,0,1,3.017-1.072,7.151,7.151,0,0,1,3.053.671l.066.026a23.085,23.085,0,0,1,7.561,5.047,4.263,4.263,0,0,0,1.156.931,3.971,3.971,0,0,0,1.363.256l5.8.366a13.736,13.736,0,0,1,2.912.4,23.14,23.14,0,0,1,3.062,1.323c3.119,1.394,6.577,1.765,9.948,2.3a1.486,1.486,0,0,1,.882.353,1.38,1.38,0,0,1,.273.573,11.254,11.254,0,0,1-2.356,10.261Z" transform="translate(-96.959 -441.288)" fill="#3f3d56"/>
      <path id="Caminho_779" data-name="Caminho 779" d="M125.573,708.747a34.806,34.806,0,0,0-5.8,7.252,36.3,36.3,0,0,0-4.738,14.355,26.644,26.644,0,0,0-.049,5.563,6.894,6.894,0,0,1-3.216-1.95,8.787,8.787,0,0,1-1.826-4.284,20.18,20.18,0,0,1,9.493-20.562,6.961,6.961,0,0,1,3.017-1.072,7.152,7.152,0,0,1,3.053.671Z" transform="translate(-96.959 -441.294)" opacity="0.1"/>
      <path id="Caminho_780" data-name="Caminho 780" d="M383.083,733.459c3.242-.088,6.882-.251,9.264,1.932,2.272,2.065,2.572,5.47,2.722,8.536l.172,3.56a7.111,7.111,0,0,1-.34,3.212c-.776,1.765-2.907,2.616-4.853,2.514a16.321,16.321,0,0,1-5.51-1.72,77.51,77.51,0,0,0-15-4.725q.251-3.692.838-7.349c.269-1.69.313-4.517,1.443-5.92,1.2-1.482,2.753-.679,4.376-.406a35.135,35.135,0,0,0,6.886.366Z" transform="translate(-242.203 -455.03)" fill="#fbbebe"/>
      <path id="Caminho_781" data-name="Caminho 781" d="M160.247,641.074c0,.441-.693,0-.754-.472-.485-3.569-3.317-6.511-6.617-7.94s-7.058-1.5-10.631-1.165c-5.4.512-11.47,2.581-13.446,7.632-.468,1.182-.679,2.462-1.253,3.6-.635,1.244-1.672,2.237-2.36,3.445a10.48,10.48,0,0,0-.807,7.018c1.151,6.308,5.466,11.7,10.693,15.44s11.337,5.969,17.429,7.98a302.255,302.255,0,0,0,49.408,11.8,47.489,47.489,0,0,1,8.064,1.663c2.329.781,4.508,1.95,6.785,2.867,5.294,2.126,10.989,2.885,16.631,3.631a3.412,3.412,0,0,0,2.775-.441c.918-.851.613-2.334.353-3.556A19.123,19.123,0,0,1,238.77,679c.944-1.588,2.17-3.216,1.994-5.055-.212-2.144-2.347-3.661-4.473-4.006s-4.288.163-6.423.441a3.442,3.442,0,0,1-2.184-.216,4.362,4.362,0,0,1-.856-.759,9.674,9.674,0,0,0-11.267-1.575c-.79.441-1.985-.543-2.806-.913l-9.277-4.2C192.821,657.9,182.11,653.055,170.835,650a6.856,6.856,0,0,1-2.514-1.046c-.56-.441-.962-1.041-1.478-1.531-1.125-1.063-2.691-1.487-4.041-2.241S159.939,642.587,160.247,641.074Z" transform="translate(-105.055 -398.417)" fill="#464353"/>
      <path id="Caminho_782" data-name="Caminho 782" d="M460.193,752.062a11.041,11.041,0,0,1-7.446,5.166,14.783,14.783,0,0,1-2.356.335c-3.9.243-7.76-.838-11.523-1.906l-5.108-1.438a16.121,16.121,0,0,0-2.691-.6,18.46,18.46,0,0,0-3.723.128,65.99,65.99,0,0,1-18.087-.812,3.19,3.19,0,0,1-1.4-.5,6.947,6.947,0,0,1-.975-1.2c-1.39-1.672-2.885-2.647-1.24-4.853.948-1.279,2.709-1.919,3.445-3.388s.265-3.556-.172-5.073c-.6-2.1-2.554-3-3.256-4.923a3.466,3.466,0,0,1,1.685-3.926,7,7,0,0,1,4.5-.648c1.531.2,3.031.635,4.57.754,4.526.362,9.154-1.972,13.5-.657.957.291,1.862.754,2.832,1.01a9.419,9.419,0,0,0,5.66-.49c.635-.238,1.257-.525,1.875-.807a15.1,15.1,0,0,1,3.772-1.363c4.239-.728,8.17,2.206,11.368,5.069a16.073,16.073,0,0,1,2.889,3.132,15.724,15.724,0,0,1,1.765,4.557C461.247,743.716,462.213,748.312,460.193,752.062Z" transform="translate(-261.978 -451.753)" fill="#3f3d56"/>
      <path id="Caminho_783" data-name="Caminho 783" d="M505.011,752.029a11.041,11.041,0,0,1-7.446,5.166,14.421,14.421,0,0,0,1.566-7.57,23.9,23.9,0,0,0-4.46-11.633,41.2,41.2,0,0,0-4.914-5.986c-1.4-1.412-3.128-2.532-4.636-3.825a15.1,15.1,0,0,1,3.772-1.363c4.239-.728,8.17,2.206,11.368,5.069a16.075,16.075,0,0,1,2.889,3.132,15.722,15.722,0,0,1,1.765,4.557C506.065,743.682,507.031,748.279,505.011,752.029Z" transform="translate(-306.796 -451.719)" opacity="0.1"/>
      <path id="Caminho_784" data-name="Caminho 784" d="M151.968,472.045a4.566,4.566,0,0,0-.979,1.566,74.05,74.05,0,0,0-6.22,25.418,2.541,2.541,0,0,1-.287,1.231,5.385,5.385,0,0,1-.648.7,2.435,2.435,0,0,0,.415,3.529c.728-1.372,2.47-1.817,4.019-1.937,7.416-.587,14.659,2.863,22.1,2.6-.525-1.813-1.279-3.556-1.707-5.391-1.892-8.148,2.828-17.019-.066-24.867a6.412,6.412,0,0,0-3.066-3.8,8.166,8.166,0,0,0-1.963-.521c-1.879-.34-5.62-1.791-7.438-1.209-.671.216-.935.847-1.491,1.226C153.789,471.136,152.669,471.335,151.968,472.045Z" transform="translate(-115.744 -307.827)" fill="#536dfe"/>
      <rect id="Retângulo_124" data-name="Retângulo 124" width="98.374" height="62.642" rx="7.97" transform="translate(51.866 180.275)" fill="#3f3d56"/>
      <circle id="Elipse_112" data-name="Elipse 112" cx="2.647" cy="2.647" r="2.647" transform="translate(98.186 208.949)" fill="#fff"/>
      <path id="Caminho_785" data-name="Caminho 785" d="M208.391,294.1a16.167,16.167,0,0,0-3.529,4.089c-1.9,2.731-4.054,5.457-7.094,6.979-1.151.578-2.466,1.015-3.229,2.02a5.444,5.444,0,0,0-.86,2.263,44.843,44.843,0,0,0-.909,8.646,9.609,9.609,0,0,0,.7,4.253c.6,1.235,1.694,2.281,1.919,3.626a10.986,10.986,0,0,1-.353,3.15,2.666,2.666,0,0,0,1.076,2.806,6.523,6.523,0,0,0,1.632.384c2.934.653,3.917,4.094,4.363,6.939,1-.057,1.447-1.2,1.654-2.131l3.057-13.591c.331-1.473.882-3.181,2.351-3.7a7.529,7.529,0,0,1,3.088.066c4.036.331,7.451-2.788,11.4-3.648A14.556,14.556,0,0,1,227.5,316c3.114.154,6.736,1.434,7.4,4.341.11.472.176,1.037.618,1.27s.9.035,1.368,0c1.976-.2,3.141,2.025,3.71,3.842l2.073,6.617c.309,1,.829,2.179,1.915,2.307a2,2,0,0,0,2-1.765,7.73,7.73,0,0,0-.393-2.859c-.975-4.345.516-8.792,1.425-13.146s1.072-9.357-1.976-12.709c-1.107-1.213-2.563-2.117-3.6-3.4-.962-1.2-1.5-2.673-2.5-3.851-2.757-3.251-9.829-5.761-14.165-6.176C220.425,289.938,212.4,291.2,208.391,294.1Z" transform="translate(-143.414 -207.861)" fill="#3f3d56"/>
      <g id="Grupo_41" data-name="Grupo 41" transform="translate(49.361 102.189)" opacity="0.1">
        <path id="Caminho_786" data-name="Caminho 786" d="M247.451,359.828c-1.085-.132-1.606-1.323-1.915-2.307q-1.037-3.313-2.073-6.617c-.569-1.822-1.734-4.045-3.71-3.842-.463.049-.962.229-1.368,0s-.507-.8-.618-1.271c-.662-2.911-4.283-4.186-7.4-4.341a14.749,14.749,0,0,0-3.842.251c-3.948.882-7.363,3.97-11.4,3.648a7.611,7.611,0,0,0-3.088-.062c-1.487.512-2.02,2.206-2.351,3.7l-3.057,13.587c-.207.935-.657,2.078-1.654,2.131-.441-2.841-1.429-6.282-4.363-6.935a6.934,6.934,0,0,1-1.632-.384,1.914,1.914,0,0,1-.851-.948c-.079.41-.172.82-.225,1.231a2.677,2.677,0,0,0,1.076,2.806,6.524,6.524,0,0,0,1.632.384c2.934.653,3.917,4.094,4.363,6.939,1-.057,1.447-1.2,1.654-2.131l3.057-13.591c.331-1.473.882-3.181,2.351-3.7a7.529,7.529,0,0,1,3.088.066c4.036.331,7.451-2.788,11.4-3.648a14.556,14.556,0,0,1,3.842-.256c3.114.154,6.736,1.434,7.4,4.341.11.472.176,1.037.618,1.27s.9.035,1.368,0c1.976-.2,3.141,2.025,3.71,3.842q1.032,3.313,2.073,6.617c.309,1,.829,2.179,1.915,2.307a2,2,0,0,0,2-1.765,5.991,5.991,0,0,0-.265-2.342A1.822,1.822,0,0,1,247.451,359.828Z" transform="translate(-195.626 -338.587)"/>
        <path id="Caminho_787" data-name="Caminho 787" d="M195.4,356.163c-.225-1.345-1.323-2.391-1.919-3.626a7.257,7.257,0,0,1-.653-2.647c0,.494-.044.988-.049,1.487a9.61,9.61,0,0,0,.7,4.253c.49,1,1.3,1.884,1.7,2.9a6.644,6.644,0,0,0,.216-2.369Z" transform="translate(-192.78 -343.321)"/>
        <path id="Caminho_788" data-name="Caminho 788" d="M314.935,338.454c-.8,3.847-2.056,7.764-1.667,11.62a75.644,75.644,0,0,1,1.667-8.532,22.5,22.5,0,0,0,.512-6.542A26.969,26.969,0,0,1,314.935,338.454Z" transform="translate(-260.075 -335)"/>
      </g>
      <g id="Grupo_42" data-name="Grupo 42" transform="translate(132.07 54.109)" opacity="0.8">
        <line id="Linha_9" data-name="Linha 9" x2="275.739" transform="translate(13.525 74.037)" fill="none" stroke="#3f3d56" stroke-miterlimit="10" stroke-width="3"/>
        <path id="Caminho_789" data-name="Caminho 789" d="M466.46,363.44s13.186,1.831,6.357-12.317,18.528-11.47,18.528-11.47" transform="translate(-428.438 -289.408)" fill="none" stroke="#3f3d56" stroke-miterlimit="10" stroke-width="3"/>
        <path id="Caminho_790" data-name="Caminho 790" d="M665.53,393.733s13.186-1.826,6.357,12.321,18.528,11.47,18.528,11.47" transform="translate(-539.69 -319.7)" fill="none" stroke="#3f3d56" stroke-miterlimit="10" stroke-width="3"/>
        <path id="Caminho_791" data-name="Caminho 791" d="M920.635,393.733s-13.19-1.826-6.357,12.321-18.528,11.47-18.528,11.47" transform="translate(-668.351 -319.7)" fill="none" stroke="#3f3d56" stroke-miterlimit="10" stroke-width="3"/>
        <line id="Linha_10" data-name="Linha 10" x1="72.757" transform="translate(154.642 97.818)" fill="none" stroke="#3f3d56" stroke-miterlimit="10" stroke-width="3"/>
        <circle id="Elipse_113" data-name="Elipse 113" cx="8.051" cy="8.051" r="8.051" transform="translate(5.475 65.986)" fill="#536dfe"/>
        <circle id="Elipse_114" data-name="Elipse 114" cx="8.051" cy="8.051" r="8.051" transform="translate(54.993 42.08)" fill="#3acc6c"/>
        <circle id="Elipse_115" data-name="Elipse 115" cx="8.051" cy="8.051" r="8.051" transform="translate(54.993 65.986)" fill="#536dfe"/>
        <circle id="Elipse_116" data-name="Elipse 116" cx="8.051" cy="8.051" r="8.051" transform="translate(86.949 65.986)" fill="#536dfe"/>
        <circle id="Elipse_117" data-name="Elipse 117" cx="8.051" cy="8.051" r="8.051" transform="translate(142.806 89.648)" fill="#ff6584"/>
        <circle id="Elipse_118" data-name="Elipse 118" cx="8.051" cy="8.051" r="8.051" transform="translate(185.014 89.648)" fill="#ff6584"/>
        <circle id="Elipse_119" data-name="Elipse 119" cx="8.051" cy="8.051" r="8.051" transform="translate(182.813 65.986)" fill="#536dfe"/>
        <circle id="Elipse_120" data-name="Elipse 120" cx="8.051" cy="8.051" r="8.051" transform="translate(279.175 65.986)" fill="#536dfe"/>
        <circle id="Elipse_121" data-name="Elipse 121" cx="8.051" cy="8.051" r="8.051" transform="translate(239.755 65.986)" fill="#536dfe"/>
        <rect id="Retângulo_125" data-name="Retângulo 125" width="27.011" height="18.616" fill="#536dfe"/>
        <rect id="Retângulo_126" data-name="Retângulo 126" width="27.011" height="18.616" transform="translate(49.637)" fill="#3acc6c"/>
        <rect id="Retângulo_127" data-name="Retângulo 127" width="27.011" height="18.616" transform="translate(137.239)" fill="#ff6584"/>
      </g>
      <g id="Grupo_43" data-name="Grupo 43" transform="translate(0.003 128.225)" opacity="0.1">
        <path id="Caminho_792" data-name="Caminho 792" d="M118.984,397.854S86,383.985,81.677,409.01c0,0-2.254,3.9.882,7.12,0,0,.675-1.729,3.86.057a16.4,16.4,0,0,0,3.6,1.465,8.1,8.1,0,0,0,5.126-.273h0s10.848-.587,19.97-14.778c0,0,3.913-2.417,4.107-3.326l-6.538.441s.5,4.786-2.206,7.658c0,0,2.4-7.429,1.248-7.636-.234-.044-3.454.379-3.454.379s.834,8.324-3.529,12.63c0,0,4.05-8.465,2.29-12.48l-4.826.931s1.323,8.757-3.45,13.847c0,0,3.926-9,2.409-13.569l-4.619,1.553s1.112,8.563-2.881,12.793c0,0,3.485-10.856,1.844-12.352,0,0-4.156,1.685-5.042,2.647,0,0,.657,6.176-1.879,8.4,0,0,1.557-7.5.785-7.808,0,0-4.826,3.635-6.3,6.772a18.3,18.3,0,0,1,5.7-7.5,10.155,10.155,0,0,0-5.735.807s1.668-3.181,6.9-1.672c0,0,3.878-2.687,4.654-2.647,0,0-4.954-2.206-8.532-1.932,0,0,3.838-2.206,9.74,1.478l4.61-1.663s-6.4-3.278-9.6-3.264c0,0,4.261-1.65,10.795,2.938l4.72-.962s-5.294-3.242-8.863-4c0,0,4.279-.679,10.226,3.772l3.225-.269s-3.9-2.3-5.086-2.863-1.129-.922-1.129-.922a15.391,15.391,0,0,1,7.561,3.609S118.958,398.264,118.984,397.854Z" transform="translate(-80.893 -394.021)" fill="#536dfe"/>
      </g>
      <g id="Grupo_44" data-name="Grupo 44" transform="translate(4.836 89.31)" opacity="0.1">
        <path id="Caminho_793" data-name="Caminho 793" d="M123.89,323.692s-11.681-27.029-28.511-14.633a5.008,5.008,0,0,0-3.529,4.72s1.385-.644,2.263,2.237a13.28,13.28,0,0,0,1.323,2.916,6.617,6.617,0,0,0,3.2,2.757h0s6.78,5.832,20.292,2.6c0,0,3.706.79,4.336.366l-4.129-3.472s-2.431,3.132-5.686,3.282c0,0,5.66-3.044,5.1-3.825-.115-.159-2.272-1.738-2.272-1.738s-4.244,5.417-9.264,5.5c0,0,7.23-2.726,8.47-6.11l-3.4-2.206s-4.283,5.96-10.018,6.269c0,0,7.46-3.11,9.162-6.692l-3.631-1.707s-4.217,5.735-8.986,5.951c0,0,8.258-4.464,8.13-6.286,0,0-3.428-1.368-4.517-1.288,0,0-3.119,4.036-5.9,3.922,0,0,5.2-3.569,4.919-4.191,0,0-4.941-.591-7.6.441a15.054,15.054,0,0,1,7.654-1.209,8.294,8.294,0,0,0-3.86-2.779s2.806-.94,5.055,2.934c0,0,3.829.618,4.279,1.076,0,0-1.681-4.142-3.97-6.008,0,0,3.529.882,4.941,6.427l3.688,1.637s-1.932-5.594-3.847-7.407c0,0,3.472,1.447,4.742,7.9l3.353,2.113s-1.3-4.941-2.987-7.424c0,0,2.929,2.038,3.922,8.068l2.073,1.676s-1.01-3.591-1.394-4.6-.146-1.191-.146-1.191a12.639,12.639,0,0,1,2.422,6.476S123.638,323.917,123.89,323.692Z" transform="translate(-91.85 -305.806)" fill="#536dfe"/>
      </g>
    </g>
  </g>
</svg>
