<svg xmlns="http://www.w3.org/2000/svg" xmlns:xlink="http://www.w3.org/1999/xlink" width="551.689" height="700.316" viewBox="0 0 551.689 700.316">
  <defs>
    <linearGradient id="linear-gradient" x1="0.5" y1="1" x2="0.5" gradientUnits="objectBoundingBox">
      <stop offset="0" stop-color="gray" stop-opacity="0.251"/>
      <stop offset="0.54" stop-color="gray" stop-opacity="0.122"/>
      <stop offset="1" stop-color="gray" stop-opacity="0.102"/>
    </linearGradient>
  </defs>
  <g id="clientes" transform="translate(38.234 -2742.312)">
    <path id="Caminho_687" data-name="Caminho 687" d="M-38.234,2829.312s182.977,40.965,286.755,147.474S491.579,3116.066,497.041,3198s51.889,218.48-40.965,232.135-486.117,259.444-480.655-76.468S-38.234,2829.312-38.234,2829.312Z" transform="translate(0 -87)" fill="#fff"/>
    <g id="undraw_businessman_97x4" transform="translate(118 2991.21)">
      <path id="Caminho_688" data-name="Caminho 688" d="M388.782,124.531c-18.771-.651-36.648-6.708-53.709-13.329s-33.99-13.968-52.309-17.5c-11.785-2.258-25.259-2.58-34.754,3.736-9.134,6.08-12.09,16.575-13.674,26.313-1.176,7.327-1.9,15.038,1.376,21.9,2.27,4.763,6.3,8.766,9.091,13.329,9.707,15.87,2.846,35.44-7.672,50.937-4.932,7.268-10.656,14.2-14.462,21.954s-5.571,16.6-2.239,24.5c3.3,7.841,11.169,13.7,19.692,17.834,17.312,8.393,37.71,10.8,57.6,12.153,44.033,3.011,88.3,1.709,132.449.392,16.336-.486,32.747-.976,48.82-3.5,8.927-1.4,18.143-3.63,24.624-9.017,8.233-6.825,10.264-18.379,4.751-26.937-9.248-14.352-34.809-17.92-41.274-33.323-3.556-8.48.1-17.924,5.265-25.784,11.091-16.858,29.677-31.669,30.657-50.965.674-13.239-8.264-26.5-22.079-32.77-14.482-6.567-34.566-5.739-45.249,5.132C424.688,120.8,405.353,125.107,388.782,124.531Z" transform="translate(-196.939 -75.376)" fill="#536dfe" opacity="0.1"/>
      <ellipse id="Elipse_101" data-name="Elipse 101" cx="119.167" cy="16.121" rx="119.167" ry="16.121" transform="translate(35.393 281.966)" fill="#536dfe" opacity="0.1"/>
      <path id="Caminho_689" data-name="Caminho 689" d="M458.717,131.465s-3.689-7.28-3.191-9.444-2.6-6.786-2.6-6.786l.2-7.668s-.427.784-2.654,1.47c-.188-.247-.392-.49-.6-.721a15.806,15.806,0,0,0-2.674-2.231l-3.92-8.46-3.791-5.806s-5.979-12.153-12.153-14.835l-.972-1.9a.149.149,0,0,0,.059-.192l-.988-1.933a.153.153,0,0,0-.192-.071l-.945-1.85a14.862,14.862,0,0,0-2.744-6.621c-.1-.137-.2-.263-.306-.392l1.537-.055c1.349-.051,2.854-.169,3.76-1.176a3.437,3.437,0,0,0,.7-1.294,5.485,5.485,0,0,0,.227-1.149V59.22a3.153,3.153,0,0,0-.067-.392.27.27,0,0,0-.031-.153,4.554,4.554,0,0,0-.122-.455.615.615,0,0,1-.027-.09c-.055-.157-.114-.314-.18-.467a.438.438,0,0,1-.027-.063c-.071-.153-.149-.3-.231-.447l-.024-.047h0a1.569,1.569,0,0,0-.1-.176c-1.062-1.67-2.928-2.646-4.7-3.528a54.369,54.369,0,0,0-5.1-2.352,27.443,27.443,0,0,0-19.994.282,7.916,7.916,0,0,0-1.78.949,9.2,9.2,0,0,0-1.941,2.282l-3.038,4.489a6.342,6.342,0,0,0-.984,1.811c-.568,2.133,1.215,4.269,1.015,6.469-.1,1.094-.69,2.1-.8,3.191a7.594,7.594,0,0,0,1.149,4.046l4.348,8.625c-.231,1.133-.486,2.293-.764,3.415h0c-2,2.07-2.678,3.2-2.862,3.811l-.059.031h0a3.529,3.529,0,0,0-1,.98l-4.132,4.014s-7.182,1.866-8.676,4.23c0,0-11.271-.494-11.173,15.246,0,0-.5,5.9-.784,6.692s0,8.754,0,8.754l-.133,16.136s-.431,8.558,0,11.608.929,14.658.929,14.658,2.693,11.314,1.7,15.348c-.957,3.862,0,12.306,1.568,12.341.3.615.639.917,1.011.745a4.317,4.317,0,0,1,.5-.18v9.64s-1.941,13.506.235,16.073a52.562,52.562,0,0,0-3.568,6.48l-15.25-.819-1.941.545h0l-1.78.5-1.078,24.8.431.031-.031.757,1.019.074-1.419,24.98,21.111,1.737c-.929,2.082-2.007,4.312-2.427,4.528-.784.392-2.493-.784-2.893-.3a3.247,3.247,0,0,1-2.991.784c-1.4-.3-2.293,1.278-2.293,1.278s.2.18.51.514c-2.266-.274-5.132.941-6.688,1.725-.7.353-1.133.616-1.133.616H346.65l2.262,14.431,1.6,1.09.392,11.369s6.382,19.676,9.307,19.547a1.321,1.321,0,0,0,.984-.494c1.568-1.811.482-8.033.482-8.033V322.523s2.391-1.051,2.125-1.839,3.858-9.409,4.226-10.193a.067.067,0,0,0,.031-.063c0-.886,1.8-1.87,1.694-2.262s4.391-2.854,4.7-5.018,3.289-.984,3.289-.984l3.787-4.352c.114,5.3.329,9.017.7,9.958,1.8,4.528,2.493,11.612,2.493,11.612s-1.1,5.41,0,7.182a19.007,19.007,0,0,0,3.332,3.2c-1.133,3.434-.972,10.734-.972,10.734V344.7l8.378,2.352s.263-2.1.663-2.1,5.72,4.065,5.72,4.065,20.48.263,25.663,0c1.96-.1,2.493-.941,2.192-1.96-.5-1.7-3.293-3.9-5.779-4.065-3.991-.263-9.044-4.457-9.044-4.457s.392-.921-1.729-2.231c-1.466-.9-5.524-4.552-8.033-6.688.118-.161.239-.321.353-.494,0,0-3.391-4.7-2.689-6.79s-.3-5.1-.3-5.1-1.894-5.806-1.894-8.758c0-1.87-.282-12.506-.486-20.049l1.748.145.035-.753.784.071,7.413.682-.227-7.923a49.588,49.588,0,0,0,7.774-3.952,15.86,15.86,0,0,1,7.778-3.344s8.476-4.524,9.773-6.394,1.176-15.446,1.176-15.446l-.7-29.1v-.024s-.6-14.066-1.8-17.116c-.439-1.129-1.525-4.893-2.713-9.189a7.1,7.1,0,0,1,2.046.086c.043,1.051.071,1.772.071,2.019,0,1.67,2.391,3.089,2.391,3.089l-1.694-37.635v-25.6c5.222,1.662,17.849,2.18,17.849,2.18C460.909,139.744,458.717,131.465,458.717,131.465ZM409.462,99.129h-.027a26.1,26.1,0,0,1,.725-2.921ZM375.19,228.215c3.093.51,6.665.361,6.935-.239.027-.059.063-.165.11-.3.1.173.192.349.29.529l-.3,5.677v.129l-10.193-.549C372.744,230.422,374.093,228.94,375.19,228.215Zm33.978,28.642-.263-9.193c.455-1.694.862-3.23,1.211-4.548.157,1.094.29,2.1.392,3.03C411.473,254.87,410.05,256.571,409.168,256.857Zm29.011-137.832c-.584.223-2.807-1.176-4.916-2.627,0-.267.02-.529.031-.784.3-6-9.476-9.738-12.467-10.428a10.745,10.745,0,0,1-2.1-.784,49,49,0,0,1-4.642-2.623l.039-.114s-3.858-2.442-3.94-5.489a52.117,52.117,0,0,1,3.317-8.049c.074-.153.157-.314.235-.467A15.388,15.388,0,0,0,418.753,85c.6,7.841,11.945,14.588,11.945,14.588l1.211,1.96.286.463c-.612.361-.906.651-.7.819.862.69,2.948,4.595,3.811,6.245.235.447.392.725.392.725s1.854,5.046,2.917,9.268a.784.784,0,0,0-.447-.047Z" transform="translate(-274.747 -49.28)" fill="url(#linear-gradient)"/>
      <path id="Caminho_690" data-name="Caminho 690" d="M553.9,142.565l-.133.176-.455.608-8.723,6.163-1.85-3.042-1.176-1.96s-17.387-10.428-9.911-20.48,18.524,12.741,18.524,12.741Z" transform="translate(-386.087 -93.155)" fill="#ffc5d3"/>
      <rect id="Retângulo_117" data-name="Retângulo 117" width="0.298" height="2.454" rx="0.149" transform="translate(149.94 24.854) rotate(-26.73)" fill="#3a3768"/>
      <rect id="Retângulo_118" data-name="Retângulo 118" width="0.169" height="0.808" rx="0.084" transform="translate(140.241 27.585) rotate(-26.73)" fill="#3a3768"/>
      <rect id="Retângulo_119" data-name="Retângulo 119" width="0.188" height="1.407" rx="0.094" transform="translate(140.9 28.906) rotate(-26.73)" fill="#3a3768"/>
      <rect id="Retângulo_120" data-name="Retângulo 120" width="0.18" height="1.419" rx="0.09" transform="translate(141.754 30.601) rotate(-26.73)" fill="#3a3768"/>
      <rect id="Retângulo_121" data-name="Retângulo 121" width="9.958" height="20.237" rx="2.24" transform="translate(139.121 25.156) rotate(-26.73)" fill="#3a3768"/>
      <path id="Caminho_691" data-name="Caminho 691" d="M526.855,104.918a.353.353,0,0,0-.157.478l.031.067a.357.357,0,0,1-.157.482l-3.771,1.9a.353.353,0,0,1-.478-.157l-.035-.067a.357.357,0,0,0-.478-.161l-.733.372a.674.674,0,0,0-.3.913l8.013,15.9a.686.686,0,0,0,.917.3l6.578-3.313a.686.686,0,0,0,.3-.917l-8.017-15.913a.682.682,0,0,0-.917-.3Z" transform="translate(-380.563 -82.797)" fill="#536dfe"/>
      <rect id="Retângulo_122" data-name="Retângulo 122" width="1.392" height="0.282" rx="0.141" transform="translate(142.985 23.887) rotate(-26.73)" fill="#e6e8ec"/>
      <circle id="Elipse_102" data-name="Elipse 102" cx="0.161" cy="0.161" r="0.161" transform="translate(144.454 23.05)" fill="#e6e8ec"/>
      <path id="Caminho_692" data-name="Caminho 692" d="M547,261.28l-2.45,65.752s8.233-2.744,9.507-.686-1.372-32.931-1.372-32.931Z" transform="translate(-395.063 -178.155)" fill="#5f5570"/>
      <path id="Caminho_693" data-name="Caminho 693" d="M547,261.28l-2.45,65.752s8.233-2.744,9.507-.686-1.372-32.931-1.372-32.931Z" transform="translate(-395.063 -178.155)" opacity="0.15"/>
      <path id="Caminho_694" data-name="Caminho 694" d="M490.183,781.331c-5.1.263-25.22,0-25.22,0s-5.23-4.05-5.622-4.05-.651,2.09-.651,2.09l-8.233-2.352v-4.179s-.263-11.9,2.219-12.416,13.462,0,13.462,0c.392-.129,7.841,6.927,9.93,8.233s1.7,2.223,1.7,2.223,4.967,4.179,8.887,4.442c2.442.165,5.191,2.352,5.681,4.05C492.633,780.394,492.1,781.233,490.183,781.331Z" transform="translate(-337.853 -481.476)" fill="#bc8487"/>
      <path id="Caminho_695" data-name="Caminho 695" d="M490.2,801.069c-5.1.263-25.22,0-25.22,0s-5.23-4.05-5.622-4.05-.651,2.09-.651,2.09l-8.233-2.352v-4.1l7.707,2.791,6.143,3.658h28.027C492.645,800.132,492.116,800.971,490.2,801.069Z" transform="translate(-337.866 -501.215)" opacity="0.1"/>
      <path id="Caminho_696" data-name="Caminho 696" d="M493.43,791.294s6.273-6.01,10.467-4.312" transform="translate(-363.984 -497.579)" stroke="#000" stroke-miterlimit="10" stroke-width="1" opacity="0.1"/>
      <path id="Caminho_697" data-name="Caminho 697" d="M365.988,698.692c.263.784-2.09,1.831-2.09,1.831v10.322s1.066,6.2-.474,8.005a1.29,1.29,0,0,1-.964.49c-2.874.129-9.146-19.472-9.146-19.472l-.392-11.326-1.568-1.086L349.13,673.08h4.054s.427-.263,1.113-.615c1.96-1,6.065-2.744,8.3-1.082l7.578,17.073S365.729,697.908,365.988,698.692Z" transform="translate(-276.254 -427.064)" fill="#bc8487"/>
      <path id="Caminho_698" data-name="Caminho 698" d="M363.424,721.6a1.29,1.29,0,0,1-.964.49c-2.874.129-9.146-19.472-9.146-19.472l-.392-11.326-1.568-1.086-2.223-14.376h4.054s.427-.263,1.113-.616l.976,14.729.521,12.675S360.719,716.413,363.424,721.6Z" transform="translate(-276.254 -429.809)" opacity="0.1"/>
      <path id="Caminho_699" data-name="Caminho 699" d="M453.561,522.829c-1.274,1.862-9.6,6.371-9.6,6.371a15.34,15.34,0,0,0-7.645,3.332c-2.129,1.623-9.526,4.842-16.171,7.574-6.206,2.552-11.761,4.677-11.761,4.677l-6.4,7.449-4.873,5.673s-2.94-1.176-3.234.98-4.7,4.606-4.606,5-1.666,1.372-1.666,2.254-6.567-6.371-6.469-10.781a10.625,10.625,0,0,0-3.332-7.449s.882-1.568,2.254-1.274a3.154,3.154,0,0,0,2.94-.784c.392-.49,2.058.686,2.842.294s3.92-8.135,3.92-8.135l12.22-8.2,24.306-16.293,1.121-.753s3.234,1.482,1.921-10.659c-.255-2.352-.682-5.21-1.333-8.691-4.018-21.464,10.389-23.914,10.389-23.914l12.643,4.214,3.038,4.7v.024l.686,28.987S454.835,520.967,453.561,522.829Z" transform="translate(-293.685 -304.745)" fill="#433a59"/>
      <path id="Caminho_700" data-name="Caminho 700" d="M457.431,604.818s.039,1.392.1,3.556c-6.206,2.552-11.761,4.677-11.761,4.677l-6.4,7.449c-.106-6.175-.082-14.2,0-22.417l24.306-16.293C460.669,592.936,457.431,604.818,457.431,604.818Z" transform="translate(-331.074 -373.013)" opacity="0.1"/>
      <path id="Caminho_701" data-name="Caminho 701" d="M530.773,478.449v.023l-19.014.369s-3.332,13.035-3.822,15.779c-.122.674-.859,3.556-1.9,7.515-.255-2.352-.682-5.21-1.333-8.691-4.018-21.464,10.389-23.914,10.389-23.914l12.643,4.214Z" transform="translate(-370.407 -304.763)" opacity="0.1"/>
      <path id="Caminho_702" data-name="Caminho 702" d="M439.534,391.024l-2.45,47.044s-1.764,69.1,0,73.6,2.45,11.565,2.45,11.565-1.078,5.391,0,7.155,4.508,3.724,4.41,4.7,10.487,6.273,15.975-2.156c0,0-3.332-4.7-2.646-6.763s-.294-5.1-.294-5.1-1.862-5.783-1.862-8.735-.686-27.639-.686-27.639,10.683-39.2,11.173-41.948,3.822-15.779,3.822-15.779l20.19-.392s-.588-14.015-1.764-17.054-6.959-25.286-6.959-25.286Z" transform="translate(-329.251 -252.916)" fill="#433a59"/>
      <path id="Caminho_703" data-name="Caminho 703" d="M192.533,469.89l-1.752.5-.071,1.733,52.541.678v-.682Z" transform="translate(-115.945 -285.662)" fill="#7b728f"/>
      <path id="Caminho_704" data-name="Caminho 704" d="M482.118,130.662c-7.645,15.505-2.9,18.747-2.14,19.147-1.619-.753-22.664-10.64-19.9-13.149,1.8-1.635,3.34-8.746,4.246-13.843.537-3.042.851-5.367.851-5.367l22.083,4.05A104.119,104.119,0,0,0,482.118,130.662Z" transform="translate(-343.557 -90.711)" fill="#ffc5d3"/>
      <path id="Caminho_705" data-name="Caminho 705" d="M573.874,174.824l-.455.608-8.739,6.163-1.85-3.042c2.693-1.568,10.769-4.312,10.769-4.312Z" transform="translate(-406.176 -125.237)" opacity="0.1"/>
      <path id="Caminho_706" data-name="Caminho 706" d="M581.209,189.614c-.784,2.744-14.015,0-14.015,0l-1.372-2.156s-.137-.274-.369-.721c-.847-1.643-2.9-5.532-3.744-6.222-1.078-.882,11.565-5.194,11.565-5.194l3.873,8.429a15.611,15.611,0,0,1,2.627,2.223C580.754,187.034,581.565,188.363,581.209,189.614Z" transform="translate(-405.455 -125.894)" fill="#e5e8ef"/>
      <path id="Caminho_707" data-name="Caminho 707" d="M555.55,215s7.841,6.186,9.017,5.739,20.19,12.392,20.19,12.392,2.156,8.233-6.763,8.723c0,0-18.916-.784-19.7-3.528S555.55,215,555.55,215Z" transform="translate(-401.75 -150.018)" fill="#5f5570"/>
      <path id="Caminho_708" data-name="Caminho 708" d="M487.827,183.262l-8.527,8.821,11.957,76.055,4.7-2.744s12.153,5.391,13.133.392.71-24.7.71-24.7L508.213,205.5s-5.586-12.447-5.586-12.839-8.056-6.469-8.056-6.469l-3.8-2.94Z" transform="translate(-355.393 -130.715)" opacity="0.1"/>
      <path id="Caminho_709" data-name="Caminho 709" d="M487.827,180.262l-8.527,8.821,11.957,76.055,4.7-2.744s12.153,5.391,13.133.392.71-24.7.71-24.7L508.213,202.5s-5.586-12.447-5.586-12.839-8.056-6.469-8.056-6.469l-3.8-2.94Z" transform="translate(-355.393 -128.891)" fill="#e5e8ef"/>
      <path id="Caminho_710" data-name="Caminho 710" d="M498.652,180.928l-2.352,4.8,2.352,2.482s8.429,17.022,6.763,27.117l1.764,33.225,5.685,5.587,4.508-5.206-2.156-30.187s-5.783-24.894-11.859-32.637l-1.764-6.861Z" transform="translate(-365.728 -128.283)" opacity="0.1"/>
      <path id="Caminho_711" data-name="Caminho 711" d="M498.652,178.928l-2.352,4.8,2.352,2.482s8.429,17.022,6.763,27.117l1.764,33.225,5.685,5.587,4.508-5.206-2.156-30.187s-5.783-24.894-11.859-32.637l-1.764-6.861Z" transform="translate(-365.728 -127.067)" fill="#bc8487"/>
      <path id="Caminho_712" data-name="Caminho 712" d="M494.234,121.469c-2.141,3.45-3.826,6.488-5.144,9.162a15.073,15.073,0,0,1-4.273.616c-4.846,0-7.637-3.352-10.381-6.912-.627-.808-2.689-.619-3.136-1.568.537-3.042.851-5.367.851-5.367Z" transform="translate(-350.529 -90.681)" opacity="0.1"/>
      <path id="Caminho_713" data-name="Caminho 713" d="M497.5,90.073a15.027,15.027,0,1,1-2.858-8.817A15.027,15.027,0,0,1,497.5,90.073Z" transform="translate(-348.185 -64.93)" fill="#ffc5d3"/>
      <path id="Caminho_714" data-name="Caminho 714" d="M474.154,168.71l-12.349-14.9s-1.141-.459,2.713-4.493c0,0,14.153,11.032,15.031,12.906S474.154,168.71,474.154,168.71Z" transform="translate(-344.661 -110.087)" opacity="0.1"/>
      <path id="Caminho_715" data-name="Caminho 715" d="M473.154,166.71l-12.349-14.9s-1.141-.459,2.713-4.493c0,0,14.153,11.032,15.031,12.906S473.154,166.71,473.154,166.71Z" transform="translate(-344.053 -108.871)" fill="#e5e8ef"/>
      <path id="Caminho_716" data-name="Caminho 716" d="M534.3,281.587s-2.352-1.411-2.352-3.077-1.176-25.188-1.176-25.188-1.725-14.039-3.528-25.2h0c-1.058-6.574-2.144-12.153-2.913-13.259l-.031-.047c-2.058-2.646-1.666-15.583-14.505-34.5a70.9,70.9,0,0,0,7.841,4.783,10.748,10.748,0,0,0,2.066.784c2.94.686,12.545,4.41,12.251,10.389s.686,19.7.686,19.7V244.1Z" transform="translate(-373.93 -128.934)" fill="#5f5570"/>
      <path id="Caminho_717" data-name="Caminho 717" d="M587.086,206.132c-.784,2.744-14.015,0-14.015,0l-1.372-2.156s-.137-.274-.369-.721a.263.263,0,0,1-.02-.047c7.688.537,11.973-.024,14.341-.717C586.631,203.552,587.442,204.881,587.086,206.132Z" transform="translate(-411.332 -142.412)" opacity="0.1"/>
      <path id="Caminho_718" data-name="Caminho 718" d="M572.3,202.8s4.116,11.369,3.528,14.211,9.507,14.015,9.507,14.015l9.6-6.665s-3.626-7.253-3.136-9.409-2.548-6.763-2.548-6.763l.2-7.637S587.687,203.863,572.3,202.8Z" transform="translate(-411.934 -141.233)" fill="#5f5570"/>
      <path id="Caminho_719" data-name="Caminho 719" d="M494.873,81.538l-7.449.282a8.3,8.3,0,0,0-2.156.271c-2.662.819-3.889,3.65-3.987,6.194s-1.568,5.394-4.418,5.618a1.1,1.1,0,0,1-.812-.18,1.341,1.341,0,0,1-.345-.694,15.172,15.172,0,0,0-1.874-4.187,3.283,3.283,0,0,0-2.352,2.5,14.051,14.051,0,0,0-.22,3.611,23.37,23.37,0,0,1-.443,4.583,15.026,15.026,0,1,1,24.068-18Z" transform="translate(-348.416 -65.212)" opacity="0.1"/>
      <path id="Caminho_720" data-name="Caminho 720" d="M477.281,67.687a8.3,8.3,0,0,1,2.156-.271l9.044-.337c1.325-.051,2.8-.169,3.693-1.153a3.454,3.454,0,0,0,.69-1.29,5.567,5.567,0,0,0-.584-4.559c-1.047-1.666-2.881-2.634-4.63-3.528a53.793,53.793,0,0,0-5.006-2.352A26.658,26.658,0,0,0,463,54.479a7.927,7.927,0,0,0-1.748.937,9.037,9.037,0,0,0-1.905,2.274l-2.976,4.485a6.175,6.175,0,0,0-.937,1.811c-.561,2.129,1.176,4.258,1,6.449-.1,1.09-.678,2.09-.784,3.179a7.645,7.645,0,0,0,1.133,4.026l5.23,10.55a23.374,23.374,0,0,0,1.266-7.645,13.542,13.542,0,0,1,.22-3.611,3.308,3.308,0,0,1,2.352-2.5,15.12,15.12,0,0,1,1.878,4.187,1.325,1.325,0,0,0,.345.694,1.1,1.1,0,0,0,.812.18c2.866-.223,4.312-3.046,4.418-5.618S474.619,68.506,477.281,67.687Z" transform="translate(-340.817 -51.2)" fill="#8f7080"/>
      <path id="Caminho_721" data-name="Caminho 721" d="M190.89,469.547l3.662-1.047,55.21,3.007-6.077.784Z" transform="translate(-116.054 -284.817)" fill="#7b728f"/>
      <path id="Caminho_722" data-name="Caminho 722" d="M190.89,469.547l3.662-1.047,55.21,3.007-6.077.784Z" transform="translate(-116.054 -284.817)" opacity="0.1"/>
      <path id="Caminho_723" data-name="Caminho 723" d="M329.63,529.095l-7.284-.678-2.556-.235V487.668l.674-9.4.149-2.093h7.515Z" transform="translate(-194.421 -289.48)" fill="#7b728f"/>
      <path id="Caminho_724" data-name="Caminho 724" d="M327.639,529.681l-5.81-.643-2.039-.223V490.4l.537-8.915.118-1.988h5.994Z" transform="translate(-194.421 -291.505)" opacity="0.1"/>
      <path id="Caminho_725" data-name="Caminho 725" d="M401.42,507.561s3.626-7.954,5.147-8.2a23.4,23.4,0,0,1,4.312,0l-.247,2.305s-3.724.294-4.9,6.516Z" transform="translate(-308.045 -322.832)" fill="#7b728f"/>
      <path id="Caminho_726" data-name="Caminho 726" d="M401.42,507.561s3.626-7.954,5.147-8.2a23.4,23.4,0,0,1,4.312,0l-.247,2.305s-3.724.294-4.9,6.516Z" transform="translate(-308.045 -322.832)" opacity="0.1"/>
      <path id="Caminho_727" data-name="Caminho 727" d="M434.185,497.41s9.75,4.849,8.476,10.534l-5.292-.294s-2.548-8.476-4.555-8.919S434.185,497.41,434.185,497.41Z" transform="translate(-326.743 -321.713)" fill="#7b728f"/>
      <path id="Caminho_728" data-name="Caminho 728" d="M449.7,213.461v.286l-.2,32.645s-5,27.443-6.371,28.521-31.461-1.862-31.461-1.862l-13.623-91.834c-.1-15.681,10.977-15.191,10.977-15.191,1.47-2.352,8.527-4.214,8.527-4.214l3.92-3.822.125-.176a3.486,3.486,0,0,1,.988-.976h0c.808-.467,1.321.149,1.615.757a4.56,4.56,0,0,1,.306.89C440.389,170.129,449.7,213.461,449.7,213.461Z" transform="translate(-305.995 -114.556)" fill="#5f5570"/>
      <path id="Caminho_729" data-name="Caminho 729" d="M478.947,214.716V215c-4.928-9.017-23.914-43.179-29.109-44.88l2-1.372s1.333-.784-1.117-1.568c0,0-3.822.49-3.92-4.116l4.046-4,.988-.976h0l1.615.757a4.561,4.561,0,0,1,.306.89C469.636,171.384,478.947,214.716,478.947,214.716Z" transform="translate(-335.634 -115.419)" opacity="0.1"/>
      <path id="Caminho_730" data-name="Caminho 730" d="M479.947,213.716V214c-4.928-9.017-23.914-43.179-29.109-44.88l2-1.372s1.333-.784-1.117-1.568c0,0-3.822.49-3.92-4.116l4.046-4,.988-.976h0l1.615.757a4.559,4.559,0,0,1,.306.89C470.636,170.384,479.947,213.716,479.947,213.716Z" transform="translate(-336.242 -114.811)" fill="#433a59"/>
      <path id="Caminho_731" data-name="Caminho 731" d="M525.337,215.826l-.031-.047c-2.058-2.646-1.666-15.583-14.505-34.5a70.9,70.9,0,0,0,7.841,4.783l-.906,2.987,1.96,1.047Z" transform="translate(-374.544 -129.517)" opacity="0.1"/>
      <path id="Caminho_732" data-name="Caminho 732" d="M524.337,214.826l-.031-.047c-2.058-2.646-1.666-15.583-14.505-34.5a70.9,70.9,0,0,0,7.841,4.783l-.906,2.987,1.96,1.047Z" transform="translate(-373.936 -128.91)" fill="#433a59"/>
      <path id="Caminho_733" data-name="Caminho 733" d="M507.114,172.58l-.8,3.4a4.594,4.594,0,0,0,4.112,3.693l.568-1.619S507.188,175.61,507.114,172.58Z" transform="translate(-371.814 -124.228)" opacity="0.1"/>
      <path id="Caminho_734" data-name="Caminho 734" d="M507.114,171.58l-.8,3.4a4.594,4.594,0,0,0,4.112,3.693l.568-1.619S507.188,174.61,507.114,171.58Z" transform="translate(-371.814 -123.62)" fill="#e5e8ef"/>
      <path id="Caminho_735" data-name="Caminho 735" d="M324.651,477.57l-2.305,51.7-2.556-.235V488.52l.674-9.4Z" transform="translate(-194.421 -290.332)" opacity="0.1"/>
      <path id="Caminho_736" data-name="Caminho 736" d="M189.8,497.536,188.23,525.5l53.317,4.446,2.337-52.376Z" transform="translate(-114.437 -290.332)" fill="#7b728f"/>
      <path id="Caminho_737" data-name="Caminho 737" d="M189.23,497.868l1.043-24.7,54.611,2.509-2.6,26.11Z" transform="translate(-115.045 -287.657)" opacity="0.1"/>
      <path id="Caminho_738" data-name="Caminho 738" d="M188.23,495.868l1.043-24.7,54.611,2.509-2.6,26.11Z" transform="translate(-114.437 -286.441)" fill="#7b728f"/>
      <rect id="Retângulo_123" data-name="Retângulo 123" width="6.567" height="7.645" transform="translate(96.758 209.459)" fill="#c3bbc8"/>
      <path id="Caminho_739" data-name="Caminho 739" d="M409.812,455.78l-.98,2.646s-2.058,14.505.49,16.27,10.095,1.862,10.487.98,3.136-10.879,3.136-10.879,2.45,7.351,3.724,6.763S423.73,457,423.73,457Z" transform="translate(-312.074 -296.404)" fill="#ffc5d3"/>
      <path id="Caminho_740" data-name="Caminho 740" d="M410.05,419.594v14.015s10.389,1.96,14.9-1.427c0,0-4.214-13.568-2.646-17S410.05,419.594,410.05,419.594Z" transform="translate(-313.292 -271.194)" opacity="0.1"/>
      <path id="Caminho_741" data-name="Caminho 741" d="M410.05,418.594v14.015s10.389,1.96,14.9-1.427c0,0-4.214-13.568-2.646-17S410.05,418.594,410.05,418.594Z" transform="translate(-313.292 -270.587)" fill="#e5e8ef"/>
      <path id="Caminho_742" data-name="Caminho 742" d="M401.08,208.421l-2.744,1.47s-.49,5.881-.784,6.665,0,8.723,0,8.723l-.133,16.073s-.423,8.527,0,11.565.9,14.6.9,14.6,2.65,11.271,1.67,15.289.1,13.035,1.764,12.251,17.054-3.822,17.838-4.41.392-6.077,0-6.763-2.744-10-2.548-12.153-.686-21.072-.686-21.072,1.47-20.19,2.058-24.894-1.176-18.524-2.744-18.72S409.509,196.169,401.08,208.421Z" transform="translate(-305.497 -142.447)" opacity="0.1"/>
      <path id="Caminho_743" data-name="Caminho 743" d="M399.08,206.421l-2.744,1.47s-.49,5.881-.784,6.665,0,8.723,0,8.723l-.133,16.073s-.423,8.527,0,11.565.9,14.6.9,14.6,2.65,11.271,1.67,15.289.1,13.035,1.764,12.251,17.054-3.822,17.838-4.41.392-6.077,0-6.763-2.744-10-2.548-12.153-.686-21.072-.686-21.072,1.47-20.19,2.058-24.894-1.176-18.524-2.744-18.72S407.509,194.169,399.08,206.421Z" transform="translate(-304.282 -141.231)" fill="#5f5570"/>
      <g id="Grupo_40" data-name="Grupo 40" transform="translate(115.063 9.046)" opacity="0.1">
        <path id="Caminho_744" data-name="Caminho 744" d="M466.118,104.77a3.283,3.283,0,0,0-2.352,2.5,14.048,14.048,0,0,0-.22,3.611,23.369,23.369,0,0,1-1.262,7.645l-5.234-10.55c-.1-.208-.208-.423-.31-.639a14.257,14.257,0,0,0,.9,2.109l5.234,10.55a23.368,23.368,0,0,0,1.262-7.645,13.708,13.708,0,0,1,.22-3.611,3.3,3.3,0,0,1,2.352-2.5,15.736,15.736,0,0,1,1.015,1.854A15.288,15.288,0,0,0,466.118,104.77Z" transform="translate(-456.74 -92.048)"/>
        <path id="Caminho_745" data-name="Caminho 745" d="M511.218,72.32a5.552,5.552,0,0,1-.094,2.921,3.461,3.461,0,0,1-.694,1.29c-.89.984-2.352,1.1-3.693,1.153l-9.04.337a8.323,8.323,0,0,0-2.16.271c-2.658.819-3.889,3.65-3.987,6.194s-1.568,5.394-4.418,5.618a1.1,1.1,0,0,1-.812-.18h0c.09.255.176.514.251.784a1.294,1.294,0,0,0,.341.694,1.1,1.1,0,0,0,.811.18c2.87-.223,4.312-3.046,4.418-5.618s1.329-5.375,3.987-6.194a8.323,8.323,0,0,1,2.16-.271l9.04-.337c1.325-.051,2.8-.169,3.693-1.153a3.462,3.462,0,0,0,.694-1.29,5.567,5.567,0,0,0-.5-4.4Z" transform="translate(-474.724 -72.32)"/>
      </g>
      <path id="Caminho_746" data-name="Caminho 746" d="M512.28,479.88s3.4-1.764,4.7-1.666,13.067,15.05,13.067,15.05Z" transform="translate(-375.444 -310.04)" opacity="0.1"/>
      <path id="Caminho_747" data-name="Caminho 747" d="M414.076,224.35s-6.206,2.65-6.041,4.481S414.076,224.35,414.076,224.35Z" transform="translate(-312.065 -155.702)" opacity="0.1"/>
      <path id="Caminho_748" data-name="Caminho 748" d="M407.551,246.45s-6.512,8.327-5.073,8.605S407.551,246.45,407.551,246.45Z" transform="translate(-308.562 -169.139)" opacity="0.1"/>
      <path id="Caminho_749" data-name="Caminho 749" d="M464.819,278.28s.6,18.622-4.179,20.974Z" transform="translate(-344.049 -188.49)" opacity="0.1"/>
      <path id="Caminho_750" data-name="Caminho 750" d="M408,401.763s4.595-2.611,5.649-2.09S408,401.763,408,401.763Z" transform="translate(-312.045 -262.251)" opacity="0.1"/>
      <path id="Caminho_751" data-name="Caminho 751" d="M410.05,413.413a12.329,12.329,0,0,0,4.277-.392C415.7,412.421,410.05,413.413,410.05,413.413Z" transform="translate(-313.292 -270.291)" opacity="0.1"/>
      <path id="Caminho_752" data-name="Caminho 752" d="M586.7,239.41s3.6,10.338,5.673,10.338" transform="translate(-420.688 -164.858)" opacity="0.1"/>
      <path id="Caminho_753" data-name="Caminho 753" d="M456.16,743.188s6.751-1.831,7.747,0S456.16,743.188,456.16,743.188Z" transform="translate(-341.325 -470.643)" opacity="0.1"/>
      <path id="Caminho_754" data-name="Caminho 754" d="M400.474,675.21s-1.682,2.576.541,3.36S400.474,675.21,400.474,675.21Z" transform="translate(-307.099 -429.809)" opacity="0.1"/>
      <path id="Caminho_755" data-name="Caminho 755" d="M515.8,583.53s5.1,4.54,7.5,4.673S515.8,583.53,515.8,583.53Z" transform="translate(-377.584 -374.071)" opacity="0.1"/>
      <path id="Caminho_756" data-name="Caminho 756" d="M982.193,109.042s-33.005-2-29.116,21.127a5.627,5.627,0,0,0,2.932,5.947s.059-1.717,3.387-1.133a15.451,15.451,0,0,0,3.583.173,7.48,7.48,0,0,0,4.379-1.8h0s9.279-3.83,12.886-19c0,0,2.67-3.309,2.564-4.16l-5.571,2.38s1.905,4.018.392,7.359c0,0-.18-7.213-1.251-7.057-.219.035-2.9,1.392-2.9,1.392s3.277,7,.8,12.086c0,0,.941-8.625-1.823-11.581l-3.92,2.289s3.83,7.229,1.235,13.129c0,0,.667-9.048-2.058-12.573l-3.552,2.772s3.595,7.127,1.4,12.02c0,0-.286-10.534-2.176-11.33,0,0-3.1,2.744-3.579,3.865,0,0,2.462,5.175.933,7.9,0,0-.937-7.017-1.705-7.057,0,0-3.1,4.65-3.419,7.841a16.9,16.9,0,0,1,2.67-8.284,9.32,9.32,0,0,0-4.744,2.458s.482-3.289,5.489-3.575c0,0,2.556-3.528,3.242-3.744,0,0-5-.416-8.029.925,0,0,2.67-3.1,8.946-1.69l3.528-2.862s-6.582-.9-9.37.094c0,0,3.211-2.744,10.315-.745l3.818-2.286s-5.61-1.207-8.95-.784c0,0,3.528-1.9,10.068.161l2.744-1.227s-4.109-.808-5.312-.933-1.27-.463-1.27-.463a14.266,14.266,0,0,1,7.723.859S982.295,109.391,982.193,109.042Z" transform="translate(-643.238 -85.573)" fill="#536dfe"/>
      <path id="Caminho_757" data-name="Caminho 757" d="M840.107,97.77s-14.9-.9-13.157,9.554a2.55,2.55,0,0,0,1.325,2.685s.027-.784,1.529-.514a6.684,6.684,0,0,0,1.623.078,3.379,3.379,0,0,0,1.96-.815h0s4.191-1.733,5.822-8.586c0,0,1.208-1.494,1.176-1.878l-2.525,1.074a4.524,4.524,0,0,1,.184,3.324s-.082-3.258-.569-3.183c-.1,0-1.305.631-1.305.631s1.478,3.164.361,5.461c0,0,.427-3.9-.823-5.234l-1.768,1.035s1.729,3.266.557,5.932c0,0,.3-4.089-.929-5.681l-1.6,1.255s1.623,3.219.631,5.43c0,0-.129-4.759-.98-5.12A9.833,9.833,0,0,0,830,104.968s1.113,2.352.423,3.571c0,0-.423-3.172-.784-3.187a10.554,10.554,0,0,0-1.545,3.528,7.6,7.6,0,0,1,1.207-3.74,4.2,4.2,0,0,0-2.144,1.109s.22-1.486,2.489-1.615a9.635,9.635,0,0,1,1.466-1.69,9.182,9.182,0,0,0-3.63.416s1.208-1.4,4.042-.784l1.568-1.294a13.53,13.53,0,0,0-4.234.043s1.451-1.239,4.657-.337l1.729-1.031a15.71,15.71,0,0,0-4.046-.349s1.592-.859,4.552.071l1.231-.553s-1.854-.365-2.4-.423-.572-.208-.572-.208a6.472,6.472,0,0,1,3.489.392A15.857,15.857,0,0,0,840.107,97.77Z" transform="translate(-566.666 -78.735)" fill="#536dfe"/>
      <ellipse id="Elipse_103" data-name="Elipse 103" cx="10.558" cy="1.784" rx="10.558" ry="1.784" transform="translate(321.34 281.625)" fill="#536dfe" opacity="0.1"/>
      <ellipse id="Elipse_104" data-name="Elipse 104" cx="10.558" cy="1.784" rx="10.558" ry="1.784" transform="translate(0 255.072)" fill="#536dfe" opacity="0.1"/>
      <ellipse id="Elipse_105" data-name="Elipse 105" cx="10.558" cy="1.784" rx="10.558" ry="1.784" transform="translate(313.993 247.075)" fill="#536dfe" opacity="0.1"/>
      <ellipse id="Elipse_106" data-name="Elipse 106" cx="10.558" cy="1.784" rx="10.558" ry="1.784" transform="translate(40.834 264.642)" fill="#536dfe" opacity="0.1"/>
      <ellipse id="Elipse_107" data-name="Elipse 107" cx="10.558" cy="1.784" rx="10.558" ry="1.784" transform="translate(266.933 266.175)" fill="#536dfe" opacity="0.1"/>
      <ellipse id="Elipse_108" data-name="Elipse 108" cx="15.764" cy="2.666" rx="15.764" ry="2.666" transform="translate(293.027 299.859)" fill="#536dfe"/>
      <path id="Caminho_758" data-name="Caminho 758" d="M944.913,798.534a4.578,4.578,0,0,0,1.5-2.266,2.022,2.022,0,0,0-1.051-2.309c-.964-.368-2,.3-2.776.972s-1.678,1.447-2.7,1.306a4.116,4.116,0,0,0,1.274-3.85,1.619,1.619,0,0,0-.357-.784c-.533-.572-1.505-.325-2.144.125-2.039,1.435-2.607,4.2-2.619,6.7A12.842,12.842,0,0,1,936,795.68a2.827,2.827,0,0,0-1.035-2.438,3.136,3.136,0,0,0-1.568-.372,3.266,3.266,0,0,0-2.56.729,2.527,2.527,0,0,0,.1,3.136,10.138,10.138,0,0,0,2.654,2.125,5.837,5.837,0,0,1,1.894,1.807,1.5,1.5,0,0,1,.141.321h5.747a16.035,16.035,0,0,0,3.54-2.454Z" transform="translate(-629.606 -500.369)" fill="#536dfe"/>
      <path id="Caminho_759" data-name="Caminho 759" d="M286.525,617s2.156,2.815-.992,7.057-5.743,7.841-4.7,10.491c0,0,4.751-7.9,8.625-8.005S290.779,621.759,286.525,617Z" transform="translate(-234.589 -394.42)" fill="#536dfe"/>
      <path id="Caminho_760" data-name="Caminho 760" d="M286.722,617a3.384,3.384,0,0,1,.439.882c3.771,4.43,5.783,8.566,2.156,8.672-3.375.094-7.425,6.131-8.4,7.656a3.635,3.635,0,0,0,.114.349s4.751-7.9,8.625-8.005S290.976,621.759,286.722,617Z" transform="translate(-234.785 -394.42)" opacity="0.1"/>
      <path id="Caminho_761" data-name="Caminho 761" d="M305.164,625.184c0,.992-.11,1.8-.247,1.8s-.247-.784-.247-1.8.137-.525.274-.525S305.164,624.192,305.164,625.184Z" transform="translate(-249.224 -399.005)" fill="#ffd037"/>
      <path id="Caminho_762" data-name="Caminho 762" d="M306.807,628.149c-.87.474-1.631.761-1.694.643s.584-.6,1.454-1.078.529-.129.592,0S307.677,627.678,306.807,628.149Z" transform="translate(-249.491 -400.786)" fill="#ffd037"/>
      <path id="Caminho_763" data-name="Caminho 763" d="M259.2,617s-2.156,2.815.992,7.057,5.743,7.841,4.7,10.491c0,0-4.748-7.9-8.625-8.005S254.951,621.759,259.2,617Z" transform="translate(-218.641 -394.42)" fill="#536dfe"/>
      <path id="Caminho_764" data-name="Caminho 764" d="M259.191,617a3.457,3.457,0,0,0-.443.882c-3.771,4.43-5.779,8.566-2.156,8.672,3.379.094,7.429,6.131,8.4,7.656a2.81,2.81,0,0,1-.118.349s-4.748-7.9-8.625-8.005S254.938,621.759,259.191,617Z" transform="translate(-218.627 -394.42)" opacity="0.1"/>
      <path id="Caminho_765" data-name="Caminho 765" d="M256.49,625.184c0,.992.114,1.8.251,1.8s.247-.784.247-1.8-.137-.525-.274-.525S256.49,624.192,256.49,625.184Z" transform="translate(-219.933 -399.005)" fill="#ffd037"/>
      <path id="Caminho_766" data-name="Caminho 766" d="M252.175,628.149c.87.474,1.627.761,1.694.643s-.588-.6-1.458-1.078-.525-.129-.592,0S251.3,627.678,252.175,628.149Z" transform="translate(-216.986 -400.786)" fill="#ffd037"/>
      <path id="Caminho_767" data-name="Caminho 767" d="M258.24,655.835s6.022-.184,7.841-1.478,9.264-2.834,9.711-.761,9.052,10.307,2.254,10.362-15.8-1.059-17.61-2.164S258.24,655.835,258.24,655.835Z" transform="translate(-220.997 -416.052)" fill="#a8a8a8"/>
      <path id="Caminho_768" data-name="Caminho 768" d="M278.163,668.269c-6.8.055-15.8-1.058-17.61-2.164-1.376-.839-1.929-3.854-2.113-5.245h-.2s.392,4.857,2.191,5.959,10.812,2.219,17.61,2.164c1.96,0,2.638-.714,2.6-1.749C280.37,667.866,279.622,668.258,278.163,668.269Z" transform="translate(-220.997 -421.085)" opacity="0.2"/>
    </g>
  </g>
</svg>
