<?xml version="1.0" encoding="utf-8"?>
<!-- Generator: Adobe Illustrator 23.0.0, SVG Export Plug-In . SVG Version: 6.00 Build 0)  -->
<svg version="1.1" id="Camada_1" xmlns="http://www.w3.org/2000/svg" xmlns:xlink="http://www.w3.org/1999/xlink" x="0px" y="0px"
	 viewBox="0 0 973.6 939.6" style="enable-background:new 0 0 973.6 939.6;" xml:space="preserve">
<style type="text/css">
	.st0{display:none;}
	.st1{display:inline;fill:#DE8E68;}
	.st2{display:inline;fill:#6FC9CE;}
	.st3{display:inline;fill:#FEBF92;}
	.st4{display:inline;fill:#FED892;}
	.st5{display:inline;fill:none;stroke:#000000;stroke-width:0.95;stroke-miterlimit:10;}
	.st6{display:inline;fill:none;stroke:#000000;stroke-width:1.0746;stroke-linecap:round;stroke-miterlimit:10;}
	.st7{display:inline;fill:#74D5DE;}
	.st8{display:inline;}
	.st9{display:inline;fill:#FECC92;}
	.st10{display:inline;fill:#D38466;}
	.st11{display:inline;fill:#FD8369;}
	.st12{fill:#FFFFFF;}
	.st13{fill:#F3F3F3;}
	.st14{fill:#E1E1E1;}
	.st15{fill:#FD8369;}
	.st16{fill:#6FC9CE;}
	.st17{fill:#74D5DE;}
	.st18{fill:#F15A24;}
	.st19{fill:#DE8E68;}
	.st20{fill:#1F151E;}
	.st21{opacity:0.31;fill:#1F151E;enable-background:new    ;}
	.st22{fill:#FEBF92;}
	.st23{opacity:0.31;}
	.st24{opacity:0.31;fill:#DE8E68;enable-background:new    ;}
	.st25{opacity:0.36;}
	.st26{opacity:0.31;fill:#6FC9CE;enable-background:new    ;}
	.st27{fill:#FECC92;}
</style>
<g>
	<g id="Foreground" class="st0">
		<rect x="551.2" y="680.4" class="st1" width="15.3" height="23.2"/>
		<rect x="731.5" y="778.4" class="st1" width="15.3" height="23.2"/>
		<path class="st2" d="M663.5,465.7c-18.5,0-101.1,82.1-108.3,95.9c-7.2,13.8-5.1,121.9-5.1,121.9l17.8,3.4l28.9-100.7
			c12.6-1.5,65.6-12.9,93-35c27.4-22.2-2.6-71.7-2.6-71.7L663.5,465.7z"/>
		<path class="st1" d="M632.6,354.2c-9.1,8.1-27.3,28.4-28.8,31c-4.6-2.2-52.5-27.4-56.1-29s-11.2-14.3-13.8-14.3
			c-1.5,0-2.9,2.9-2.9,4.9c0,3.4,1.6,6,2.6,7.1c-3.4-0.5-33.4-2.8-33.4-0.8c0,5.2,33.6,12.1,36.2,13.5c2.6,1.4,57.3,52,76.3,52
			c7.4,0,40.1-22.2,40.1-24.6c3.1-2.1,7.9-5.2,7.9-5.2v-17.6l-11.4-8.3C649.3,362.8,634.4,352.6,632.6,354.2z"/>
		<path class="st3" d="M631.4,348.4c2-16.2,39.3-53,56.4-36.6c14.9,14.3-12.1,65.4-19,67.4C661,380,630.9,359.4,631.4,348.4z"/>
		<path class="st4" d="M745.2,314.7c19-8,45.6,36,42.6,52c0,7-39,22-45,18S726.2,322.7,745.2,314.7z"/>
		<path class="st5" d="M663,373.8"/>
		<path class="st6" d="M716,264.7"/>
		<path class="st7" d="M668.6,472.8l62.8,305.5h16.1l5.7-272.5c0-4.7-0.4-34.3-0.4-38.1C734.6,473,695.8,477.2,668.6,472.8z"/>
		<polygon class="st8" points="731.5,801.6 746.8,801.6 746.8,818.2 704.6,818.2 		"/>
		<polygon class="st8" points="551.2,703.6 566.5,703.6 566.5,720.2 524.3,720.2 		"/>
		<path class="st9" d="M703.6,291.2c47,0,63.4,39.1,63.4,51.8c0,12.7-14.7,90.2-14.1,124.7c0.1,5.7-84.3,10.8-95.8,2.5
			C651.7,466.3,640.1,291.2,703.6,291.2z"/>
		<path class="st1" d="M787.8,366.7c13.3,20.4,12.5,67.4,12.5,74.5s-49.6,70.9-53.9,70.9c-2.6-2.6-9.8-10.5-9.8-12.9
			c2.3-4.2,31.8-68.7,37.1-73.3c-2.4-2.9-23.5-36-24.4-41.5C767.8,381.3,785.7,373.5,787.8,366.7z"/>
		<path class="st4" d="M787.8,366.7c3-16-21.3-62.4-42.6-52c-18.5,9.1-8.4,66-2.4,70C750,387.8,785,377.3,787.8,366.7z"/>
		<path class="st10" d="M691.6,281.6c-1,3.1-1.5,12.7-0.4,17c0.1,0.2,20,1.7,22.2-1.8c0.1-2.9,4.9-28.7,11.4-36.7
			c0.6-0.9-0.7-3.4-0.7-3.4l-23.1,9.6L691.6,281.6"/>
		<path class="st11" d="M721.5,258.9c1.5,2,3.4,2.9,5.1,2.9c3.8,0,12.6-3.5,12.6-16c0-9-8.8-13.6-8.8-17.9c0-4.1,1.1-4.2,1.1-7.6
			c0-1.7-1.7-7.3-7-7.3c-3,0-4.1,2.5-7.1,2.5c-3.3,0-6.3-6.4-11.3-6.4c-3.4,0-6.6,3.2-10.2,3.2c-4.1,0-6.9-6.1-12.6-6.1
			c-5.9,0-8,5.3-10.3,5.3c-2.9,0-3.4-0.8-6.3-0.8c-1.8,0-7.3,3.2-7.3,9c0,4.1,1.7,10.8,10.2,10.8c5,0,7.8,7.9,12.2,7.9
			c1.7,0,3.2-1.4,3.6-0.7c1.7,3,5.2,11.2,5.2,11.2l15.9,8.9L721.5,258.9z"/>
		<path class="st1" d="M718,254.8c0,1.4-0.5,1.7-2.6,1.7c-1,0-2.4-1.3-2.4-2.7c0-3.3,2.4-4,2.4-8.3c0-7.3-19.1-11.1-25.8-14.9l0,0
			c-2.4,2.4-4.1,5.5-4.8,9l-4.3,22.1c-1.9,9.6,4.4,18.9,13.9,20.8s18.9-4.4,20.8-13.9l0.7-3.8l0,0c0.4,0.1,0.8,0.2,1.1,0.2
			c2.5,0,4.4-2.3,4.4-5.1C721.6,257.3,718,252.7,718,254.8z"/>
	</g>
</g>
<g>
	<path class="st12" d="M407.5,828.2c-95.4,2.3-364.5,9-399.6,35.9c-19.8,15.2,37.3,34.9,110.6,41.1c89.7,7.6,147.3-9.9,270.2-5.3
		c96.8,3.6,91.8,15.6,193.4,22.8c122.4,8.8,310.7,4.4,363.5-17.1c46.4-18.9-24.7-45.8-90.5-59.6
		C731.3,820.2,548.4,824.7,407.5,828.2z"/>
	<g>
		<g id="Background">
			<rect x="118.4" y="14.3" class="st13" width="727.7" height="717.3"/>
			<rect x="118.4" y="14.3" class="st14" width="727.7" height="54.6"/>
			<circle class="st15" cx="156.8" cy="42.3" r="8.6"/>
			<circle class="st15" cx="184.5" cy="42.3" r="8.6"/>
			<circle class="st15" cx="212.2" cy="42.3" r="8.6"/>
			<rect x="154" y="108.7" class="st12" width="290.9" height="157.6"/>
			<rect x="154" y="303.7" class="st12" width="290.9" height="157.6"/>
			<rect x="515.7" y="303.7" class="st12" width="290.9" height="339.9"/>
			<rect x="495.4" y="120.1" class="st14" width="399.4" height="15.2"/>
			<rect x="495.4" y="163" class="st14" width="399.4" height="15.2"/>
			<rect x="495.4" y="205.9" class="st14" width="399.4" height="15.2"/>
			<rect x="495.4" y="248.8" class="st14" width="399.4" height="15.2"/>
		</g>
		<rect x="606.5" y="767.3" class="st15" width="182.1" height="106.6"/>
		<polygon class="st15" points="149.2,879.7 78.9,878.9 54.3,788.6 172.2,788.6 		"/>
		<path class="st16" d="M123.3,753.2C103,617.3,53.3,546,47,548.7c-8.9,3.9-11.5,80.2,4.4,159c0.4,0,0.7-0.1,1.1-0.1
			c4.6,0,8.3,3.7,8.3,8.3c0,1.4-0.3,2.7-0.9,3.8c2.7,1.4,4.6,4.2,4.6,7.4c0,4-2.9,7.4-6.7,8.2c4.7,18.2,10.6,36.2,17.6,52.9
			c3.6,0,44,0,44,0S126.3,773,123.3,753.2z"/>
		<path class="st17" d="M240.8,609.1c-12.3,0-25.5,35.4-40.1,35.4c-3.2,0-5.3-3.5-5.3-6.8c0-3.2,10.1-38.4,10.1-55.5
			c0-1.5-0.1-3.1-0.3-4.7c-1.6,1-3.6,1.6-5.6,1.6c-6,0-10.9-4.9-10.9-10.9c0-5.3,3.7-9.6,8.7-10.7c-5.1-6.5-12.6-11.1-22.8-11.1
			c-12.9,0-31.1,11.5-31.1,29.3c0,5,1.5,17.7,1.5,29.2c0,65.2-51.1,75-51.1,147.2c0,15.2,8.4,31.9,10.9,36c0,0,42.8,0.5,46.9,0.5
			c4.1,0,37.4-55.6,41.2-61.5c14.5-22.4,62.7-47,62.7-100.5C255.6,619.1,252.9,609.1,240.8,609.1z"/>
		<g>
			
				<ellipse transform="matrix(0.6137 -0.7896 0.7896 0.6137 -156.971 796.2036)" class="st18" cx="735.1" cy="558.5" rx="193.5" ry="37.4"/>
			<path class="st19" d="M780.6,386.9c0,1.4-0.5,1.7-2.6,1.7c-1,0-2.4-1.3-2.4-2.7c0-3.3,2.4-4,2.4-8.3c0-7.3-19.1-11.1-25.8-14.9
				l0,0c-2.4,2.4-4.1,5.5-4.8,9l-4.3,22.1c-1.9,9.6,4.4,18.9,13.9,20.8c9.5,1.9,18.9-4.4,20.8-13.9l0.7-3.8l0,0
				c0.4,0.1,0.8,0.2,1.1,0.2c2.5,0,4.4-2.3,4.4-5.1C784.2,389.4,780.6,384.8,780.6,386.9z"/>
			<path class="st15" d="M785.6,397.7c0.9,2.3,2.6,3.7,4.2,4.1c3.7,1,13.1-0.2,16.3-12.3c2.3-8.7-5-15.4-3.9-19.5
				c1.1-4,2.1-3.8,3-7.1c0.4-1.6,0.2-7.5-4.9-8.8c-2.9-0.8-4.6,1.4-7.5,0.6c-3.2-0.8-4.5-7.8-9.3-9.1c-3.3-0.9-7.2,1.4-10.7,0.5
				c-4-1-5.1-7.7-10.6-9.1c-5.7-1.5-9.1,3.1-11.3,2.5c-2.8-0.7-3.1-1.6-5.9-2.4c-1.7-0.5-7.9,1.2-9.4,6.8c-1.1,4-1.1,10.9,7.1,13
				c4.8,1.3,5.5,9.6,9.8,10.8c1.6,0.4,3.4-0.5,3.7,0.2c0.9,3.3,2.2,12.2,2.2,12.2l13.1,12.7L785.6,397.7z"/>
			<path class="st20" d="M665.8,752.4c0,0,0.5,8.7-1.4,9.9c-1.9,1.2-10.4,2.1-9.5,6.3c-0.1,4.9,18.9,2.5,24.9,0
				c1.9-3.7-2.5-18.7-4.6-20.5S665.8,752.4,665.8,752.4z"/>
			<path class="st21" d="M908.6,839.5c0,0,1.2,19.6,0,20.8c-1.2,1.2-5.8,3-4.8,6.5c1.1,3.5,3.5,9,7.8,6.2
				c4.2-2.8,10.9-15.9,11.7-20.3c0.7-4.4-3.2-14.8-5.3-16.4C915.8,834.8,908.6,839.5,908.6,839.5z"/>
			<path class="st19" d="M770.8,440.2c0,0,0-20.5,2.8-27.5c2.8-7.1,6.3-16.9,6.3-16.9l-24,5.7c0,0,0,30.7,4.2,42.2
				C764.4,455,770.8,440.2,770.8,440.2z"/>
			<path class="st19" d="M613.5,353.4v-3.5c0,0-21.3,2.1-12.1-19.8c-9.9-10.6-19.8-21.9-7.1-16.9c12.7,11.3,24.7,26.1,31.1,36
				C631.7,359,613.5,353.4,613.5,353.4z"/>
			<path class="st22" d="M819,503.6c8.4-13.7,15.6-26.5,21.5-38l0,0c-22.3-13.5-47.6-25.6-66.2-29.6c-32.5-7,17.7,54.4,17.7,54.4
				S804.4,496.3,819,503.6L819,503.6z"/>
			<g class="st23">
				<path class="st22" d="M881.5,495.3c-9.4-8.8-24.4-19.6-41.1-29.7c-5.8,11.6-13.1,24.4-21.5,38c18.7,9.4,40.9,21.1,45.7,25.7
					c8.5,8.3,50.1,64.7,50.1,64.7s16.9-1.4,21.2-8.1C930.9,572.3,903.4,515.8,881.5,495.3z"/>
			</g>
			<path class="st24" d="M934.3,587.8c-2.5,2.3-6.6,3.7-10.4,4.7c4.8,8.2,9.4,20.3,12.1,27.5c3.5,9.7,11.3,8.6,13.4,0
				C950.9,613.8,940.3,596.8,934.3,587.8z"/>
			<path class="st17" d="M668.4,686.2c-2.2-27.7-3.7-54.3-5.6-61.8c11.2,4.4,30.6,7.3,59,8.4c13.4-15.1,30.1-34.4,43.3-51.3
				c11.5-14.8,22.3-29.5,32.1-43.7l15.5-3.7c-0.1,0-0.1-0.1-0.1-0.1L744,550.3c0,0-122.8,43.8-134.8,50.1
				c-7.8,4.1,13.7,61.3,32,105.5C648.8,701.3,659.2,694,668.4,686.2z"/>
			<g class="st25">
				<path class="st17" d="M812.4,534.1l-15.8,3.7c-9.8,14.2-20.5,28.8-32.1,43.7c-14.4,18.5-28.8,35.8-42.8,51.3
					c12.6,0.5,27.1,0.7,43.3,0.4c52.9-0.7,64.9-32.8,64.9-68.6C830.1,547.2,812.4,534.1,812.4,534.1z"/>
				<path class="st17" d="M668.4,685.9c-10.2,8.7-19.3,15.5-27.2,20.1c9.8,23.6,18.7,43.6,21.6,49.7c14.8-2.1,14.8,0,13.4-7.8
					C672.6,733.7,670.3,709.4,668.4,685.9z"/>
			</g>
			<path class="st26" d="M830.1,565.7c-0.2,34.3-11.8,64.9-60.3,67.4l138.7,212.3c0,0,7.8,2.1,13.4-4.9
				C917,826.5,857.5,625.8,830.1,565.7z"/>
			<path class="st27" d="M796.6,537.8c4.5-6.4,13.9-20.6,14-20.5c-6.9-27.7-28.5-78-30.7-81.4c-2.8-4.3-65.7-19.8-88.9-28.2
				s-56.5-54.4-62.1-57.9c-5.7-3.5-21.4,7-21.4,7s35.5,57.9,46.8,71.5c11.3,13.6,36.7,28.1,76.9,50.5C730.6,500.6,748,557,748,557
				c2.4,4,23.6-0.7,41-7.7C791.7,545.5,796.6,537.8,796.6,537.8z"/>
		</g>
		<g class="st23">
			<path class="st27" d="M796.6,537.8l15.6-3.7c1.1-2.6,0.3-9.4-1.7-17.1C806.3,523.5,801.4,531.1,796.6,537.8z"/>
		</g>
	</g>
</g>
</svg>
