<svg xmlns="http://www.w3.org/2000/svg" xmlns:xlink="http://www.w3.org/1999/xlink" version="1.1" x="0px" y="0px" viewBox="0 0 48 60" enable-background="new 0 0 48 48" xml:space="preserve"><g><path d="M47,0H1C0.4,0,0,0.4,0,1v46c0,0.6,0.4,1,1,1h46c0.6,0,1-0.4,1-1V1C48,0.4,47.6,0,47,0z M46,46H2V10h44V46z M46,8H2V2h44V8z   "/><path d="M24,35.7c4.2,0,7.7-3.4,7.7-7.7c0-4.2-3.4-7.7-7.7-7.7c-4.2,0-7.7,3.4-7.7,7.7C16.3,32.2,19.8,35.7,24,35.7z M24,22.3   c3.1,0,5.7,2.5,5.7,5.7c0,3.1-2.5,5.7-5.7,5.7c-3.1,0-5.7-2.5-5.7-5.7C18.3,24.9,20.9,22.3,24,22.3z"/><path d="M10,31h2c0.3,1.2,0.8,2.3,1.4,3.3L12,35.8c-0.4,0.4-0.4,1,0,1.4l2.8,2.8c0.2,0.2,0.4,0.3,0.7,0.3c0.3,0,0.5-0.1,0.7-0.3   l1.4-1.4c1,0.6,2.2,1.1,3.3,1.4v2c0,0.6,0.4,1,1,1h4c0.6,0,1-0.4,1-1v-2c1.2-0.3,2.3-0.8,3.3-1.4l1.4,1.4c0.4,0.4,1,0.4,1.4,0   l2.8-2.8c0.4-0.4,0.4-1,0-1.4l-1.4-1.4c0.6-1,1.1-2.2,1.4-3.3h2c0.6,0,1-0.4,1-1v-4c0-0.6-0.4-1-1-1h-2c-0.3-1.2-0.8-2.3-1.4-3.3   l1.4-1.4c0.2-0.2,0.3-0.4,0.3-0.7c0-0.3-0.1-0.5-0.3-0.7L33.2,16c-0.4-0.4-1-0.4-1.4,0l-1.4,1.4c-1-0.6-2.2-1.1-3.3-1.4v-2   c0-0.6-0.4-1-1-1h-4c-0.6,0-1,0.4-1,1v2c-1.2,0.3-2.3,0.8-3.3,1.4L16.2,16c-0.4-0.4-1-0.4-1.4,0L12,18.8c-0.2,0.2-0.3,0.4-0.3,0.7   c0,0.3,0.1,0.5,0.3,0.7l1.4,1.4c-0.6,1-1.1,2.2-1.4,3.3h-2c-0.6,0-1,0.4-1,1v4C9,30.6,9.4,31,10,31z M11,27h1.9   c0.5,0,0.9-0.3,1-0.8c0.3-1.5,0.8-2.8,1.7-4.1c0.3-0.4,0.2-0.9-0.1-1.3l-1.3-1.3l1.4-1.4l1.3,1.3c0.3,0.3,0.9,0.4,1.3,0.1   c1.2-0.9,2.6-1.4,4.1-1.7c0.5-0.1,0.8-0.5,0.8-1V15h2v1.9c0,0.5,0.3,0.9,0.8,1c1.5,0.3,2.8,0.8,4.1,1.7c0.4,0.3,0.9,0.2,1.3-0.1   l1.3-1.3l1.4,1.4l-1.3,1.3c-0.3,0.3-0.4,0.9-0.1,1.3c0.9,1.2,1.4,2.6,1.7,4.1c0.1,0.5,0.5,0.8,1,0.8H37v2h-1.9   c-0.5,0-0.9,0.3-1,0.8c-0.3,1.5-0.8,2.8-1.7,4.1c-0.3,0.4-0.2,0.9,0.1,1.3l1.3,1.3l-1.4,1.4l-1.3-1.3c-0.3-0.3-0.9-0.4-1.3-0.1   c-1.2,0.9-2.6,1.4-4.1,1.7c-0.5,0.1-0.8,0.5-0.8,1V41h-2v-1.9c0-0.5-0.3-0.9-0.8-1c-1.5-0.3-2.8-0.8-4.1-1.7   c-0.4-0.3-0.9-0.2-1.3,0.1l-1.3,1.3l-1.4-1.4l1.3-1.3c0.3-0.3,0.4-0.9,0.1-1.3c-0.9-1.2-1.4-2.6-1.7-4.1c-0.1-0.5-0.5-0.8-1-0.8H11   V27z"/><path d="M40,6h1.6c0.6,0,1-0.4,1-1c0-0.6-0.4-1-1-1H40c-0.6,0-1,0.4-1,1C39,5.6,39.5,6,40,6z"/><path d="M34.1,6h1.6c0.6,0,1-0.4,1-1c0-0.6-0.4-1-1-1h-1.6c-0.6,0-1,0.4-1,1C33.1,5.6,33.6,6,34.1,6z"/><path d="M28.2,6h1.6c0.6,0,1-0.4,1-1c0-0.6-0.4-1-1-1h-1.6c-0.6,0-1,0.4-1,1C27.2,5.6,27.6,6,28.2,6z"/><path d="M6.4,6h17c0.6,0,1-0.4,1-1c0-0.6-0.4-1-1-1h-17c-0.6,0-1,0.4-1,1C5.4,5.6,5.8,6,6.4,6z"/></g><text x="0" y="63" fill="#000000" font-size="5px" font-weight="bold" font-family="'Helvetica Neue', Helvetica, Arial-Unicode, Arial, Sans-serif">Created by Vectors Market</text><text x="0" y="68" fill="#000000" font-size="5px" font-weight="bold" font-family="'Helvetica Neue', Helvetica, Arial-Unicode, Arial, Sans-serif">from the Noun Project</text></svg>