<?xml version="1.0" encoding="utf-8"?>
<!-- Generator: Adobe Illustrator 23.0.0, SVG Export Plug-In . SVG Version: 6.00 Build 0)  -->
<svg version="1.1" xmlns="http://www.w3.org/2000/svg" xmlns:xlink="http://www.w3.org/1999/xlink" x="0px" y="0px"
	 viewBox="0 0 1920 1080" style="enable-background:new 0 0 1920 1080;" xml:space="preserve">
<style type="text/css">
	.st0{display:none;}
	.st1{display:inline;fill:#DE8E68;}
	.st2{display:inline;fill:#6FC9CE;}
	.st3{display:inline;fill:#FEBF92;}
	.st4{display:inline;fill:#FED892;}
	.st5{display:inline;fill:none;stroke:#000000;stroke-width:0.95;stroke-miterlimit:10;}
	.st6{display:inline;fill:none;stroke:#000000;stroke-width:1.0746;stroke-linecap:round;stroke-miterlimit:10;}
	.st7{display:inline;fill:#74D5DE;}
	.st8{display:inline;}
	.st9{display:inline;fill:#FECC92;}
	.st10{display:inline;fill:#D38466;}
	.st11{display:inline;fill:#FD8369;}
	.st12{fill:#FFFFFF;}
	.st13{fill:#F3F3F3;}
	.st14{fill:#E1E1E1;}
	.st15{fill:#FD8369;}
	.st16{fill:#6FC9CE;}
	.st17{fill:#74D5DE;}
	.st18{fill:#F15A24;}
	.st19{fill:#DE8E68;}
	.st20{fill:#1F151E;}
	.st21{opacity:0.31;fill:#1F151E;}
	.st22{fill:#FEBF92;}
	.st23{opacity:0.31;}
	.st24{opacity:0.31;fill:#DE8E68;}
	.st25{opacity:0.36;}
	.st26{opacity:0.31;fill:#6FC9CE;}
	.st27{fill:#FECC92;}
</style>
<g id="Camada_1">
	<g id="Foreground" class="st0">
		<rect x="968.09" y="810.2" class="st1" width="15.3" height="23.2"/>
		<rect x="1148.39" y="908.2" class="st1" width="15.3" height="23.2"/>
		<path class="st2" d="M1080.39,595.5c-18.5,0-101.1,82.1-108.3,95.9c-7.2,13.8-5.1,121.9-5.1,121.9l17.8,3.4l28.9-100.7
			c12.6-1.5,65.6-12.9,93-35c27.4-22.2-2.6-71.7-2.6-71.7L1080.39,595.5z"/>
		<path class="st1" d="M1049.49,484c-9.1,8.1-27.3,28.4-28.8,31c-4.6-2.2-52.5-27.4-56.1-29s-11.2-14.3-13.8-14.3
			c-1.5,0-2.9,2.9-2.9,4.9c0,3.4,1.6,6,2.6,7.1c-3.4-0.5-33.4-2.8-33.4-0.8c0,5.2,33.6,12.1,36.2,13.5c2.6,1.4,57.3,52,76.3,52
			c7.4,0,40.1-22.2,40.1-24.6c3.1-2.1,7.9-5.2,7.9-5.2V501l-11.4-8.3C1066.19,492.6,1051.29,482.4,1049.49,484z"/>
		<path class="st3" d="M1048.29,478.2c2-16.2,39.3-53,56.4-36.6c14.9,14.3-12.1,65.4-19,67.4
			C1077.89,509.8,1047.79,489.2,1048.29,478.2z"/>
		<path class="st4" d="M1162.09,444.5c19-8,45.6,36,42.6,52c0,7-39,22-45,18S1143.09,452.5,1162.09,444.5z"/>
		<path class="st5" d="M1079.89,503.6"/>
		<path class="st6" d="M1132.89,394.5"/>
		<path class="st7" d="M1085.49,602.6l62.8,305.5h16.1l5.7-272.5c0-4.7-0.4-34.3-0.4-38.1C1151.49,602.8,1112.69,607,1085.49,602.6z
			"/>
		<polygon class="st8" points="1148.39,931.4 1163.69,931.4 1163.69,948 1121.49,948 		"/>
		<polygon class="st8" points="968.09,833.4 983.39,833.4 983.39,850 941.19,850 		"/>
		<path class="st9" d="M1120.49,421c47,0,63.4,39.1,63.4,51.8c0,12.7-14.7,90.2-14.1,124.7c0.1,5.7-84.3,10.8-95.8,2.5
			C1068.59,596.1,1056.99,421,1120.49,421z"/>
		<path class="st1" d="M1204.69,496.5c13.3,20.4,12.5,67.4,12.5,74.5s-49.6,70.9-53.9,70.9c-2.6-2.6-9.8-10.5-9.8-12.9
			c2.3-4.2,31.8-68.7,37.1-73.3c-2.4-2.9-23.5-36-24.4-41.5C1184.69,511.1,1202.59,503.3,1204.69,496.5z"/>
		<path class="st4" d="M1204.69,496.5c3-16-21.3-62.4-42.6-52c-18.5,9.1-8.4,66-2.4,70C1166.89,517.6,1201.89,507.1,1204.69,496.5z"
			/>
		<path class="st10" d="M1108.49,411.4c-1,3.1-1.5,12.7-0.4,17c0.1,0.2,20,1.7,22.2-1.8c0.1-2.9,4.9-28.7,11.4-36.7
			c0.6-0.9-0.7-3.4-0.7-3.4l-23.1,9.6L1108.49,411.4"/>
		<path class="st11" d="M1138.39,388.7c1.5,2,3.4,2.9,5.1,2.9c3.8,0,12.6-3.5,12.6-16c0-9-8.8-13.6-8.8-17.9c0-4.1,1.1-4.2,1.1-7.6
			c0-1.7-1.7-7.3-7-7.3c-3,0-4.1,2.5-7.1,2.5c-3.3,0-6.3-6.4-11.3-6.4c-3.4,0-6.6,3.2-10.2,3.2c-4.1,0-6.9-6.1-12.6-6.1
			c-5.9,0-8,5.3-10.3,5.3c-2.9,0-3.4-0.8-6.3-0.8c-1.8,0-7.3,3.2-7.3,9c0,4.1,1.7,10.8,10.2,10.8c5,0,7.8,7.9,12.2,7.9
			c1.7,0,3.2-1.4,3.6-0.7c1.7,3,5.2,11.2,5.2,11.2l15.9,8.9L1138.39,388.7z"/>
		<path class="st1" d="M1134.89,384.6c0,1.4-0.5,1.7-2.6,1.7c-1,0-2.4-1.3-2.4-2.7c0-3.3,2.4-4,2.4-8.3c0-7.3-19.1-11.1-25.8-14.9
			l0,0c-2.4,2.4-4.1,5.5-4.8,9l-4.3,22.1c-1.9,9.6,4.4,18.9,13.9,20.8s18.9-4.4,20.8-13.9l0.7-3.8l0,0c0.4,0.1,0.8,0.2,1.1,0.2
			c2.5,0,4.4-2.3,4.4-5.1C1138.49,387.1,1134.89,382.5,1134.89,384.6z"/>
	</g>
</g>
<g id="Camada_2">
	<path class="st12" d="M824.44,957.97c-95.42,2.35-364.46,8.99-399.59,35.92c-19.81,15.19,37.27,34.93,110.56,41.14
		c89.73,7.6,147.32-9.86,270.23-5.29c96.75,3.59,91.82,15.55,193.43,22.84c122.42,8.77,310.74,4.39,363.49-17.09
		c46.38-18.89-24.74-45.84-90.52-59.6C1148.23,949.99,965.36,954.5,824.44,957.97z"/>
	<g>
		<g id="Background">
			<rect x="535.27" y="144.07" class="st13" width="727.7" height="717.3"/>
			<rect x="535.27" y="144.07" class="st14" width="727.7" height="54.6"/>
			<circle class="st15" cx="573.67" cy="172.07" r="8.6"/>
			<circle class="st15" cx="601.37" cy="172.07" r="8.6"/>
			<circle class="st15" cx="629.07" cy="172.07" r="8.6"/>
			<rect x="570.87" y="238.47" class="st12" width="290.9" height="157.6"/>
			<rect x="570.87" y="433.47" class="st12" width="290.9" height="157.6"/>
			<rect x="932.57" y="433.47" class="st12" width="290.9" height="339.9"/>
			<rect x="912.27" y="249.87" class="st14" width="399.4" height="15.2"/>
			<rect x="912.27" y="292.77" class="st14" width="399.4" height="15.2"/>
			<rect x="912.27" y="335.67" class="st14" width="399.4" height="15.2"/>
			<rect x="912.27" y="378.57" class="st14" width="399.4" height="15.2"/>
		</g>
		<rect x="1023.37" y="897.07" class="st15" width="182.1" height="106.6"/>
		<polygon class="st15" points="566.07,1009.47 495.77,1008.67 471.17,918.37 589.07,918.37 		"/>
		<path class="st16" d="M540.17,882.97c-20.3-135.9-70-207.2-76.3-204.5c-8.9,3.9-11.5,80.2,4.4,159c0.4,0,0.7-0.1,1.1-0.1
			c4.6,0,8.3,3.7,8.3,8.3c0,1.4-0.3,2.7-0.9,3.8c2.7,1.4,4.6,4.2,4.6,7.4c0,4-2.9,7.4-6.7,8.2c4.7,18.2,10.6,36.2,17.6,52.9
			c3.6,0,44,0,44,0S543.17,902.77,540.17,882.97z"/>
		<path class="st17" d="M657.67,738.87c-12.3,0-25.5,35.4-40.1,35.4c-3.2,0-5.3-3.5-5.3-6.8c0-3.2,10.1-38.4,10.1-55.5
			c0-1.5-0.1-3.1-0.3-4.7c-1.6,1-3.6,1.6-5.6,1.6c-6,0-10.9-4.9-10.9-10.9c0-5.3,3.7-9.6,8.7-10.7c-5.1-6.5-12.6-11.1-22.8-11.1
			c-12.9,0-31.1,11.5-31.1,29.3c0,5,1.5,17.7,1.5,29.2c0,65.2-51.1,75-51.1,147.2c0,15.2,8.4,31.9,10.9,36c0,0,42.8,0.5,46.9,0.5
			c4.1,0,37.4-55.6,41.2-61.5c14.5-22.4,62.7-47,62.7-100.5C672.47,748.87,669.77,738.87,657.67,738.87z"/>
		<g>
			
				<ellipse transform="matrix(0.6137 -0.7896 0.7896 0.6137 -98.4403 1175.5021)" class="st18" cx="1151.99" cy="688.34" rx="193.54" ry="37.39"/>
			<path class="st19" d="M1197.5,516.73c0,1.4-0.5,1.7-2.6,1.7c-1,0-2.4-1.3-2.4-2.7c0-3.3,2.4-4,2.4-8.3c0-7.3-19.1-11.1-25.8-14.9
				l0,0c-2.4,2.4-4.1,5.5-4.8,9l-4.3,22.1c-1.9,9.6,4.4,18.9,13.9,20.8c9.5,1.9,18.9-4.4,20.8-13.9l0.7-3.8l0,0
				c0.4,0.1,0.8,0.2,1.1,0.2c2.5,0,4.4-2.3,4.4-5.1C1201.1,519.23,1197.5,514.63,1197.5,516.73z"/>
			<path class="st15" d="M1202.52,527.48c0.94,2.32,2.55,3.67,4.19,4.11c3.67,0.97,13.08-0.17,16.27-12.25
				c2.3-8.7-5.04-15.4-3.94-19.55c1.05-3.96,2.14-3.78,3-7.07c0.43-1.64,0.22-7.49-4.91-8.84c-2.9-0.77-4.6,1.37-7.5,0.61
				c-3.19-0.84-4.46-7.8-9.29-9.07c-3.29-0.87-7.2,1.41-10.68,0.49c-3.96-1.05-5.11-7.66-10.63-9.11c-5.7-1.51-9.09,3.08-11.31,2.5
				c-2.8-0.74-3.08-1.64-5.89-2.38c-1.74-0.46-7.87,1.23-9.36,6.84c-1.05,3.96-1.11,10.88,7.11,13.05
				c4.83,1.28,5.53,9.63,9.78,10.75c1.64,0.43,3.45-0.54,3.66,0.24c0.88,3.33,2.17,12.16,2.17,12.16l13.1,12.66L1202.52,527.48z"/>
			<path class="st20" d="M1082.71,882.18c0,0,0.53,8.65-1.41,9.88c-1.94,1.24-10.41,2.12-9.53,6.35c-0.06,4.94,18.92,2.51,24.88,0
				c1.94-3.71-2.47-18.71-4.59-20.47S1082.71,882.18,1082.71,882.18z"/>
			<path class="st21" d="M1325.53,969.36c0,0,1.24,19.59,0,20.82c-1.24,1.24-5.82,3-4.76,6.53c1.06,3.53,3.53,9,7.76,6.18
				c4.24-2.82,10.94-15.88,11.65-20.29c0.71-4.41-3.18-14.82-5.29-16.41C1332.76,964.6,1325.53,969.36,1325.53,969.36z"/>
			<path class="st19" d="M1187.71,570.01c0,0,0-20.47,2.82-27.53c2.82-7.06,6.35-16.94,6.35-16.94l-24,5.65c0,0,0,30.71,4.24,42.18
				C1181.35,584.83,1187.71,570.01,1187.71,570.01z"/>
			<path class="st19" d="M1030.38,483.18v-3.52c0,0-21.26,2.11-12.09-19.77c-9.88-10.59-19.76-21.88-7.06-16.94
				c12.71,11.29,24.71,26.1,31.06,35.99C1048.65,488.83,1030.38,483.18,1030.38,483.18z"/>
			<path class="st22" d="M1235.94,633.45c8.41-13.65,15.63-26.46,21.47-38.05c0,0,0,0,0,0c-22.33-13.47-47.6-25.61-66.17-29.64
				c-32.47-7.05,17.65,54.36,17.65,54.36S1221.3,626.08,1235.94,633.45C1235.94,633.45,1235.94,633.45,1235.94,633.45z"/>
			<g class="st23">
				<path class="st22" d="M1298.44,625.11c-9.36-8.76-24.42-19.59-41.12-29.67c-5.84,11.59-13.05,24.39-21.47,38.05
					c18.65,9.39,40.9,21.09,45.65,25.71c8.47,8.26,50.12,64.73,50.12,64.73s16.94-1.44,21.18-8.13
					C1347.85,702.11,1320.32,645.58,1298.44,625.11z"/>
			</g>
			<path class="st24" d="M1351.2,717.63c-2.54,2.25-6.61,3.73-10.38,4.7c4.81,8.15,9.42,20.26,12.06,27.53
				c3.53,9.74,11.29,8.62,13.41,0C1367.82,743.64,1357.22,726.62,1351.2,717.63z"/>
			<path class="st17" d="M1085.33,816.05c-2.21-27.73-3.71-54.34-5.63-61.81c11.23,4.4,30.58,7.26,58.97,8.38
				c13.42-15.06,30.09-34.37,43.27-51.34c11.53-14.84,22.27-29.5,32.05-43.65l15.46-3.67c-0.06-0.05-0.1-0.08-0.1-0.08l-68.47,16.24
				c0,0-122.82,43.76-134.82,50.12c-7.82,4.14,13.72,61.3,32.03,105.52C1065.73,831.08,1076.13,823.85,1085.33,816.05z"/>
			<g class="st25">
				<path class="st17" d="M1229.35,663.89l-15.79,3.74c-9.78,14.16-20.52,28.82-32.05,43.65c-14.41,18.54-28.85,35.81-42.8,51.34
					c12.63,0.5,27.05,0.65,43.34,0.43c52.94-0.71,64.94-32.81,64.94-68.59C1247,677.03,1229.35,663.89,1229.35,663.89z"/>
				<path class="st17" d="M1085.31,815.71c-10.15,8.66-19.34,15.47-27.2,20.1c9.79,23.64,18.65,43.58,21.6,49.73
					c14.82-2.12,14.82,0,13.41-7.76C1089.55,863.5,1087.17,839.18,1085.31,815.71z"/>
			</g>
			<path class="st26" d="M1246.99,695.52c-0.23,34.29-11.79,64.93-60.3,67.39l138.66,212.28c0,0,7.76,2.12,13.41-4.94
				C1333.92,956.31,1274.45,755.62,1246.99,695.52z"/>
			<path class="st27" d="M1213.56,667.64c4.51-6.4,13.92-20.59,14.01-20.5c-6.87-27.65-28.47-78.04-30.68-81.38
				c-2.82-4.25-65.65-19.75-88.94-28.22c-23.29-8.47-56.47-54.35-62.12-57.88c-5.65-3.52-21.41,7.05-21.41,7.05
				s35.53,57.88,46.82,71.45c11.29,13.56,36.71,28.08,76.94,50.5c-0.71,21.71,16.74,78.2,16.74,78.2
				c2.41,4.02,23.59-0.69,40.97-7.67C1208.66,675.3,1213.56,667.64,1213.56,667.64z"/>
		</g>
		<g class="st23">
			<path class="st27" d="M1213.56,667.64l15.6-3.74c1.08-2.61,0.26-9.36-1.67-17.06C1223.22,653.31,1218.27,660.91,1213.56,667.64z"
				/>
		</g>
	</g>
</g>
</svg>
