<?xml version="1.0" encoding="utf-8"?>
<!-- Generator: Adobe Illustrator 23.0.1, SVG Export Plug-In . SVG Version: 6.00 Build 0)  -->
<svg version="1.1" id="Camada_1" xmlns="http://www.w3.org/2000/svg" xmlns:xlink="http://www.w3.org/1999/xlink" x="0px" y="0px"
	 viewBox="0 0 1295.96 403.69" style="enable-background:new 0 0 1295.96 403.69;" xml:space="preserve">
<style type="text/css">
	.st0{fill:#DDDDDD;}
	.st1{fill:#FFFFFF;}
	.st2{fill:#EDF1F5;}
	.st3{fill:#4D4D4D;}
	.st4{font-family:'MyriadPro-Regular';}
	.st5{font-size:11.108px;}
	.st6{fill:#41A1F2;}
	.st7{font-size:6.3474px;}
	.st8{fill:#4367B1;}
	.st9{fill:#333333;}
	.st10{fill:#BCBCBC;}
	.st11{fill:#E5E5E5;}
</style>
<g>
	<rect y="38.19" class="st0" width="494.05" height="343.74"/>
	<rect x="78.41" y="38.19" class="st1" width="337.23" height="335.34"/>
	<rect x="88" y="153.98" class="st2" width="99.13" height="99.13"/>
	<rect x="197.21" y="153.98" class="st2" width="99.13" height="99.13"/>
	<rect x="306.61" y="153.98" class="st2" width="99.13" height="99.13"/>
	<rect x="88.3" y="261.84" class="st2" width="99.13" height="99.13"/>
	<rect x="197.52" y="261.84" class="st2" width="99.13" height="99.13"/>
	<rect x="306.92" y="261.84" class="st2" width="99.13" height="99.13"/>
	<circle class="st2" cx="133.37" cy="113.66" r="26.32"/>
	<text transform="matrix(1 0 0 1 198.0074 98.5354)" class="st3 st4 st5">username</text>
	<rect x="262" y="90.32" class="st6" width="38.88" height="11.2"/>
	<text transform="matrix(1 0 0 1 268.148 97.7864)" class="st1 st4 st7">instagram</text>
	<text transform="matrix(1 0 0 1 198.0074 113.6575)"><tspan x="0" y="0" class="st3 st4 st7">100k seguidores</tspan><tspan x="0" y="7.62" class="st3 st4 st7">seguindo 20k</tspan></text>
	<rect y="38.19" class="st2" width="494.05" height="22.4"/>
	<rect x="297.14" y="44.07" class="st1" width="94.98" height="10.64"/>
</g>
<g>
	<rect x="801.91" y="30.45" class="st8" width="494.05" height="25.33"/>
	<rect x="801.91" y="53.9" class="st0" width="494.05" height="322.75"/>
	<rect x="920.07" y="268.34" class="st1" width="347.09" height="108.31"/>
	<rect x="920.07" y="220.22" class="st1" width="347.09" height="28.32"/>
	<rect x="920.07" y="53.9" class="st9" width="347.09" height="171.38"/>
	<rect x="1211.78" y="230.31" class="st9" width="50.22" height="12.7"/>
	<rect x="1140.88" y="230.31" class="st9" width="64.99" height="12.7"/>
	<rect x="831.7" y="60.83" class="st1" width="76.06" height="86.96"/>
	<circle class="st8" cx="869.73" cy="104.31" r="30.28"/>
	<rect x="831.7" y="171.64" class="st10" width="56.86" height="9.14"/>
	<rect x="831.7" y="156.37" class="st10" width="68.31" height="9.14"/>
</g>
<polygon class="st11" points="922.07,10.7 372.61,10.7 372.61,392.99 922.07,392.99 922.07,10.7 "/>
<g>
	<rect x="435.59" y="48.84" class="st1" width="423.5" height="81.66"/>
	<rect x="435.59" y="139.27" class="st1" width="423.5" height="17.96"/>
	<rect x="435.59" y="166.22" class="st1" width="423.5" height="17.96"/>
	<rect x="435.59" y="193.03" class="st1" width="243.54" height="76.49"/>
	<rect x="691.57" y="193.03" class="st1" width="167.53" height="19.6"/>
	<rect x="691.57" y="221.47" class="st1" width="167.53" height="19.6"/>
	<rect x="691.57" y="249.92" class="st1" width="167.53" height="19.6"/>
	<rect x="435.59" y="278.36" class="st1" width="243.54" height="76.49"/>
	<rect x="691.57" y="278.36" class="st1" width="167.53" height="19.6"/>
	<rect x="691.57" y="306.81" class="st1" width="167.53" height="19.6"/>
	<rect x="691.57" y="335.25" class="st1" width="167.53" height="19.6"/>
</g>
<rect x="372.61" y="10.77" class="st2" width="549.46" height="25.88"/>
<rect x="435.59" y="18.67" class="st1" width="423.5" height="10.09"/>
</svg>
