<?xml version="1.0" encoding="utf-8"?>
<!-- Generator: Adobe Illustrator 23.0.1, SVG Export Plug-In . SVG Version: 6.00 Build 0)  -->
<svg version="1.1" id="Camada_1" xmlns="http://www.w3.org/2000/svg" xmlns:xlink="http://www.w3.org/1999/xlink" x="0px" y="0px"
	 viewBox="0 0 1030.59 319.06" style="enable-background:new 0 0 1030.59 319.06;" xml:space="preserve">
<style type="text/css">
	.st0{fill:#353535;}
	.st1{fill:#FFFFFF;}
	.st2{fill:#CCCCCC;}
	.st3{fill:#D85251;}
	.st4{fill:#F03E3A;}
	.st5{fill:#DCBF49;}
	.st6{fill:#C14D4D;}
	.st7{fill:#F6DC4B;}
	.st8{fill:#4F5177;}
	.st9{fill:#F2F2F2;}
	.st10{fill:#31334A;}
	.st11{fill:#8CC63E;}
	.st12{fill:#7DA938;}
	.st13{fill:#B3B3B3;}
	.st14{fill:#432618;}
	.st15{fill:#9EB121;}
	.st16{fill:#C6CC38;}
	.st17{fill:#8E8E8E;}
	.st18{fill:#B7B7B7;}
</style>
<g>
	<polygon class="st0" points="551.02,304.94 613.49,304.94 606.07,230.82 551.02,230.82 	"/>
	<rect x="551.02" class="st0" width="202.24" height="244.59"/>
	<polygon class="st1" points="741.6,10.59 551.02,10.59 551.02,216.94 741.6,216.94 741.6,10.59 	"/>
	<rect x="551.02" y="49.29" class="st2" width="143.65" height="35.29"/>
	<rect x="551.02" y="88.38" class="st2" width="143.65" height="7.76"/>
	<rect x="551.02" y="100.03" class="st2" width="143.65" height="7.76"/>
	<rect x="551.02" y="111.62" class="st2" width="71.82" height="33.06"/>
	<rect x="637.84" y="111.62" class="st2" width="56.82" height="8.47"/>
	<rect x="637.84" y="123.91" class="st2" width="56.82" height="8.47"/>
	<rect x="637.84" y="136.21" class="st2" width="56.82" height="8.47"/>
	<rect x="551.02" y="148.5" class="st2" width="71.82" height="33.06"/>
	<rect x="637.84" y="148.5" class="st2" width="56.82" height="8.47"/>
	<rect x="637.84" y="160.8" class="st2" width="56.82" height="8.47"/>
	<rect x="637.84" y="173.09" class="st2" width="56.82" height="8.47"/>
	<rect x="357.72" y="145.69" class="st3" width="193.97" height="158.89"/>
	<rect x="357.72" y="127.49" class="st4" width="193.97" height="19.34"/>
	<path class="st5" d="M357.72,148.04c12.74,0,23.07-10.25,23.07-22.9h-46.13C334.66,137.79,344.98,148.04,357.72,148.04z"/>
	<path class="st6" d="M403.85,148.04c12.74,0,23.07-10.25,23.07-22.9h-46.13C380.79,137.79,391.11,148.04,403.85,148.04z"/>
	<path class="st5" d="M449.98,148.04c12.74,0,23.07-10.25,23.07-22.9h-46.13C426.92,137.79,437.24,148.04,449.98,148.04z"/>
	<path class="st6" d="M496.11,148.04c12.74,0,23.07-10.25,23.07-22.9h-46.13C473.05,137.79,483.37,148.04,496.11,148.04z"/>
	<rect x="426.92" y="0.05" class="st7" width="46.13" height="125.95"/>
	<polygon class="st6" points="426.92,0 384.95,0 380.79,125.95 426.92,125.95 	"/>
	<polygon class="st7" points="384.95,0 349.38,0.03 334.66,126 380.79,126 	"/>
	<polygon class="st6" points="473.05,0.02 519.18,0 519.18,125.98 473.05,125.98 	"/>
	<rect x="389.4" y="176.04" class="st8" width="68.36" height="128.54"/>
	<rect x="467.49" y="176.04" class="st8" width="74.48" height="64.27"/>
	<rect x="396.63" y="183.18" class="st9" width="53.91" height="50.71"/>
	<rect x="474.93" y="182.46" class="st9" width="59.6" height="51.43"/>
	<rect x="463.88" y="240.29" class="st10" width="81.7" height="5.81"/>
	<rect x="432.2" y="243.2" class="st10" width="17.79" height="2.9"/>
	<rect x="519.18" class="st7" width="32.51" height="125.95"/>
	<path class="st5" d="M551.69,125.14h-32.51c0,12.64,10.33,22.9,23.07,22.9c3.37,0,6.56-0.72,9.45-2.01V125.14z"/>
	<ellipse class="st11" cx="236.07" cy="284.9" rx="22.82" ry="17.02"/>
	<ellipse class="st12" cx="279.69" cy="286.23" rx="31.5" ry="18.35"/>
	<ellipse class="st11" cx="305.9" cy="283.43" rx="19.59" ry="15.55"/>
	<ellipse class="st12" cx="330.86" cy="282.23" rx="15.81" ry="12.55"/>
	<rect x="213.25" y="279.53" class="st8" width="133.41" height="25.41"/>
	<rect x="213.25" y="297.53" class="st10" width="133.41" height="7.41"/>
	<rect x="217.96" y="286.35" class="st10" width="56.94" height="5.88"/>
	<rect x="279.96" y="286.35" class="st10" width="60.82" height="5.88"/>
	<rect x="389.4" y="297.53" class="st10" width="68.36" height="7.05"/>
</g>
<rect y="303.92" class="st13" width="1030.59" height="15.13"/>
<rect x="84" y="145.69" class="st14" width="20.47" height="158.23"/>
<path class="st15" d="M95.24,27c-0.2-0.01-0.4-0.02-0.61-0.02c-25.08,0-80.39,73.95-80.39,124.35c0,50.41,55.31,61.85,80.39,61.85
	c0.21,0,0.41-0.01,0.61-0.02V27z"/>
<path class="st16" d="M94.24,27c0.2-0.01,0.4-0.02,0.61-0.02c25.08,0,80.39,73.95,80.39,124.35c0,50.41-55.31,61.85-80.39,61.85
	c-0.21,0-0.41-0.01-0.61-0.02V27z"/>
<g>
	<rect x="912.98" y="127.06" class="st0" width="10.41" height="71.16"/>
	<rect x="860.5" y="287.56" class="st0" width="115.36" height="15.61"/>
	<rect x="902.57" y="167.17" class="st0" width="31.23" height="128.19"/>
	<polygon class="st17" points="918.18,61.74 889.83,61.74 813.66,142.16 918.18,142.16 	"/>
	<polygon class="st18" points="917.98,61.74 946.34,61.74 1022.5,142.16 917.98,142.16 	"/>
</g>
</svg>
